<svg xmlns="http://www.w3.org/2000/svg" width="45.25" height="46.71" viewBox="0 0 45.25 46.71">
  <g id="_017-travel" data-name="017-travel" transform="translate(0)">
    <path id="Caminho_617" data-name="Caminho 617" d="M49.444,51.761a22.351,22.351,0,1,0-42.189-.01Zm0,0" transform="translate(-5.452 -19.993)" fill="#3c2b8e"/>
    <path id="Caminho_618" data-name="Caminho 618" d="M40.544,154.669a22.36,22.36,0,0,0,21.123-15.031,21.127,21.127,0,0,0-42.251-.011,22.36,22.36,0,0,0,21.127,15.041Zm0,0" transform="translate(-17.646 -107.959)" fill="#2299f2"/>
    <path id="Caminho_619" data-name="Caminho 619" d="M45,145.74c1.079-4.2-1.5-3.771-4.579-7.609A7.367,7.367,0,0,1,39.8,130.1l-.175-2.591a2.669,2.669,0,0,1-.006-2,2.567,2.567,0,0,0-.163-2.471,3.9,3.9,0,0,1-.237-3.772,21.128,21.128,0,0,0-19.8,20.788,22.381,22.381,0,0,0,26.475,14.4h0c-3.187-2.888-1.976-4.509-.9-8.706Zm0,0" transform="translate(-17.647 -108.381)" fill="#1588e8"/>
    <path id="Caminho_620" data-name="Caminho 620" d="M197.917,145.555l1.177,3.414s1.42,2.282,0,3.7-3.186.345-3.186,1.292-3.531.43-3.531,1.722-3.186,2.583-1.722,4.047,2.755-1.894,3.7-.947,1.205,3.875,0,3.875-1.717,1.808-4.088.947-3.059-3.186-4.179-2.067-5.21,2.239-4.2,6.2,3.423,3.616,5.4,3.616,1.636,2.755,1.636,4.305a7.151,7.151,0,0,0,1.4,3.209,22.336,22.336,0,0,0,3.066-.53,8.982,8.982,0,0,1,1.646-3.368c1.378-1.378,2.786-1.79,2.183-3.4-.319-.856.874-2.494-.2-3.57s-2.5-1.894-1.894-2.5,4.435,1.679,5.683.43,1.894,3.444,3.1,3.444,1.205-3.186,2.239-3.186c.645,0,1.456-.4,2.164-.117a22.266,22.266,0,0,0,.86-2.121,21.127,21.127,0,0,0-11.262-18.4Zm0,0" transform="translate(-165.155 -132.276)" fill="#83d912"/>
    <path id="Caminho_621" data-name="Caminho 621" d="M359.109,145.555l1.177,3.414a4.378,4.378,0,0,1,.619,2.366,2.2,2.2,0,0,1-.242.826c-.315,1.395-.526,4.2,2.34,5.57,3.806,1.821.932,6.943,6.088,8.247a1.427,1.427,0,0,1,.419.095,22.244,22.244,0,0,0,.86-2.121,21.125,21.125,0,0,0-11.262-18.4Zm0,0" transform="translate(-326.347 -132.276)" fill="#abf222"/>
    <path id="Caminho_622" data-name="Caminho 622" d="M192.5,325.9c1.079-4.2-1.5-3.771-4.579-7.609-.72-.664-1.21-1.108-1.832-.485-1.119,1.119-5.21,2.239-4.2,6.2s3.423,3.616,5.4,3.616,1.636,2.755,1.636,4.305a7.147,7.147,0,0,0,1.4,3.209,22.219,22.219,0,0,0,3.066-.53c-3.187-2.888-1.976-4.509-.9-8.706Zm0,0" transform="translate(-165.156 -288.538)" fill="#5bbf02"/>
    <path id="Caminho_623" data-name="Caminho 623" d="M214.342,119.3a21.256,21.256,0,0,0-8.663-.109,4.516,4.516,0,0,0,.15,2.233,4.3,4.3,0,0,0,4.262,2.648c1.227,0,1.679,2.325,3.229,2.325s.646-2.583,1.421-3.358.969-1.227,0-2.2a1.607,1.607,0,0,1-.429-1.239A2.528,2.528,0,0,1,214.342,119.3Zm0,0" transform="translate(-186.85 -107.959)" fill="#83d912"/>
    <path id="Caminho_624" data-name="Caminho 624" d="M209.068,124.405a2.583,2.583,0,0,0-.405-1.371,3.905,3.905,0,0,1-.237-3.772,21.3,21.3,0,0,0-2.748.35,4.517,4.517,0,0,0,.15,2.234,3.99,3.99,0,0,0,3.24,2.559Zm0,0" transform="translate(-186.85 -108.382)" fill="#5bbf02"/>
    <path id="Caminho_625" data-name="Caminho 625" d="M236.8,245.436a.72.72,0,0,1,.313-.97c1.252-.642,1.277-.6,1.415-.821a.721.721,0,0,1,1.218.772c-.411.648-.87.765-1.975,1.331a.721.721,0,0,1-.97-.312Zm0,0" transform="translate(-215.125 -221.113)" fill="#83d912"/>
    <path id="Caminho_626" data-name="Caminho 626" d="M236.634,283.447a.721.721,0,0,1,.189-1l.272-.186a.721.721,0,1,1,.814,1.19l-.272.186A.721.721,0,0,1,236.634,283.447Zm0,0" transform="translate(-214.932 -256.394)" fill="#83d912"/>
    <path id="Caminho_627" data-name="Caminho 627" d="M32.459,148.955c-1.41-1.41.474-2.562-.861-3.9a2.082,2.082,0,0,1-.591-1.438,21.129,21.129,0,0,0-11.6,18.563A22.42,22.42,0,0,0,29.2,174.143c-.121-2.546,1.119-4.92-.1-6.136-1.464-1.464-1.485-2.906-1.98-3.4s-1.679.732-2.411-.861.99-2.583.99-2.583c1.119-.3.969-1.786,2.54-3.358s3.7,0,5.08,0,1.55-1.464,0-3.014.549-4.424-.861-5.834Zm0,0" transform="translate(-17.636 -130.519)" fill="#5bbf02"/>
    <path id="Caminho_628" data-name="Caminho 628" d="M130.868,317.929l-.861-.367a.721.721,0,1,1,.565-1.326l.861.367a.721.721,0,1,1-.565,1.326Zm0,0" transform="translate(-117.748 -287.333)" fill="#83d912"/>
    <path id="Caminho_629" data-name="Caminho 629" d="M377.461,281.737a2.717,2.717,0,1,1-2.717-2.717A2.717,2.717,0,0,1,377.461,281.737Zm0,0" transform="translate(-338.087 -253.565)" fill="#f9b50b"/>
    <path id="Caminho_630" data-name="Caminho 630" d="M375.705,282.531a1.755,1.755,0,0,1-.423-3.457,2.715,2.715,0,1,0,2.125,2.125A1.754,1.754,0,0,1,375.705,282.531Zm0,0" transform="translate(-338.087 -253.564)" fill="#f79d0d"/>
    <path id="Caminho_631" data-name="Caminho 631" d="M80.188,235.944a2.717,2.717,0,1,1-2.717-2.717A2.717,2.717,0,0,1,80.188,235.944Zm0,0" transform="translate(-67.935 -211.949)" fill="#f97396"/>
    <path id="Caminho_632" data-name="Caminho 632" d="M78.373,236.856a1.814,1.814,0,0,1-.4-3.583,2.719,2.719,0,1,0,2.171,2.171A1.814,1.814,0,0,1,78.373,236.856Zm0,0" transform="translate(-67.934 -211.949)" fill="#f7577a"/>
    <path id="Caminho_633" data-name="Caminho 633" d="M163.743,215.21c-4.712-4.015-12.554-4.248-17.658-1.278a1.3,1.3,0,1,1-1.305-2.243c6.067-3.531,15.1-3.18,20.646,1.545a1.3,1.3,0,0,1-1.683,1.975Zm0,0" transform="translate(-130.985 -190.228)" fill="#d9f5ff"/>
    <path id="Caminho_634" data-name="Caminho 634" d="M9.536,0A9.518,9.518,0,0,0,2.074,15.428l5.844,7.381a2.063,2.063,0,0,0,3.235,0L17,15.428A9.518,9.518,0,0,0,9.536,0Zm0,0" transform="translate(0)" fill="#f7577a"/>
    <path id="Caminho_635" data-name="Caminho 635" d="M13.095,26.012a.558.558,0,0,0-.35-.551,1.09,1.09,0,0,1-.718-1.067.566.566,0,0,0-.4-.53,5.712,5.712,0,0,1-4.1-6.416.566.566,0,0,0-.319-.568,1.113,1.113,0,0,1-.575-1.105.569.569,0,0,0-.38-.546c-2.047-.744-1.243-2.957-1.227-3A9.538,9.538,0,0,0,2.078,26.539L7.922,33.92a2.063,2.063,0,0,0,3.235,0l4.321-5.457c-2.229-.123-2.428-1.669-2.384-2.451Zm0,0" transform="translate(-0.004 -11.111)" fill="#d93a59"/>
    <path id="Caminho_636" data-name="Caminho 636" d="M44.1,50.673a6.067,6.067,0,1,1,6.067-6.067A6.074,6.074,0,0,1,44.1,50.673Zm0-10.211a4.144,4.144,0,1,0,4.144,4.144A4.149,4.149,0,0,0,44.1,40.462Zm0,0" transform="translate(-34.561 -35.023)" fill="#d93a59"/>
    <path id="Caminho_637" data-name="Caminho 637" d="M47.3,57.4a1.09,1.09,0,0,1-.718-1.067.559.559,0,0,0-.1-.312,4.142,4.142,0,1,1-4.467-6.968.573.573,0,0,0-.249-.234,1.113,1.113,0,0,1-.575-1.105.552.552,0,0,0-.108-.341A6.064,6.064,0,1,0,47.561,57.61.548.548,0,0,0,47.3,57.4Zm0,0" transform="translate(-34.561 -43.049)" fill="#ba1c37"/>
    <path id="Caminho_638" data-name="Caminho 638" d="M152.1,210.9a1.362,1.362,0,0,1,.867-1.268,18.269,18.269,0,0,0-8.187,2.337,1.3,1.3,0,0,0,1.305,2.243,15.71,15.71,0,0,1,7.057-1.989A1.362,1.362,0,0,1,152.1,210.9Zm0,0" transform="translate(-130.986 -190.504)" fill="#abe4fe"/>
    <path id="Caminho_639" data-name="Caminho 639" d="M29.1,274.8c-1.464-1.464-1.485-2.906-1.98-3.4s-1.679.732-2.411-.861a1.712,1.712,0,0,1-.037-1.454,4.79,4.79,0,0,0-1.873-2.022c-2.308-1.561-1.961-4.83-1.769-5.926a21.047,21.047,0,0,0-1.625,7.842A22.418,22.418,0,0,0,29.2,280.94c-.121-2.546,1.119-4.92-.1-6.136Zm0,0" transform="translate(-17.636 -237.316)" fill="#58aa02"/>
  </g>
</svg>
