<svg xmlns="http://www.w3.org/2000/svg" width="39" height="34.607" viewBox="0 0 39 34.607">
  <g id="alert" transform="translate(0 -19.066)">
    <g id="Grupo_7" data-name="Grupo 7" transform="translate(0 19.066)">
      <g id="Grupo_6" data-name="Grupo 6" transform="translate(0 0)">
        <path id="Caminho_4" data-name="Caminho 4" d="M38.41,48.65l-16.036-27.6a3.544,3.544,0,0,0-2.9-1.982,3.427,3.427,0,0,0-2.9,1.982L.623,48.65a3.352,3.352,0,0,0-.23,3.5,3.475,3.475,0,0,0,3.18,1.521H35.461a3.58,3.58,0,0,0,3.18-1.521A3.569,3.569,0,0,0,38.41,48.65Zm-1.521,2.534a1.641,1.641,0,0,1-1.475.553H3.526a1.7,1.7,0,0,1-1.475-.553,1.578,1.578,0,0,1,.23-1.567l15.944-27.6C18.6,21.37,19.056,21,19.471,21s.876.369,1.244,1.014l15.944,27.6A1.578,1.578,0,0,1,36.889,51.185Z" transform="translate(0 -19.066)"/>
      </g>
    </g>
    <g id="Grupo_9" data-name="Grupo 9" transform="translate(18.503 28.144)">
      <g id="Grupo_8" data-name="Grupo 8">
        <path id="Caminho_5" data-name="Caminho 5" d="M161.581,97.866a.945.945,0,0,0-.968.968v12.811a.968.968,0,1,0,1.935,0V98.834A.945.945,0,0,0,161.581,97.866Z" transform="translate(-160.613 -97.866)"/>
      </g>
    </g>
    <g id="Grupo_11" data-name="Grupo 11" transform="translate(17.766 45.056)">
      <g id="Grupo_10" data-name="Grupo 10" transform="translate(0 0)">
        <circle id="Elipse_1" data-name="Elipse 1" cx="1.705" cy="1.705" r="1.705"/>
      </g>
    </g>
  </g>
</svg>
