<svg xmlns="http://www.w3.org/2000/svg" width="91" height="91" viewBox="0 0 91 91">
  <g id="Grupo_1934" data-name="Grupo 1934" transform="translate(13161 -6216)">
    <g id="Grupo_1933" data-name="Grupo 1933" transform="translate(-19297 3949)">
      <g id="Elipse_92" data-name="Elipse 92" transform="translate(6136 2267)" fill="#ea3546" stroke="#707070" stroke-width="1">
        <circle cx="45.5" cy="45.5" r="45.5" stroke="none"/>
        <circle cx="45.5" cy="45.5" r="45" fill="none"/>
      </g>
    </g>
    <path id="close" d="M42.027,50a4.961,4.961,0,0,1-3.51-1.45L25,35.032,11.486,48.547a4.973,4.973,0,0,1-7.026,0L1.453,45.54a4.972,4.972,0,0,1,0-7.026L14.968,25,1.453,11.485a4.972,4.972,0,0,1,0-7.026L4.459,1.453a4.972,4.972,0,0,1,7.024,0L25,14.967,38.514,1.453a4.972,4.972,0,0,1,7.026,0l3.006,3.006a4.973,4.973,0,0,1,0,7.026L35.032,25,48.547,38.514a4.973,4.973,0,0,1,0,7.026L45.54,48.547A4.961,4.961,0,0,1,42.027,50ZM25,29.9a2.114,2.114,0,0,1,1.5.623L41.517,45.54a.73.73,0,0,0,1.017,0l3.006-3.006a.731.731,0,0,0,0-1.02L30.524,26.5a2.125,2.125,0,0,1,0-3.006L45.54,8.48a.728.728,0,0,0,0-1.017l-3.006-3a.734.734,0,0,0-1.02,0L26.5,19.475a2.19,2.19,0,0,1-3.006,0L8.48,4.459a.73.73,0,0,0-1.017,0l-3,3.006a.731.731,0,0,0,0,1.02L19.475,23.5a2.126,2.126,0,0,1,0,3.006L4.459,41.52a.727.727,0,0,0,0,1.017l3.006,3.006a.734.734,0,0,0,1.02,0L23.5,30.527A2.107,2.107,0,0,1,25,29.9Zm0,0" transform="translate(-13141 6236)" fill="#fff"/>
  </g>
</svg>
