<svg id="icon-viagens-executivas" xmlns="http://www.w3.org/2000/svg" width="50.651" height="52.925" viewBox="0 0 50.651 52.925">
  <path id="Caminho_1223" data-name="Caminho 1223" d="M45.885,62.111a25.326,25.326,0,1,0-41.118,0Zm0,0" transform="translate(0 -19.722)" fill="#3c2b8e"/>
  <path id="Caminho_1224" data-name="Caminho 1224" d="M80.73,21.406a21.406,21.406,0,0,0-42.812,0V36.6a21.289,21.289,0,0,0,.772,5.689,25.329,25.329,0,0,0,41.269,0A21.289,21.289,0,0,0,80.73,36.6Zm0,0" transform="translate(-33.998)" fill="#d9f5ff"/>
  <path id="Caminho_1225" data-name="Caminho 1225" d="M37.918,21.56V36.751a21.289,21.289,0,0,0,.772,5.689A25.294,25.294,0,0,0,58.812,53.073l-.036-49.8a2.3,2.3,0,0,1-.283-3.1A21.453,21.453,0,0,0,37.918,21.56Zm0,0" transform="translate(-33.998 -0.154)" fill="#abe4fe"/>
  <path id="Caminho_1226" data-name="Caminho 1226" d="M86.279,324.4a25.207,25.207,0,0,0,13.258-3.745,18.233,18.233,0,0,0,5.04-12.583v-5.288c-1.59.113-1.689,1.14-3.465,1.14-1.88,0-1.88-1.151-3.759-1.151s-1.88,1.151-3.759,1.151-1.88-1.151-3.759-1.151-1.879,1.151-3.759,1.151-1.88-1.151-3.759-1.151-1.879,1.151-3.758,1.151-1.879-1.151-3.758-1.151-1.88,1.151-3.759,1.151c-1.612,0-1.842-.846-3.06-1.087v5.235a18.231,18.231,0,0,0,5.04,12.583A25.207,25.207,0,0,0,86.279,324.4Zm0,0" transform="translate(-60.954 -271.48)" fill="#2299f2"/>
  <path id="Caminho_1227" data-name="Caminho 1227" d="M75.384,309.281c0-1.063.008-3.637.015-6.458a3.693,3.693,0,0,0-.6-.046c-1.879,0-1.879,1.151-3.759,1.151-1.612,0-1.842-.846-3.06-1.087v5.235a18.233,18.233,0,0,0,5.04,12.583,25.174,25.174,0,0,0,8.093,3.217A21.322,21.322,0,0,1,75.384,309.281Zm0,0" transform="translate(-60.953 -271.479)" fill="#1588e8"/>
  <path id="Caminho_1228" data-name="Caminho 1228" d="M86.278,30.063a18.345,18.345,0,0,0-18.3,18.3v3.391c1.218.241,1.449,1.087,3.06,1.087,1.88,0,1.88-1.151,3.759-1.151s1.879,1.151,3.758,1.151,1.879-1.151,3.758-1.151,1.88,1.151,3.759,1.151,1.88-1.151,3.759-1.151,1.879,1.151,3.759,1.151,1.88-1.151,3.759-1.151,1.88,1.151,3.759,1.151c1.776,0,1.875-1.026,3.465-1.14V48.361a18.345,18.345,0,0,0-18.3-18.3Zm0,0" transform="translate(-60.953 -26.955)" fill="#f9b50b"/>
  <path id="Caminho_1229" data-name="Caminho 1229" d="M75.423,48.388a21.43,21.43,0,0,1,10.308-18.24,18.347,18.347,0,0,0-17.75,18.29v3.391c1.218.241,1.449,1.087,3.06,1.087,1.88,0,1.88-1.151,3.759-1.151a3.671,3.671,0,0,1,.615.048c0-1.6.007-2.859.008-3.424Zm0,0" transform="translate(-60.954 -27.032)" fill="#f79d0d"/>
  <path id="Caminho_1230" data-name="Caminho 1230" d="M93.449,58.342H105.6a1.832,1.832,0,1,0-.152-3.658.331.331,0,0,1-.334-.191,2.748,2.748,0,0,0-3.576-1.437.337.337,0,0,1-.438-.188,3.979,3.979,0,0,0-.736-1.156,18.5,18.5,0,0,0-6.92,6.63Zm0,0" transform="translate(-83.789 -46.366)" fill="#fcdb75"/>
  <path id="Caminho_1231" data-name="Caminho 1231" d="M100.467,58.352A21.54,21.54,0,0,1,104,53.233a2.747,2.747,0,0,0-2.447-.167.336.336,0,0,1-.437-.188,3.967,3.967,0,0,0-.735-1.155,18.483,18.483,0,0,0-6.92,6.629Zm0,0" transform="translate(-83.8 -46.377)" fill="#fbc840"/>
  <path id="Caminho_1232" data-name="Caminho 1232" d="M104.578,243.193v-7.256c-1.59.114-1.689,1.14-3.465,1.14-1.88,0-1.88-1.151-3.759-1.151s-1.88,1.151-3.759,1.151-1.88-1.151-3.759-1.151-1.879,1.151-3.759,1.151-1.879-1.151-3.759-1.151-1.879,1.151-3.758,1.151-1.879-1.151-3.758-1.151-1.879,1.151-3.759,1.151c-1.612,0-1.842-.846-3.06-1.087v7.256c1.218.241,1.448,1.087,3.06,1.087,1.88,0,1.88-1.151,3.759-1.151s1.879,1.151,3.758,1.151,1.879-1.151,3.758-1.151,1.88,1.151,3.759,1.151,1.88-1.151,3.759-1.151,1.88,1.151,3.759,1.151,1.88-1.151,3.759-1.151,1.88,1.151,3.759,1.151C102.888,244.333,102.988,243.306,104.578,243.193Zm0,0" transform="translate(-60.954 -211.539)" fill="#52b0f5"/>
  <path id="Caminho_1233" data-name="Caminho 1233" d="M75.415,235.974a3.722,3.722,0,0,0-.616-.048c-1.879,0-1.879,1.151-3.759,1.151-1.612,0-1.842-.846-3.06-1.087v7.256c1.218.241,1.448,1.087,3.06,1.087,1.88,0,1.88-1.151,3.759-1.151a3.686,3.686,0,0,1,.6.046C75.4,240.751,75.41,238.042,75.415,235.974Zm0,0" transform="translate(-60.953 -211.539)" fill="#2299f2"/>
  <path id="Caminho_1234" data-name="Caminho 1234" d="M105.805,376.337c-1.45.165-1.6,1.127-3.317,1.127-1.88,0-1.88-1.151-3.759-1.151s-1.88,1.151-3.759,1.151-1.88-1.151-3.759-1.151-1.88,1.151-3.759,1.151-1.879-1.151-3.759-1.151-1.879,1.151-3.758,1.151-1.879-1.151-3.758-1.151-1.879,1.151-3.759,1.151c-1.539,0-1.818-.772-2.9-1.051a18.2,18.2,0,0,0,3.309,8.286c1.483-.153,1.62-1.13,3.352-1.13,1.879,0,1.879,1.151,3.758,1.151s1.879-1.151,3.758-1.151,1.88,1.151,3.759,1.151,1.88-1.151,3.759-1.151,1.88,1.151,3.759,1.151,1.88-1.151,3.759-1.151,1.88,1.144,3.742,1.151A18.2,18.2,0,0,0,105.805,376.337Zm0,0" transform="translate(-62.33 -337.413)" fill="#52b0f5"/>
  <path id="Caminho_1235" data-name="Caminho 1235" d="M76.79,376.36a3.7,3.7,0,0,0-.613-.048c-1.879,0-1.879,1.151-3.759,1.151-1.539,0-1.819-.772-2.9-1.051a18.2,18.2,0,0,0,3.309,8.286c1.483-.153,1.62-1.13,3.352-1.13,1.45,0,1.782.685,2.721,1A21.23,21.23,0,0,1,76.79,376.36Zm0,0" transform="translate(-62.33 -337.413)" fill="#2299f2"/>
  <path id="Caminho_1236" data-name="Caminho 1236" d="M173.243,123.435a2.363,2.363,0,0,0-2.057-2.077,2.4,2.4,0,0,0-.622.006.4.4,0,0,1-.445-.4v-.005a5.1,5.1,0,0,0-9.823-1.947.434.434,0,0,1-.564.242,3.541,3.541,0,0,0-4.605,1.851.427.427,0,0,1-.43.247,2.329,2.329,0,0,0-.414,0,2.36,2.36,0,0,0,.219,4.709h16.4A2.36,2.36,0,0,0,173.243,123.435Zm0,0" transform="translate(-136.415 -103.876)" fill="#fcdb75"/>
  <path id="Caminho_1237" data-name="Caminho 1237" d="M159.756,125.81a2.3,2.3,0,0,1,.359-.206.427.427,0,0,0,.252-.427,3.54,3.54,0,0,1,3.088-3.886.434.434,0,0,0,.37-.489,5.109,5.109,0,0,1,2.182-4.853,5.107,5.107,0,0,0-5.71,3.06.434.434,0,0,1-.564.242,3.541,3.541,0,0,0-4.605,1.851.427.427,0,0,1-.43.247,2.33,2.33,0,0,0-.414,0,2.36,2.36,0,0,0,.219,4.709h4.957A2.311,2.311,0,0,1,159.756,125.81Zm0,0" transform="translate(-136.415 -103.876)" fill="#fbc840"/>
  <path id="Caminho_1238" data-name="Caminho 1238" d="M279.83,125.552a1.436,1.436,0,0,1,1.25-1.262,1.455,1.455,0,0,1,.378,0,.242.242,0,0,0,.271-.245v0a3.1,3.1,0,0,1,5.968-1.183.264.264,0,0,0,.343.147,2.15,2.15,0,0,1,2.8,1.125.259.259,0,0,0,.261.15,1.422,1.422,0,0,1,.252,0,1.433,1.433,0,0,1-.133,2.861h-9.961A1.434,1.434,0,0,1,279.83,125.552Zm0,0" transform="translate(-250.896 -108.444)" fill="#fcf1d4"/>
  <path id="Caminho_1239" data-name="Caminho 1239" d="M284.856,125.746a1.46,1.46,0,0,1,.324-.194.242.242,0,0,0,.1-.35l0,0a3.1,3.1,0,0,1,.7-4.037,3.1,3.1,0,0,0-4.251,2.88v0a.241.241,0,0,1-.271.244,1.474,1.474,0,0,0-.378,0,1.434,1.434,0,0,0,.175,2.857h3.083A1.437,1.437,0,0,1,284.856,125.746Zm0,0" transform="translate(-250.9 -108.44)" fill="#ffebb3"/>
  <path id="Caminho_1240" data-name="Caminho 1240" d="M174.669,296.115l-15.476-21.22h-6.56l3.3,23.733a25.4,25.4,0,0,0,18.732-2.513Zm0,0" transform="translate(-136.856 -246.479)" fill="#f7577a"/>
  <path id="Caminho_1241" data-name="Caminho 1241" d="M155.555,274.895h-2.922l3.3,23.733a25.343,25.343,0,0,0,5.563.767Zm0,0" transform="translate(-136.855 -246.479)" fill="#d93a59"/>
  <g id="Grupo_43" data-name="Grupo 43" transform="translate(15.704 33.226)">
    <path id="Caminho_1242" data-name="Caminho 1242" d="M166.872,393.711h-4.263a.863.863,0,1,1,0-1.727h4.263a.863.863,0,0,1,0,1.727Zm0,0" transform="translate(-160.731 -384.691)" fill="#ba1c37"/>
    <path id="Caminho_1243" data-name="Caminho 1243" d="M179.465,477.711H174.3a.863.863,0,0,1,0-1.726h5.161a.863.863,0,1,1,0,1.726Zm0,0" transform="translate(-171.217 -460.008)" fill="#ba1c37"/>
    <path id="Caminho_1244" data-name="Caminho 1244" d="M156.3,323.152h-3.509a.863.863,0,0,1,0-1.726H156.3a.863.863,0,0,1,0,1.726Zm0,0" transform="translate(-151.926 -321.426)" fill="#ba1c37"/>
  </g>
  <path id="Caminho_1245" data-name="Caminho 1245" d="M158.251,232.1a.824.824,0,0,0-.8-.629h-3.993a.824.824,0,0,0-.825.824v3.664h6.56Zm0,0" transform="translate(-136.855 -207.546)" fill="#d9f5ff"/>
  <path id="Caminho_1246" data-name="Caminho 1246" d="M156.356,231.473h-2.9a.824.824,0,0,0-.825.824v3.664h2.9V232.3A.824.824,0,0,1,156.356,231.473Zm0,0" transform="translate(-136.855 -207.546)" fill="#abe4fe"/>
</svg>
