<svg id="icon-estrela-completa" xmlns="http://www.w3.org/2000/svg" width="68.803" height="65.64" viewBox="0 0 68.803 65.64">
  <g id="Grupo_542" data-name="Grupo 542" transform="translate(0 0)">
    <path id="Caminho_3947" data-name="Caminho 3947" d="M32.5,12.509a2.115,2.115,0,0,1,3.792,0l8.247,16.709a5.324,5.324,0,0,0,4.009,2.912l18.44,2.681a2.115,2.115,0,0,1,1.172,3.607L54.823,51.424a5.325,5.325,0,0,0-1.531,4.712L56.44,74.5a2.114,2.114,0,0,1-3.068,2.229L36.878,68.058a5.324,5.324,0,0,0-4.955,0L15.431,76.727A2.115,2.115,0,0,1,12.364,74.5l3.15-18.361a5.325,5.325,0,0,0-1.531-4.713L.639,38.417A2.115,2.115,0,0,1,1.811,34.81L20.25,32.13a5.325,5.325,0,0,0,4.009-2.913Z" transform="translate(0 -11.33)" fill="#f9c80e"/>
  </g>
</svg>
