<svg xmlns="http://www.w3.org/2000/svg" width="91" height="91" viewBox="0 0 91 91">
  <g id="icon-cadeado" transform="translate(-136 -86)">
    <g id="Grupo_512" data-name="Grupo 512" transform="translate(-6000 -2181)">
      <g id="Elipse_92" data-name="Elipse 92" transform="translate(6136 2267)" fill="#2980b9" stroke="#707070" stroke-width="1">
        <circle cx="45.5" cy="45.5" r="45.5" stroke="none"/>
        <circle cx="45.5" cy="45.5" r="45" fill="none"/>
      </g>
    </g>
    <g id="password-chain" transform="translate(127.38 98)">
      <path id="Caminho_3941" data-name="Caminho 3941" d="M71.864,24.088H70.776V16.154a16.156,16.156,0,0,0-32.312,0v7.934H37.376a5.763,5.763,0,0,0-5.756,5.756v31.2A5.763,5.763,0,0,0,37.376,66.8H71.864a5.763,5.763,0,0,0,5.756-5.756v-31.2A5.762,5.762,0,0,0,71.864,24.088ZM43.4,16.154a11.222,11.222,0,0,1,22.444,0v7.934H43.4Zm29.288,44.89a.833.833,0,0,1-.822.822H37.376a.833.833,0,0,1-.822-.822v-31.2a.833.833,0,0,1,.822-.822H71.864a.833.833,0,0,1,.822.822Z" transform="translate(0)" fill="#fff"/>
      <path id="Caminho_3942" data-name="Caminho 3942" d="M96.514,116.309a2.467,2.467,0,0,0-2.467,2.467v9.445a2.467,2.467,0,1,0,4.934,0v-9.445A2.467,2.467,0,0,0,96.514,116.309Z" transform="translate(-41.894 -78.054)" fill="#fff"/>
    </g>
  </g>
</svg>
