<svg xmlns="http://www.w3.org/2000/svg" width="34.863" height="15.255" viewBox="0 0 34.863 15.255">
  <g id="icon-bagagens" transform="translate(-246 -2728)">
    <g id="luggage" transform="translate(246 2727.999)">
      <path id="Caminho_5410" data-name="Caminho 5410" d="M6.865,4.577H5.085V1.526h.254a.254.254,0,0,0,.254-.254V.255A.254.254,0,0,0,5.339,0H2.288a.254.254,0,0,0-.254.254V1.272a.254.254,0,0,0,.254.254h.254V4.577H.763A.763.763,0,0,0,0,5.34v8.136a.763.763,0,0,0,.763.763V15a.254.254,0,0,0,.254.254H2.034A.254.254,0,0,0,2.288,15v-.763H5.339V15a.254.254,0,0,0,.254.254H6.61A.254.254,0,0,0,6.865,15v-.763a.763.763,0,0,0,.763-.763V5.34a.763.763,0,0,0-.763-.763ZM2.542.509H5.085v.508H2.542Zm.508,1.017H4.576V4.577H3.051ZM1.78,14.747H1.271v-.508H1.78Zm4.576,0H5.848v-.508h.508Zm.763-1.271a.254.254,0,0,1-.254.254H.763a.254.254,0,0,1-.254-.254V5.34a.254.254,0,0,1,.254-.254h6.1a.254.254,0,0,1,.254.254Zm0,0"/>
      <path id="Caminho_5411" data-name="Caminho 5411" d="M119.465,204.8h.509v6.611h-.509Zm0,0" transform="translate(-115.906 -198.698)"/>
      <path id="Caminho_5412" data-name="Caminho 5412" d="M59.734,204.8h.508v6.611h-.508Zm0,0" transform="translate(-57.955 -198.698)"/>
      <path id="Caminho_5413" data-name="Caminho 5413" d="M179.2,204.8h.508v6.611H179.2Zm0,0" transform="translate(-173.86 -198.698)"/>
    </g>
    <g id="Grupo_1848" data-name="Grupo 1848" transform="translate(-75 -32)">
      <path id="Caminho_5414" data-name="Caminho 5414" d="M286.316,309.319H284.2v-.53a1.59,1.59,0,0,0-1.59-1.59h-4.24a1.59,1.59,0,0,0-1.59,1.59v.53h-2.12a1.59,1.59,0,0,0-1.59,1.59v7.42a1.59,1.59,0,0,0,1.59,1.59h11.66a1.59,1.59,0,0,0,1.59-1.59v-7.42a1.59,1.59,0,0,0-1.59-1.59Zm-8.48-.53a.53.53,0,0,1,.53-.53h4.24a.53.53,0,0,1,.53.53v.53h-5.3Zm9.01,9.54a.53.53,0,0,1-.53.53h-11.66a.53.53,0,0,1-.53-.53v-7.42a.53.53,0,0,1,.53-.53h11.66a.53.53,0,0,1,.53.53Zm0,0" transform="translate(67.957 2453.701)"/>
      <path id="Caminho_5416" data-name="Caminho 5416" d="M332.8,392.535h1.06v4.24H332.8Zm0,0" transform="translate(11.932 2373.666)"/>
      <path id="Caminho_5415" data-name="Caminho 5415" d="M384,392.535h1.06v4.24H384Zm0,0" transform="translate(-36.087 2373.666)"/>
      <path id="Caminho_5417" data-name="Caminho 5417" d="M435.2,392.535h1.06v4.24H435.2Zm0,0" transform="translate(-84.106 2373.666)"/>
    </g>
  </g>
</svg>
