<svg xmlns="http://www.w3.org/2000/svg" width="56.482" height="54.055" viewBox="0 0 56.482 54.055">
  <g id="icon-aviao-colorido" transform="translate(0 -0.5)">
    <path id="Caminho_1039" data-name="Caminho 1039" d="M27.028.5A26.938,26.938,0,0,0,8.086,8.25l-4.2,5.305A27.09,27.09,0,0,0,1.071,35.078L8.041,46.76a26.94,26.94,0,0,0,18.986,7.794c.2,0,.393,0,.589-.007l6.765-1.005A27.031,27.031,0,0,0,27.028.5Zm0,0" fill="#2299f2"/>
    <g id="Grupo_38" data-name="Grupo 38" transform="translate(15.447 7.086)">
      <path id="Caminho_1040" data-name="Caminho 1040" d="M140.147,62.03a.921.921,0,0,1,.337-1.257l.775-.448a.92.92,0,0,1,.92,1.594l-.775.448A.921.921,0,0,1,140.147,62.03Zm0,0" transform="translate(-140.024 -60.202)" fill="#82c6f9"/>
      <path id="Caminho_1041" data-name="Caminho 1041" d="M223.746,111.292a.92.92,0,0,1,.337-1.257l.775-.448a.92.92,0,1,1,.92,1.594l-.775.448A.92.92,0,0,1,223.746,111.292Zm0,0" transform="translate(-214.4 -104.03)" fill="#82c6f9"/>
      <path id="Caminho_1042" data-name="Caminho 1042" d="M337.7,404.2a.92.92,0,0,1,.337-1.257l.775-.448a.92.92,0,1,1,.92,1.594l-.775.448A.92.92,0,0,1,337.7,404.2Zm0,0" transform="translate(-315.782 -364.624)" fill="#82c6f9"/>
      <path id="Caminho_1043" data-name="Caminho 1043" d="M336.836,307.168a.92.92,0,0,1,.337-1.257l.775-.448a.921.921,0,0,1,.92,1.594l-.775.448A.92.92,0,0,1,336.836,307.168Zm0,0" transform="translate(-315.014 -278.297)" fill="#82c6f9"/>
    </g>
    <path id="Caminho_1044" data-name="Caminho 1044" d="M92.044,62.428a7.83,7.83,0,0,0,2-2.1.81.81,0,0,0,.012-.833l-1.606-2.782a.81.81,0,0,0-.727-.406,8.38,8.38,0,0,0-3.794,1.181,9.321,9.321,0,0,0-1.923,1.463Zm0,0" transform="translate(-76.519 -49.656)" fill="#d9f5ff"/>
    <path id="Caminho_1045" data-name="Caminho 1045" d="M93.623,58.744l-1.171-2.028a.81.81,0,0,0-.727-.406,8.385,8.385,0,0,0-3.794,1.181,9.338,9.338,0,0,0-1.923,1.464l2.383,1.37C92.092,57.308,93.623,58.743,93.623,58.744Zm0,0" transform="translate(-76.52 -49.652)" fill="#abe4fe"/>
    <path id="Caminho_1046" data-name="Caminho 1046" d="M176,105.57a8.385,8.385,0,0,0-3.794,1.181,9.4,9.4,0,0,0-1.84,1.381l6.051,3.48a7.744,7.744,0,0,0,1.9-2.021.809.809,0,0,0,.012-.833l-1.606-2.782a.81.81,0,0,0-.727-.406Zm0,0" transform="translate(-151.573 -93.479)" fill="#d9f5ff"/>
    <path id="Caminho_1047" data-name="Caminho 1047" d="M177.9,108.009l-1.171-2.028a.809.809,0,0,0-.727-.406,8.38,8.38,0,0,0-3.794,1.181,9.385,9.385,0,0,0-1.84,1.381l2.684,1.544c3.309-2.987,4.847-1.671,4.847-1.671Zm0,0" transform="translate(-151.573 -93.483)" fill="#abe4fe"/>
    <path id="Caminho_1048" data-name="Caminho 1048" d="M309.766,399.166a7.808,7.808,0,0,1,2.816-.686.809.809,0,0,1,.727.406l1.606,2.782a.81.81,0,0,1-.012.833,8.379,8.379,0,0,1-2.919,2.7,9.357,9.357,0,0,1-2.23.934Zm0,0" transform="translate(-275.583 -354.077)" fill="#d9f5ff"/>
    <path id="Caminho_1049" data-name="Caminho 1049" d="M309.813,402.332c3.943-2.471,4.719-1.418,4.719-1.417l-1.171-2.028a.81.81,0,0,0-.727-.406,7.817,7.817,0,0,0-2.816.686Zm0,0" transform="translate(-275.636 -354.077)" fill="#abe4fe"/>
    <path id="Caminho_1050" data-name="Caminho 1050" d="M314.957,305.47a8.384,8.384,0,0,1-2.919,2.695,9.4,9.4,0,0,1-2.115.9l.012-6.98a7.746,7.746,0,0,1,2.7-.638.81.81,0,0,1,.727.406l1.606,2.781A.81.81,0,0,1,314.957,305.47Zm0,0" transform="translate(-275.733 -267.75)" fill="#d9f5ff"/>
    <path id="Caminho_1051" data-name="Caminho 1051" d="M314.586,303.884l-1.171-2.028a.809.809,0,0,0-.727-.406,7.746,7.746,0,0,0-2.7.638l-.006,3.084C313.382,302.76,314.586,303.884,314.586,303.884Zm0,0" transform="translate(-275.784 -267.75)" fill="#abe4fe"/>
    <path id="Caminho_1052" data-name="Caminho 1052" d="M48.563,383.392a27.192,27.192,0,0,0,2.684,3.078l.817-4.139c-.465.154-.932.3-1.4.442Zm0,0" transform="translate(-43.205 -339.71)" fill="#d93a59"/>
    <path id="Caminho_1053" data-name="Caminho 1053" d="M10.938,317.332l1.491-1.42q.4-.384.817-.758L9.7,313.946a26.88,26.88,0,0,0,1.235,3.386Zm0,0" transform="translate(-8.633 -278.868)" fill="#ba1c37"/>
    <path id="Caminho_1054" data-name="Caminho 1054" d="M48.448,90.312l11.862-7.557-20.869-12a27.159,27.159,0,0,0-4.2,5.305Zm0,0" transform="translate(-31.354 -62.504)" fill="#f7577a"/>
    <path id="Caminho_1055" data-name="Caminho 1055" d="M56.085,105.122l.115.311-4.1,2.173a5.114,5.114,0,0,1-5.745-.655l-9.6-8.327q-.807,1.076-1.509,2.23l13.206,14.253,11.862-7.557Zm0,0" transform="translate(-31.354 -87.301)" fill="#d93a59"/>
    <path id="Caminho_1056" data-name="Caminho 1056" d="M35.242,100.845,48.448,115.1l4.216-2.686-15.915-13.8q-.807,1.076-1.507,2.232Zm0,0" transform="translate(-31.354 -87.29)" fill="#ba1c37"/>
    <path id="Caminho_1057" data-name="Caminho 1057" d="M204.611,290.2a27.018,27.018,0,0,0,6.765-1.005l.041-23.823-12.475,6.494Zm0,0" transform="translate(-176.995 -235.652)" fill="#f7577a"/>
    <path id="Caminho_1058" data-name="Caminho 1058" d="M204.88,277.349a4.525,4.525,0,0,1,2.352-4.871l4.177-2.177.009-4.93-12.475,6.494,5.67,18.334q1.374-.029,2.712-.194Zm0,0" transform="translate(-176.995 -235.652)" fill="#d93a59"/>
    <path id="Caminho_1059" data-name="Caminho 1059" d="M207.323,323.762l-3.949-20.449-4.433,2.308,5.67,18.334Q205.985,323.926,207.323,323.762Zm0,0" transform="translate(-176.995 -269.408)" fill="#ba1c37"/>
    <path id="Caminho_1060" data-name="Caminho 1060" d="M149.645,79.922l-1.707-.115a16.873,16.873,0,0,0-10.206,2.6l-29.837,19.011.032.024a9.629,9.629,0,0,1,4.78,8.222l31.342-16.314a16.872,16.872,0,0,0,7.359-7.537l.753-1.536a3.031,3.031,0,0,0-2.517-4.358Zm0,0" transform="translate(-95.992 -70.524)" fill="#d9f5ff"/>
    <path id="Caminho_1061" data-name="Caminho 1061" d="M149.645,79.922l-1.707-.115a16.873,16.873,0,0,0-10.206,2.6l-29.837,19.011.032.024a9.629,9.629,0,0,1,4.78,8.222l31.342-16.314a16.872,16.872,0,0,0,7.359-7.537l.753-1.536a3.031,3.031,0,0,0-2.517-4.358Zm0,0" transform="translate(-95.992 -70.524)" fill="#d9f5ff"/>
    <path id="Caminho_1062" data-name="Caminho 1062" d="M149.645,79.922l-1.708-.115a16.873,16.873,0,0,0-10.205,2.6l-29.837,19.011.032.024h0a9.59,9.59,0,0,1,3.49,3.505c.011.019.021.038.032.057l33.4-19.368a2.22,2.22,0,0,0,.759-.736,1.737,1.737,0,0,1,1.529-.931,2.3,2.3,0,0,0,1.578-.649,3.509,3.509,0,0,1,3.743-.717,3.032,3.032,0,0,0-2.81-2.684Zm0,0" transform="translate(-95.992 -70.524)" fill="#abe4fe"/>
    <path id="Caminho_1063" data-name="Caminho 1063" d="M30.654,275.156l-1.513.964a44.319,44.319,0,0,0-6.747,5.281l-1.491,1.42a27,27,0,0,0,3.051,5.218l2.1-.618A42.646,42.646,0,0,0,33.7,284.34l1.737-.9a9.631,9.631,0,0,0-4.781-8.28Zm0,0" transform="translate(-18.597 -244.357)" fill="#f7577a"/>
    <path id="Caminho_1064" data-name="Caminho 1064" d="M30.654,275.156l-1.513.964a44.319,44.319,0,0,0-6.747,5.281l-1.491,1.42a27,27,0,0,0,3.051,5.218l2.1-.618A42.646,42.646,0,0,0,33.7,284.34l1.737-.9a9.631,9.631,0,0,0-4.781-8.28Zm0,0" transform="translate(-18.597 -244.357)" fill="#f7577a"/>
    <path id="Caminho_1065" data-name="Caminho 1065" d="M34.144,278.662a9.6,9.6,0,0,0-3.49-3.505l-1.513.964a44.319,44.319,0,0,0-6.747,5.281l-1.491,1.42a27.093,27.093,0,0,0,1.447,2.808L34.2,278.758l-.053-.1Zm0,0" transform="translate(-18.596 -244.358)" fill="#d93a59"/>
    <path id="Caminho_1066" data-name="Caminho 1066" d="M431.185,99.742l-.636-.043-.025,0a.72.72,0,0,0-.515,1.261,8.169,8.169,0,0,1,2.65,4.589.72.72,0,0,0,1.35.184l.011-.023.281-.571A3.752,3.752,0,0,0,431.185,99.742Zm0,0" transform="translate(-382.351 -88.253)" fill="#554cbf"/>
    <path id="Caminho_1067" data-name="Caminho 1067" d="M434.17,101.593a3.724,3.724,0,0,0-2.986-1.85l-.636-.043-.025,0a.72.72,0,0,0-.515,1.261,8.158,8.158,0,0,1,1.678,2.026,2.278,2.278,0,0,0,.275-.352,1.738,1.738,0,0,1,1.529-.931,2.062,2.062,0,0,0,.679-.109Zm0,0" transform="translate(-382.351 -88.253)" fill="#3c2b8e"/>
    <path id="Caminho_1068" data-name="Caminho 1068" d="M31.047,328.691l-4.844,2.8a27.037,27.037,0,0,0,1.672,2.86L32.7,331.56a1.656,1.656,0,0,0-1.656-2.869Zm0,0" transform="translate(-23.312 -291.789)" fill="#d9f5ff"/>
  </g>
</svg>
