<svg id="icon-wifi" xmlns="http://www.w3.org/2000/svg" width="21" height="21" viewBox="0 0 21 21">
  <path id="Caminho_5355" data-name="Caminho 5355" d="M2.461,395.963a2.5,2.5,0,0,0,2.5-2.461,2.534,2.534,0,0,0-2.5-2.5A2.5,2.5,0,0,0,0,393.5,2.463,2.463,0,0,0,2.461,395.963Zm0,0" transform="translate(0 -374.963)" fill="#2980b9"/>
  <path id="Caminho_5356" data-name="Caminho 5356" d="M.615,242.461h1.23a6.908,6.908,0,0,1,6.85,6.85v1.23a.615.615,0,0,0,.615.615h1.23a.615.615,0,0,0,.615-.615v-1.23A9.369,9.369,0,0,0,1.846,240H.615a.615.615,0,0,0-.615.615v1.23A.615.615,0,0,0,.615,242.461Zm0,0" transform="translate(0 -230.156)" fill="#2980b9"/>
  <path id="Caminho_5357" data-name="Caminho 5357" d="M.615,122.461h1.23a11.83,11.83,0,0,1,11.771,11.771v1.23a.615.615,0,0,0,.615.615h1.23a.615.615,0,0,0,.615-.615v-1.23A14.291,14.291,0,0,0,1.846,120H.615a.615.615,0,0,0-.615.615v1.23A.615.615,0,0,0,.615,122.461Zm0,0" transform="translate(0 -115.078)" fill="#2980b9"/>
  <path id="Caminho_5358" data-name="Caminho 5358" d="M1.846,0H.615A.615.615,0,0,0,0,.615v1.23a.615.615,0,0,0,.615.615h1.23A16.752,16.752,0,0,1,18.539,19.154v1.23a.615.615,0,0,0,.615.615h1.23A.615.615,0,0,0,21,20.385v-1.23A19.213,19.213,0,0,0,1.846,0Zm0,0" fill="#2980b9"/>
</svg>
