<svg xmlns="http://www.w3.org/2000/svg" width="24" height="24" viewBox="0 0 24 24">
  <g id="icon-arroba" transform="translate(2 1)">
    <g id="Outlined" transform="translate(-102 -1217)">
      <g id="Communication" transform="translate(100 1162)">
        <g id="Outlined-_-Communication-_-alternate_email" data-name="Outlined-/-Communication-/-alternate_email" transform="translate(0 54)">
          <g id="Group_513" data-name="Group 513">
            <path id="Path" d="M0,0H24V24H0Z" fill="none" fill-rule="evenodd"/>
            <path id="_-Icon-Color" data-name="🔹-Icon-Color" d="M12,1.95a10,10,0,0,0,0,20h5v-2H12a8.1,8.1,0,0,1-8-8,8.1,8.1,0,0,1,8-8,8.1,8.1,0,0,1,8,8v1.43a1.616,1.616,0,0,1-1.5,1.57A1.616,1.616,0,0,1,17,13.38V11.95a5,5,0,1,0-1.46,3.53,3.7,3.7,0,0,0,2.96,1.47A3.513,3.513,0,0,0,22,13.38V11.95A10,10,0,0,0,12,1.95Zm0,13a3,3,0,1,1,3-3A3,3,0,0,1,12,14.95Z" fill="#9f9f9f" fill-rule="evenodd"/>
          </g>
        </g>
      </g>
    </g>
  </g>
</svg>
