<svg xmlns="http://www.w3.org/2000/svg" width="225.666" height="324.088" viewBox="0 0 225.666 324.088">
  <g id="icon-poltronas" transform="translate(0)">
    <path id="Caminho_5326" data-name="Caminho 5326" d="M204.6,448.61l-5.179-31.08-19.38,3.235,7.916,47.487H307.577V448.61Z" transform="translate(-111.374 -144.163)" fill="#38336b"/>
    <path id="Caminho_5327" data-name="Caminho 5327" d="M194.837,255h98.209v19.641H194.837Z" transform="translate(-116.484 -88.045)" fill="#6b61b1"/>
    <path id="Caminho_5328" data-name="Caminho 5328" d="M318.578,379.47v11.006a25.38,25.38,0,0,1-25.351,25.351H133.73l-7.163-36.357Z" transform="translate(-92.912 -131.022)" fill="#19968c"/>
    <path id="Caminho_5329" data-name="Caminho 5329" d="M300.829,274.344H108.819L75.657,106.008A25.989,25.989,0,0,1,101.152,75h1.414a40.707,40.707,0,0,1,39.866,31.767l28.729,125.366h87.458A42.257,42.257,0,0,1,300.829,274.344Z" transform="translate(-75.163 -25.896)" fill="#53cb8a"/>
    <path id="Caminho_5330" data-name="Caminho 5330" d="M351.531,105v24.552a44.193,44.193,0,0,1-44.194,44.194V105Z" transform="translate(-155.327 -36.254)" fill="#7d81e7"/>
    <path id="Caminho_5331" data-name="Caminho 5331" d="M284.031,105v68.746a44.193,44.193,0,0,1-44.194-44.194V105Z" transform="translate(-132.021 -36.254)" fill="#8bb9ff"/>
    <path id="Caminho_5332" data-name="Caminho 5332" d="M351.531,44.194V68.746H317.158l-9.821-7.938V0A44.193,44.193,0,0,1,351.531,44.194Z" transform="translate(-155.327)" fill="#e2dff4"/>
    <path id="Caminho_5333" data-name="Caminho 5333" d="M284.031,0V62.908l-9.821,5.838H239.837V44.194A44.193,44.193,0,0,1,284.031,0Z" transform="translate(-132.021)" fill="#f4f4f6"/>
    <path id="Caminho_5334" data-name="Caminho 5334" d="M307.337,65h9.821V91.189h-9.821Z" transform="translate(-155.327 -22.443)" fill="#38336b"/>
    <path id="Caminho_5335" data-name="Caminho 5335" d="M292.337,65h9.821V91.189h-9.821Z" transform="translate(-150.148 -22.443)" fill="#6b61b1"/>
  </g>
</svg>
