<svg xmlns="http://www.w3.org/2000/svg" width="44" height="45" viewBox="0 0 44 45">
  <g id="icon-foto" transform="translate(-158 -387)">
    <g id="Elipse_92" data-name="Elipse 92" transform="translate(158 387)" fill="#2980b9" stroke="#707070" stroke-width="1">
      <ellipse cx="22" cy="22.5" rx="22" ry="22.5" stroke="none"/>
      <ellipse cx="22" cy="22.5" rx="21.5" ry="22" fill="none"/>
    </g>
    <g id="photo-camera-with-flash" transform="translate(164 373.524)">
      <path id="Caminho_5400" data-name="Caminho 5400" d="M28.924,27.5H25.013L23.1,23.488a1.858,1.858,0,0,0-1.6-1.012H10.018a1.857,1.857,0,0,0-1.6,1.012L6.5,27.5H2.591A2.594,2.594,0,0,0,0,30.094V43.472a2.594,2.594,0,0,0,2.591,2.591h8.56a.862.862,0,0,0,.337-.068,9.072,9.072,0,0,0,13.148,0,.862.862,0,0,0,.337.068h3.951a2.594,2.594,0,0,0,2.591-2.591V30.094A2.594,2.594,0,0,0,28.924,27.5ZM9.966,24.248a.23.23,0,0,1,.072-.045H21.477a.227.227,0,0,1,.072.045L23.1,27.5H8.415Zm8.1,22.839a7.367,7.367,0,1,1,7.367-7.367A7.376,7.376,0,0,1,18.062,47.088Zm11.726-3.616a.865.865,0,0,1-.864.864H25.893a9.094,9.094,0,1,0-15.663,0H2.591a.865.865,0,0,1-.864-.864V30.094a.865.865,0,0,1,.864-.864H28.924a.865.865,0,0,1,.864.864Z" fill="#fff"/>
      <path id="Caminho_5401" data-name="Caminho 5401" d="M118.573,128.968a4.983,4.983,0,1,0,4.983,4.983A4.989,4.989,0,0,0,118.573,128.968Zm0,8.24a3.256,3.256,0,1,1,3.256-3.256A3.26,3.26,0,0,1,118.573,137.208Z" transform="translate(-100.512 -94.231)" fill="#fff"/>
      <path id="Caminho_5402" data-name="Caminho 5402" d="M33.243,91.487H29.769a1.153,1.153,0,0,0-1.151,1.151v1.625a1.153,1.153,0,0,0,1.151,1.151h3.473a1.153,1.153,0,0,0,1.151-1.151V92.638A1.153,1.153,0,0,0,33.243,91.487Zm0,2.776H29.769V92.638h3.473Zm0,.576v-.576h0Z" transform="translate(-25.323 -61.065)" fill="#fff"/>
    </g>
  </g>
</svg>
