<svg xmlns="http://www.w3.org/2000/svg" width="44" height="45" viewBox="0 0 44 45">
  <g id="icon-senha" transform="translate(-158 -278)">
    <g id="Elipse_92" data-name="Elipse 92" transform="translate(158 278)" fill="#2980b9" stroke="#707070" stroke-width="1">
      <ellipse cx="22" cy="22.5" rx="22" ry="22.5" stroke="none"/>
      <ellipse cx="22" cy="22.5" rx="21.5" ry="22" fill="none"/>
    </g>
    <path id="Caminho_3941" data-name="Caminho 3941" d="M48.188,9.916H47.74V6.65a6.651,6.651,0,0,0-13.3,0V9.916H33.99a2.372,2.372,0,0,0-2.37,2.37V25.13a2.372,2.372,0,0,0,2.37,2.37h14.2a2.372,2.372,0,0,0,2.37-2.37V12.286A2.372,2.372,0,0,0,48.188,9.916ZM36.469,6.65a4.62,4.62,0,0,1,9.24,0V9.916h-9.24Zm12.057,18.48a.343.343,0,0,1-.339.339H33.99a.343.343,0,0,1-.339-.339V12.286a.343.343,0,0,1,.339-.339h14.2a.343.343,0,0,1,.339.339Z" transform="translate(139.38 286)" fill="#fff"/>
  </g>
</svg>
