<svg id="icon-aeromoca" xmlns="http://www.w3.org/2000/svg" width="187.273" height="244.895" viewBox="0 0 187.273 244.895">
  <path id="Caminho_5336" data-name="Caminho 5336" d="M348.9,358.191V389.4H278.4l-22.9-6.194V375h7.2V360.592h-7.2l11.668-73.757L264.575,278l54.165,26.746.288.192A62.677,62.677,0,0,1,348.9,358.191Z" transform="translate(-161.624 -144.508)" fill="#38336b"/>
  <path id="Caminho_5337" data-name="Caminho 5337" d="M161.079,363.451v14.406h-7.2v8.211l-24.057,6.194H60V361.05A63.4,63.4,0,0,1,66.579,333.1,62.591,62.591,0,0,1,95.87,304.532l24.009-11.284.576-.144,33.469-9.6v79.951Z" transform="translate(-60 -147.367)" fill="#6b61b1"/>
  <path id="Caminho_5338" data-name="Caminho 5338" d="M140,440h37.022v14.406H140Z" transform="translate(-101.585 -228.718)" fill="#fff26c"/>
  <path id="Caminho_5339" data-name="Caminho 5339" d="M276.24,291.829l-6.963,47.778-7.3,49.8H239.122L223.9,362.993l15.222-82.4L248.149,278Z" transform="translate(-145.198 -144.508)" fill="#e2dff4"/>
  <path id="Caminho_5340" data-name="Caminho 5340" d="M218.745,283.4V392.21H194.64l-7.875-58.919,3.793-22.377L184.7,293.148l.576-.144Z" transform="translate(-124.821 -147.315)" fill="#f4f4f6"/>
  <path id="Caminho_5341" data-name="Caminho 5341" d="M255.6,450h7.2v14.406h-7.2Z" transform="translate(-161.676 -233.916)" fill="#38336b"/>
  <path id="Caminho_5342" data-name="Caminho 5342" d="M240.6,450h7.2v14.406h-7.2Z" transform="translate(-153.878 -233.916)" fill="#6b61b1"/>
  <path id="Caminho_5343" data-name="Caminho 5343" d="M292.718,291.882,287.1,330.3l-6.243-.288C275.048,332.169,264,342.637,264,342.637a61.247,61.247,0,0,1-8.4,0V280.693l9.075-2.593Z" transform="translate(-161.676 -144.56)" fill="#ffd944"/>
  <path id="Caminho_5344" data-name="Caminho 5344" d="M215.47,283.4v61.944a59.674,59.674,0,0,1-28.235-9.411l-3.7-2.641L178.4,294.636l3.121-1.441.576-.144Z" transform="translate(-121.546 -147.315)" fill="#fff26c"/>
  <path id="Caminho_5345" data-name="Caminho 5345" d="M327.34,113.213v1.008a46.989,46.989,0,0,1-9.219,28.091L297.568,170.4,255.6,173.093V57.8h1.825a83.468,83.468,0,0,1,52.1,18.3A47.257,47.257,0,0,1,327.34,113.213Z" transform="translate(-161.676 -30.045)" fill="#ff435b"/>
  <path id="Caminho_5346" data-name="Caminho 5346" d="M177.316,57.8V173.141l-39.856,2.593-23.769-33.661a47.587,47.587,0,0,1,7.683-63.337A85.86,85.86,0,0,1,177.316,57.8Z" transform="translate(-83.392 -30.045)" fill="#ff7b4a"/>
  <path id="Caminho_5347" data-name="Caminho 5347" d="M302.606,48.787l-24.153,4.85a107.6,107.6,0,0,1-21.417,2.113H255.5V0h34.093Z" transform="translate(-161.624)" fill="#38336b"/>
  <path id="Caminho_5348" data-name="Caminho 5348" d="M206.634,0V55.7A110.884,110.884,0,0,1,188,53.829l-26.6-4.994L174.413,0Z" transform="translate(-112.709)" fill="#6b61b1"/>
  <path id="Caminho_5349" data-name="Caminho 5349" d="M287.622,177.557v24.009a45.661,45.661,0,0,1-45.33,45.618L230,197.82,242.293,145h12.773A32.584,32.584,0,0,1,287.622,177.557Z" transform="translate(-148.368 -75.373)" fill="#f1d0a4"/>
  <path id="Caminho_5350" data-name="Caminho 5350" d="M205.906,145V247.184h-.288A45.659,45.659,0,0,1,160,201.566V170.354h20.264A18.167,18.167,0,0,0,198.415,152.2V145Z" transform="translate(-111.981 -75.373)" fill="#ffe3c1"/>
  <path id="Caminho_5351" data-name="Caminho 5351" d="M310.026,280.326a41.325,41.325,0,0,0-34.285,36.35L273.1,341.549l25.162-3.409A41.193,41.193,0,0,0,333.844,300.4l1.825-24.3Z" transform="translate(-170.772 -143.521)" fill="#ffb555"/>
</svg>
