<svg id="icon-estrela-dividida" xmlns="http://www.w3.org/2000/svg" width="13.48" height="12.857" viewBox="0 0 13.48 12.857">
  <path id="Caminho_3946" data-name="Caminho 3946" d="M13.465,15.866q-.073-.223-.437-.28L8.961,15,7.138,11.309q-.17-.332-.4-.332t-.4.332L4.521,15l-4.067.591q-.365.057-.437.28t.186.482l2.949,2.868-.7,4.051a.629.629,0,0,0,.049.417.3.3,0,0,0,.275.15.722.722,0,0,0,.324-.1l3.638-1.912,3.638,1.912a.724.724,0,0,0,.324.1.3.3,0,0,0,.276-.15.63.63,0,0,0,.048-.417l-.7-4.051,2.941-2.868Q13.538,16.089,13.465,15.866Zm-3.856,2.6-.4.381.1.535L9.8,22.263,7.219,20.9l-.478-.251v-7.8l1.288,2.609.243.486.535.081,2.884.421Z" transform="translate(-0.001 -10.977)" fill="#f9c80e"/>
</svg>
