<svg xmlns="http://www.w3.org/2000/svg" width="52" height="53.677" viewBox="0 0 52 53.677">
  <g id="icon-mundo" transform="translate(0)">
    <path id="Caminho_617" data-name="Caminho 617" d="M55.924,56.2a25.685,25.685,0,1,0-48.482-.012Zm0,0" transform="translate(-5.371 -19.694)" fill="#3c2b8e"/>
    <path id="Caminho_618" data-name="Caminho 618" d="M43.7,160.02A25.7,25.7,0,0,0,67.97,142.747a24.279,24.279,0,0,0-48.553-.012A25.7,25.7,0,0,0,43.7,160.02Zm0,0" transform="translate(-17.381 -106.342)" fill="#2299f2"/>
    <path id="Caminho_619" data-name="Caminho 619" d="M48.81,149.69c1.24-4.823-1.729-4.333-5.262-8.744s-.7-9.232-.7-9.232l-.2-2.978a3.067,3.067,0,0,1-.007-2.3,2.95,2.95,0,0,0-.187-2.84,4.484,4.484,0,0,1-.272-4.334,24.28,24.28,0,0,0-22.759,23.889A25.72,25.72,0,0,0,49.842,159.7h0c-3.662-3.318-2.271-5.182-1.031-10Zm0,0" transform="translate(-17.383 -106.758)" fill="#1588e8"/>
    <path id="Caminho_620" data-name="Caminho 620" d="M200.331,145.555l1.353,3.923s1.632,2.622,0,4.255-3.661.4-3.661,1.485-4.057.495-4.057,1.979-3.661,2.969-1.979,4.651,3.166-2.177,4.255-1.089,1.385,4.453,0,4.453-1.973,2.078-4.7,1.088-3.516-3.661-4.8-2.375-5.987,2.573-4.824,7.125,3.933,4.156,6.209,4.156,1.88,3.166,1.88,4.947a8.218,8.218,0,0,0,1.61,3.688,25.667,25.667,0,0,0,3.524-.609,10.322,10.322,0,0,1,1.892-3.87c1.583-1.583,3.2-2.057,2.508-3.912-.367-.983,1-2.866-.232-4.1s-2.87-2.177-2.177-2.87,5.1,1.93,6.531.495,2.177,3.958,3.562,3.958,1.385-3.661,2.573-3.661c.741,0,1.673-.46,2.487-.135a25.584,25.584,0,0,0,.988-2.437,24.278,24.278,0,0,0-12.942-21.142Zm0,0" transform="translate(-162.682 -130.295)" fill="#83d912"/>
    <path id="Caminho_621" data-name="Caminho 621" d="M359.109,145.555l1.353,3.923a5.032,5.032,0,0,1,.712,2.719,2.525,2.525,0,0,1-.278.949c-.362,1.6-.6,4.825,2.689,6.4,4.373,2.093,1.071,7.979,7,9.478a1.639,1.639,0,0,1,.481.109,25.552,25.552,0,0,0,.988-2.437,24.276,24.276,0,0,0-12.941-21.141Zm0,0" transform="translate(-321.46 -130.295)" fill="#abf222"/>
    <path id="Caminho_622" data-name="Caminho 622" d="M194.111,327.149c1.24-4.823-1.729-4.333-5.262-8.744-.827-.763-1.39-1.273-2.106-.557-1.286,1.286-5.987,2.573-4.824,7.125s3.933,4.156,6.209,4.156,1.88,3.166,1.88,4.948a8.213,8.213,0,0,0,1.609,3.687,25.537,25.537,0,0,0,3.524-.609C191.479,333.835,192.871,331.971,194.111,327.149Zm0,0" transform="translate(-162.683 -284.217)" fill="#5bbf02"/>
    <path id="Caminho_623" data-name="Caminho 623" d="M215.645,119.375a24.426,24.426,0,0,0-9.956-.126,5.19,5.19,0,0,0,.172,2.567,4.936,4.936,0,0,0,4.9,3.043c1.41,0,1.93,2.672,3.711,2.672s.742-2.969,1.633-3.859,1.113-1.41,0-2.523a1.846,1.846,0,0,1-.493-1.424,2.91,2.91,0,0,1,.035-.349Zm0,0" transform="translate(-184.052 -106.343)" fill="#83d912"/>
    <path id="Caminho_624" data-name="Caminho 624" d="M209.584,125.172a2.968,2.968,0,0,0-.466-1.575,4.488,4.488,0,0,1-.272-4.335,24.476,24.476,0,0,0-3.157.4,5.191,5.191,0,0,0,.172,2.567,4.585,4.585,0,0,0,3.723,2.941Zm0,0" transform="translate(-184.052 -106.759)" fill="#5bbf02"/>
    <path id="Caminho_625" data-name="Caminho 625" d="M236.812,245.754a.828.828,0,0,1,.359-1.115c1.438-.738,1.467-.693,1.626-.944a.829.829,0,0,1,1.4.887c-.472.745-1,.879-2.269,1.53a.828.828,0,0,1-1.115-.359Zm0,0" transform="translate(-211.903 -217.802)" fill="#83d912"/>
    <path id="Caminho_626" data-name="Caminho 626" d="M236.653,283.643a.828.828,0,0,1,.217-1.151l.313-.214a.828.828,0,1,1,.935,1.368l-.313.214A.828.828,0,0,1,236.653,283.643Zm0,0" transform="translate(-211.713 -252.555)" fill="#83d912"/>
    <path id="Caminho_627" data-name="Caminho 627" d="M34.406,149.751c-1.62-1.62.544-2.944-.989-4.477a2.392,2.392,0,0,1-.679-1.652,24.281,24.281,0,0,0-13.332,21.332A25.764,25.764,0,0,0,30.658,178.7c-.139-2.926,1.286-5.654-.111-7.051-1.682-1.682-1.706-3.339-2.276-3.909s-1.929.841-2.77-.989,1.138-2.969,1.138-2.969c1.286-.346,1.113-2.053,2.919-3.859s4.255,0,5.838,0,1.781-1.682,0-3.463.631-5.083-.989-6.7Zm0,0" transform="translate(-17.371 -128.564)" fill="#5bbf02"/>
    <path id="Caminho_628" data-name="Caminho 628" d="M131.062,318.19l-.989-.422a.828.828,0,1,1,.65-1.524l.989.422a.828.828,0,1,1-.65,1.524Zm0,0" transform="translate(-115.985 -283.03)" fill="#83d912"/>
    <path id="Caminho_629" data-name="Caminho 629" d="M378.271,282.142a3.122,3.122,0,1,1-3.122-3.122A3.122,3.122,0,0,1,378.271,282.142Zm0,0" transform="translate(-333.024 -249.768)" fill="#f9b50b"/>
    <path id="Caminho_630" data-name="Caminho 630" d="M376.254,283.054a2.016,2.016,0,0,1-.486-3.973,3.12,3.12,0,1,0,2.442,2.442,2.016,2.016,0,0,1-1.956,1.531Zm0,0" transform="translate(-333.025 -249.768)" fill="#f79d0d"/>
    <path id="Caminho_631" data-name="Caminho 631" d="M81,236.349a3.122,3.122,0,1,1-3.122-3.122A3.122,3.122,0,0,1,81,236.349Zm0,0" transform="translate(-66.917 -208.776)" fill="#f97396"/>
    <path id="Caminho_632" data-name="Caminho 632" d="M78.912,237.4a2.084,2.084,0,0,1-.463-4.117,3.125,3.125,0,1,0,2.495,2.495A2.084,2.084,0,0,1,78.912,237.4Zm0,0" transform="translate(-66.917 -208.776)" fill="#f7577a"/>
    <path id="Caminho_633" data-name="Caminho 633" d="M166.668,216.088c-5.415-4.613-14.426-4.882-20.292-1.468a1.491,1.491,0,1,1-1.5-2.578c6.972-4.058,17.353-3.655,23.726,1.776a1.491,1.491,0,0,1-1.934,2.27Zm0,0" transform="translate(-129.024 -187.38)" fill="#d9f5ff"/>
    <path id="Caminho_634" data-name="Caminho 634" d="M10.959,0A10.938,10.938,0,0,0,2.383,17.729L9.1,26.211a2.371,2.371,0,0,0,3.718,0l6.717-8.482A10.938,10.938,0,0,0,10.959,0Zm0,0" transform="translate(0)" fill="#f7577a"/>
    <path id="Caminho_635" data-name="Caminho 635" d="M15.047,28.068a.641.641,0,0,0-.4-.633,1.252,1.252,0,0,1-.826-1.227.65.65,0,0,0-.458-.609,6.564,6.564,0,0,1-4.713-7.374.65.65,0,0,0-.366-.653,1.278,1.278,0,0,1-.661-1.27.654.654,0,0,0-.437-.628c-2.352-.855-1.429-3.4-1.41-3.449A10.961,10.961,0,0,0,2.387,28.674L9.1,37.156a2.371,2.371,0,0,0,3.718,0l4.966-6.271c-2.561-.141-2.79-1.918-2.74-2.817Zm0,0" transform="translate(-0.004 -10.945)" fill="#d93a59"/>
    <path id="Caminho_636" data-name="Caminho 636" d="M45,52.483a6.972,6.972,0,1,1,6.972-6.972A6.979,6.979,0,0,1,45,52.483Zm0-11.734a4.763,4.763,0,1,0,4.762,4.762A4.768,4.768,0,0,0,45,40.748Zm0,0" transform="translate(-34.044 -34.499)" fill="#d93a59"/>
    <path id="Caminho_637" data-name="Caminho 637" d="M48.685,58.895a1.252,1.252,0,0,1-.826-1.227.642.642,0,0,0-.118-.359A4.76,4.76,0,1,1,42.609,49.3a.659.659,0,0,0-.286-.269,1.278,1.278,0,0,1-.661-1.27.635.635,0,0,0-.124-.392,6.968,6.968,0,1,0,7.444,11.766A.63.63,0,0,0,48.685,58.895Zm0,0" transform="translate(-34.044 -42.405)" fill="#ba1c37"/>
    <path id="Caminho_638" data-name="Caminho 638" d="M153.289,211.086a1.565,1.565,0,0,1,1-1.457,21,21,0,0,0-9.408,2.685,1.491,1.491,0,0,0,1.5,2.578,18.053,18.053,0,0,1,8.109-2.285A1.565,1.565,0,0,1,153.289,211.086Zm0,0" transform="translate(-129.025 -187.651)" fill="#abe4fe"/>
    <path id="Caminho_639" data-name="Caminho 639" d="M30.547,276.843c-1.682-1.682-1.706-3.34-2.276-3.909s-1.929.841-2.77-.989a1.967,1.967,0,0,1-.042-1.671,5.5,5.5,0,0,0-2.152-2.324c-2.653-1.794-2.254-5.55-2.033-6.81a24.187,24.187,0,0,0-1.867,9.012,25.762,25.762,0,0,0,11.252,13.742c-.139-2.926,1.286-5.654-.111-7.051Zm0,0" transform="translate(-17.372 -233.763)" fill="#58aa02"/>
  </g>
</svg>
