<svg xmlns="http://www.w3.org/2000/svg" width="59.232" height="56.546" viewBox="0 0 59.232 56.546">
  <g id="icon-estrela-vazia" transform="translate(0.52 0.5)">
    <g id="Grupo_542" data-name="Grupo 542" transform="translate(0 0)">
      <path id="Caminho_3947" data-name="Caminho 3947" d="M27.491,12.327a1.788,1.788,0,0,1,3.207,0l6.975,14.132a4.5,4.5,0,0,0,3.39,2.463l15.6,2.267a1.788,1.788,0,0,1,.991,3.05l-11.284,11a4.5,4.5,0,0,0-1.3,3.985l2.663,15.531a1.788,1.788,0,0,1-2.595,1.885L31.19,59.308a4.5,4.5,0,0,0-4.191,0L13.051,66.641a1.788,1.788,0,0,1-2.595-1.885L13.12,49.226a4.5,4.5,0,0,0-1.3-3.986L.54,34.239a1.788,1.788,0,0,1,.991-3.05l15.6-2.267a4.5,4.5,0,0,0,3.39-2.463Z" transform="translate(0 -11.33)" fill="none" stroke="#f9c80e" stroke-width="1"/>
    </g>
  </g>
</svg>
