<svg xmlns="http://www.w3.org/2000/svg" width="51.371" height="53.677" viewBox="0 0 51.371 53.677">
  <g id="icon-dicas" transform="translate(2666 1878)">
    <g id="_014-travel_guide" data-name="014-travel guide" transform="translate(-2666 -1878)">
      <path id="Caminho_494" data-name="Caminho 494" d="M48.543,59.414a25.687,25.687,0,1,0-45.224.9Zm0,0" transform="translate(0 -19.694)" fill="#3c2b8e"/>
      <path id="Caminho_495" data-name="Caminho 495" d="M417.43,270.16a37.869,37.869,0,0,1-5.4,2.069v16.389a25.768,25.768,0,0,0,5.4-7.166Zm0,0" transform="translate(-368.834 -241.837)" fill="#f9b50b"/>
      <path id="Caminho_496" data-name="Caminho 496" d="M436.712,387.145a1.794,1.794,0,0,1-1.794-.637l-.394,3.746A25.742,25.742,0,0,0,436.712,387.145Zm0,0" transform="translate(-388.969 -345.987)" fill="#f79d0d"/>
      <path id="Caminho_497" data-name="Caminho 497" d="M399.065,48.229V24.151A2.157,2.157,0,0,0,396.915,22h-5.4a2.157,2.157,0,0,1,2.151,2.151V50.3a37.871,37.871,0,0,0,5.4-2.069Zm0,0" transform="translate(-350.47 -19.694)" fill="#2299f2"/>
      <path id="Caminho_498" data-name="Caminho 498" d="M414.066,47.644h-2.035V89.429a25.815,25.815,0,0,0,2.752-3V48.362a.718.718,0,0,0-.717-.718Zm0,0" transform="translate(-368.834 -42.649)" fill="#abe4fe"/>
      <path id="Caminho_499" data-name="Caminho 499" d="M412.031,386.54v6.228a25.822,25.822,0,0,0,2.752-3v-3.255a1.376,1.376,0,0,1-2.752.032Zm0,0" transform="translate(-368.834 -345.987)" fill="#82c6f9"/>
      <path id="Caminho_500" data-name="Caminho 500" d="M71.034,155.748c-9.9,2.886-17.442-.36-25.8-8.77A22.79,22.79,0,0,0,31.1,140.039v25.84a25.686,25.686,0,0,0,40.042,6.16V155.717l-.106.032Zm0,0" transform="translate(-27.838 -125.358)" fill="#fbc840"/>
      <path id="Caminho_501" data-name="Caminho 501" d="M83.415,393.674H50.571a3.67,3.67,0,0,1-1.739-.437,25.682,25.682,0,0,0,38.183,3.3v-5.708a3.717,3.717,0,0,1-3.6,2.841Zm0,0" transform="translate(-43.713 -349.858)" fill="#f9b50b"/>
      <path id="Caminho_502" data-name="Caminho 502" d="M71.139,24.151A2.157,2.157,0,0,0,68.989,22H32.368a1.274,1.274,0,0,0-1.27,1.27V34.587a22.79,22.79,0,0,1,14.138,6.939c8.386,8.44,15.947,11.68,25.9,8.74V24.151Zm0,0" transform="translate(-27.837 -19.694)" fill="#52b0f5"/>
      <path id="Caminho_503" data-name="Caminho 503" d="M31.1,165.875a25.8,25.8,0,0,0,5.424,6.722V141.276a22.344,22.344,0,0,0-5.424-1.24Zm0,0" transform="translate(-27.838 -125.354)" fill="#f9b50b"/>
      <path id="Caminho_504" data-name="Caminho 504" d="M50.585,414.21a3.669,3.669,0,0,1-1.738-.436,25.849,25.849,0,0,0,3.563,3.864V414.21Zm0,0" transform="translate(-43.727 -370.394)" fill="#f79d0d"/>
      <path id="Caminho_505" data-name="Caminho 505" d="M35.252,22H32.368a1.274,1.274,0,0,0-1.27,1.27V34.586a22.322,22.322,0,0,1,5.424,1.24V23.27A1.274,1.274,0,0,0,35.252,22Zm0,0" transform="translate(-27.838 -19.693)" fill="#2299f2"/>
      <path id="Caminho_511" data-name="Caminho 511" d="M259.626,220.6H259.6a.794.794,0,0,1-.768-.819l.117-3.626a.794.794,0,1,1,1.587.051l-.117,3.626A.794.794,0,0,1,259.626,220.6Zm0,0" transform="translate(-231.696 -192.81)" fill="#d9f5ff"/>
      <path id="Caminho_512" data-name="Caminho 512" d="M221.832,220.608a.794.794,0,0,1-.793-.768l-.117-3.626a.794.794,0,0,1,1.587-.051l.117,3.626a.8.8,0,0,1-.768.819Zm0,0" transform="translate(-197.76 -192.813)" fill="#d9f5ff"/>
      <path id="Caminho_513" data-name="Caminho 513" d="M225.674,253.484H221.38a.722.722,0,0,0-.72.72v2.972a.722.722,0,0,0,.72.72h4.293a.723.723,0,0,0,.721-.72V254.2A.723.723,0,0,0,225.674,253.484Zm0,0" transform="translate(-197.526 -226.909)" fill="#f7577a"/>
      <path id="Caminho_514" data-name="Caminho 514" d="M223.5,257.177V254.2a.723.723,0,0,1,.72-.72h-2.84a.722.722,0,0,0-.72.72v2.972a.723.723,0,0,0,.72.72h2.84A.723.723,0,0,1,223.5,257.177Zm0,0" transform="translate(-197.526 -226.909)" fill="#d93a59"/>
      <path id="Caminho_515" data-name="Caminho 515" d="M139.225,228.092a2.079,2.079,0,0,0-.527.029.689.689,0,0,1-.706-.273,2.817,2.817,0,0,0-4.962.544.7.7,0,0,1-.808.435,1.726,1.726,0,1,0-.375,3.411h7.227a2.076,2.076,0,0,0,.151-4.146Zm0,0" transform="translate(-116.479 -202.845)" fill="#abe4fe"/>
      <path id="Caminho_516" data-name="Caminho 516" d="M134.537,231.726a1.742,1.742,0,0,1,.36-.214.7.7,0,0,0,.394-.828,2.815,2.815,0,0,1,2.111-3.476,2.815,2.815,0,0,0-4.368,1.184.7.7,0,0,1-.808.435,1.726,1.726,0,1,0-.374,3.411H134.1a1.689,1.689,0,0,1,.44-.513Zm0,0" transform="translate(-116.483 -202.845)" fill="#82c6f9"/>
      <path id="Caminho_517" data-name="Caminho 517" d="M186.011,70.375a7.235,7.235,0,0,0-3.8,13.319,2.367,2.367,0,0,1,1.075,1.993v.329a.7.7,0,0,0,.7.7h4.28a.7.7,0,0,0,.7-.7v-.329a2.371,2.371,0,0,1,1.077-1.995,7.235,7.235,0,0,0-4.033-13.318Zm0,0" transform="translate(-160.137 -62.996)" fill="#fbc840"/>
      <path id="Caminho_518" data-name="Caminho 518" d="M193.12,156.282a2.263,2.263,0,0,1-1.276-.392.579.579,0,0,0-.745.061,4.561,4.561,0,0,1-6.565,0,.579.579,0,0,0-.743-.061,2.278,2.278,0,0,1-3.013-.42,7.246,7.246,0,0,0,3.123,4.4,2.367,2.367,0,0,1,1.074,1.993v.329a.7.7,0,0,0,.7.7h4.28a.7.7,0,0,0,.7-.7v-.329a2.371,2.371,0,0,1,1.077-1.994,7.244,7.244,0,0,0,3.116-4.381A2.276,2.276,0,0,1,193.12,156.282Zm0,0" transform="translate(-161.825 -139.174)" fill="#f9b50b"/>
      <path id="Caminho_519" data-name="Caminho 519" d="M215.891,70.375c-1.981.06-3.612,3.152-3.68,6.98a10.247,10.247,0,0,0,1.715,6.339,3.335,3.335,0,0,1,.556,1.993v.329c0,.386.162.7.362.7h2.214c.2,0,.362-.313.362-.7v-.329a3.337,3.337,0,0,1,.557-1.995,10.094,10.094,0,0,0,1.716-6.083c0-4.035-1.708-7.3-3.8-7.234Zm0,0" transform="translate(-189.961 -62.996)" fill="#f9b50b"/>
      <path id="Caminho_520" data-name="Caminho 520" d="M220.5,158.678a4.561,4.561,0,0,1-6.565,0,.545.545,0,0,0-.314-.159,8.683,8.683,0,0,0,1.57,4.076,3.335,3.335,0,0,1,.556,1.993v.329c0,.386.162.7.362.7h2.214c.2,0,.362-.313.362-.7v-.329a3.337,3.337,0,0,1,.557-1.995,8.689,8.689,0,0,0,1.569-4.078A.542.542,0,0,0,220.5,158.678Zm0,0" transform="translate(-191.222 -141.9)" fill="#f79d0d"/>
      <path id="Caminho_521" data-name="Caminho 521" d="M277.654,6.792,266.424.308a2.322,2.322,0,0,0-3.162.847l-7.143,12.373a2.322,2.322,0,0,0,.847,3.162l11.23,6.484a2.322,2.322,0,0,0,3.162-.847L278.5,9.954a2.321,2.321,0,0,0-.847-3.162Zm0,0" transform="translate(-228.991 0)" fill="#abe4fe"/>
      <path id="Caminho_522" data-name="Caminho 522" d="M270.844,2.86,266.424.308a2.322,2.322,0,0,0-3.162.847l-7.143,12.373a2.322,2.322,0,0,0,.847,3.162l4.288,2.476,8.283-14.339a.606.606,0,0,0,.067-.442c-.349-1.456,1.24-1.525,1.24-1.525Zm0,0" transform="translate(-228.991 0)" fill="#82c6f9"/>
      <path id="Caminho_523" data-name="Caminho 523" d="M301.055,26.367l-11.314-6.532a.17.17,0,0,0-.232.062L283.1,31a.17.17,0,0,0,.062.232l11.314,6.532a.169.169,0,0,0,.232-.062l6.41-11.1A.169.169,0,0,0,301.055,26.367Zm0,0" transform="translate(-253.399 -17.735)" fill="#52b0f5"/>
      <path id="Caminho_524" data-name="Caminho 524" d="M289.741,19.836a.17.17,0,0,0-.232.062L283.1,31a.17.17,0,0,0,.062.232l4.33,2.5,6.452-11.169a.616.616,0,0,0,.079-.256Zm0,0" transform="translate(-253.399 -17.736)" fill="#2299f2"/>
      <path id="Caminho_525" data-name="Caminho 525" d="M292.441,95.082a1.834,1.834,0,0,1-2.247-1.3l-.242-.9a1.834,1.834,0,0,0-2.247-1.3l-2.985.8L283.1,95.191a.17.17,0,0,0,.062.232l11.314,6.532a.169.169,0,0,0,.231-.062l5.066-8.775Zm0,0" transform="translate(-253.4 -81.926)" fill="#2299f2"/>
      <path id="Caminho_526" data-name="Caminho 526" d="M289.952,92.881a1.834,1.834,0,0,0-2.247-1.3l-2.985.8L283.1,95.191a.17.17,0,0,0,.062.232l4.33,2.5,2.6-4.506Zm0,0" transform="translate(-253.399 -81.926)" fill="#1588e8"/>
      <path id="Caminho_527" data-name="Caminho 527" d="M292.467,63.188,281.237,56.7a2.322,2.322,0,0,0-3.162.847l-7.143,12.373a2.322,2.322,0,0,0,.847,3.162l11.23,6.483a2.321,2.321,0,0,0,3.162-.847l7.143-12.373a2.321,2.321,0,0,0-.847-3.162Zm0,0" transform="translate(-242.251 -50.484)" fill="#d9f5ff"/>
      <path id="Caminho_528" data-name="Caminho 528" d="M315.868,82.763l-11.314-6.532a.169.169,0,0,0-.231.062l-6.411,11.1a.169.169,0,0,0,.062.231l11.314,6.532a.169.169,0,0,0,.231-.062l6.411-11.1A.17.17,0,0,0,315.868,82.763Zm0,0" transform="translate(-266.659 -68.219)" fill="#52b0f5"/>
      <path id="Caminho_529" data-name="Caminho 529" d="M133.21,410.964c.062,0,.123,0,.184-.007C133.395,410.957,131.686,410.964,133.21,410.964Zm-.545-.831" transform="translate(-118.679 -367.135)" fill="#483ba8"/>
      <path id="Caminho_534" data-name="Caminho 534" d="M285.656,59.256l-4.42-2.552a2.322,2.322,0,0,0-3.162.847L270.93,69.924a2.322,2.322,0,0,0,.847,3.162l4.288,2.475,8.283-14.338a.607.607,0,0,0,.067-.443c-.348-1.456,1.24-1.525,1.24-1.525Zm0,0" transform="translate(-242.25 -50.483)" fill="#abe4fe"/>
      <path id="Caminho_535" data-name="Caminho 535" d="M304.554,76.232a.169.169,0,0,0-.231.062l-6.411,11.1a.169.169,0,0,0,.062.231l4.33,2.5,6.453-11.169a.615.615,0,0,0,.078-.256Zm0,0" transform="translate(-266.659 -68.219)" fill="#2299f2"/>
      <path id="Caminho_536" data-name="Caminho 536" d="M307.253,151.478a1.834,1.834,0,0,1-2.247-1.3l-.242-.9a1.834,1.834,0,0,0-2.247-1.3l-2.985.8-1.621,2.808a.169.169,0,0,0,.062.231l11.314,6.532a.169.169,0,0,0,.231-.062l5.066-8.775Zm0,0" transform="translate(-266.659 -132.409)" fill="#83d912"/>
      <path id="Caminho_537" data-name="Caminho 537" d="M376.069,118.076a1.482,1.482,0,1,0,.542,2.024A1.482,1.482,0,0,0,376.069,118.076Zm0,0" transform="translate(-334.653 -105.519)" fill="#fbc840"/>
      <path id="Caminho_538" data-name="Caminho 538" d="M375.614,119.785a1.023,1.023,0,0,1,.154-1.844,1.48,1.48,0,1,0,1.008,1.746,1.022,1.022,0,0,1-1.162.1Zm0,0" transform="translate(-334.656 -105.518)" fill="#f9b50b"/>
      <path id="Caminho_539" data-name="Caminho 539" d="M304.908,149.814l-.144-.536a1.834,1.834,0,0,0-2.247-1.3l-2.985.8-1.621,2.808a.17.17,0,0,0,.062.232l4.33,2.5C301.921,150.6,304.908,149.814,304.908,149.814Zm0,0" transform="translate(-266.659 -132.41)" fill="#5bbf02"/>
    </g>
    <text id="DICAS" transform="translate(-2656 -1836)" fill="#483ba8" font-size="9" font-family="OpenSans-ExtraBold, Open Sans" font-weight="800" letter-spacing="-0.015em"><tspan x="0" y="0">DICAS</tspan></text>
  </g>
</svg>
