<svg xmlns="http://www.w3.org/2000/svg" width="19.154" height="17.836" viewBox="0 0 19.154 17.836">
  <g id="icon-casa-breadcrumb" transform="translate(463 -130.047)">
    <g id="Grupo_1663" data-name="Grupo 1663" transform="translate(-463 130.047)">
      <g id="Grupo_1662" data-name="Grupo 1662">
        <path id="Caminho_5266" data-name="Caminho 5266" d="M18.833,25.107l-2.9-2.9V18.851a1.1,1.1,0,0,0-2.2,0v1.158l-2.161-2.162a2.888,2.888,0,0,0-3.993,0L.322,25.107a1.1,1.1,0,0,0,1.553,1.553L9.133,19.4a.648.648,0,0,1,.888,0l7.259,7.259a1.1,1.1,0,1,0,1.553-1.553Z" transform="translate(-0.001 -17.047)" fill="#1abc9c"/>
        <path id="Caminho_5267" data-name="Caminho 5267" d="M75.932,127.906a.539.539,0,0,0-.763,0l-6.384,6.383a.54.54,0,0,0-.158.382v4.655a1.978,1.978,0,0,0,1.978,1.978h3.161v-4.9h3.569v4.9H80.5a1.978,1.978,0,0,0,1.978-1.978V134.67a.538.538,0,0,0-.158-.382Z" transform="translate(-65.974 -123.468)" fill="#1abc9c"/>
      </g>
    </g>
  </g>
</svg>
