<svg id="icon-newsletter" xmlns="http://www.w3.org/2000/svg" width="228.55" height="239.94" viewBox="0 0 228.55 239.94">
  <circle id="Elipse_105" data-name="Elipse 105" cx="114.275" cy="114.275" r="114.275" transform="translate(0 10.101)" fill="#52bbef"/>
  <path id="Caminho_5359" data-name="Caminho 5359" d="M432.435,233.564l-4.644-3.463v17.255l8.4-4.922v-1.383A10.553,10.553,0,0,0,432.435,233.564Z" transform="translate(-232.98 -122.268)" fill="#ffd00d"/>
  <path id="Caminho_5360" data-name="Caminho 5360" d="M411.1,176.49h-10.31v49.792l12.653-7.413V178.833A2.35,2.35,0,0,0,411.1,176.49Z" transform="translate(-218.634 -93.781)" fill="#eef6ff"/>
  <path id="Caminho_5361" data-name="Caminho 5361" d="M244.51,0H112.551a2.35,2.35,0,0,0-2.343,2.343V28.13a16.391,16.391,0,0,1,7.04,13.456V58.969h3.844a2.345,2.345,0,0,1,2.343,2.343V73.4a2.345,2.345,0,0,1-2.343,2.343H110.207V92.686a22.912,22.912,0,0,1,0,39.542l60.649,35.533,5.778-4.2a3.444,3.444,0,0,1,3.79,0l5.778,4.2,60.65-35.534V2.343A2.349,2.349,0,0,0,244.51,0Z" transform="translate(-64.227)" fill="#d9eafc"/>
  <g id="Grupo_1791" data-name="Grupo 1791" transform="translate(45.98)">
    <path id="Caminho_5362" data-name="Caminho 5362" d="M110.21,266.125l10.63,6.228V251.987A23.018,23.018,0,0,1,110.21,266.125Z" transform="translate(-110.209 -133.898)" fill="#aec1ed"/>
    <path id="Caminho_5363" data-name="Caminho 5363" d="M117.247,41.586V58.969h3.591V2.343A2.35,2.35,0,0,1,123.182,0H112.55a2.35,2.35,0,0,0-2.343,2.343V28.13A16.391,16.391,0,0,1,117.247,41.586Z" transform="translate(-110.207)" fill="#aec1ed"/>
    <path id="Caminho_5364" data-name="Caminho 5364" d="M110.208,161.63v16.941a23.018,23.018,0,0,1,10.631,14.138V161.63Z" transform="translate(-110.208 -85.885)" fill="#aec1ed"/>
  </g>
  <path id="Caminho_5365" data-name="Caminho 5365" d="M249.287,58.631a2.35,2.35,0,0,1-2.343,2.343h-95.6A2.35,2.35,0,0,1,149,58.631v-8.2a2.35,2.35,0,0,1,2.343-2.343h95.6a2.35,2.35,0,0,1,2.343,2.343Z" transform="translate(-84.841 -25.552)" fill="#2e4c89"/>
  <path id="Caminho_5366" data-name="Caminho 5366" d="M158.3,58.631v-8.2a2.35,2.35,0,0,1,2.343-2.343h-9.3A2.35,2.35,0,0,0,149,50.431v8.2a2.35,2.35,0,0,0,2.343,2.343h9.3A2.35,2.35,0,0,1,158.3,58.631Z" transform="translate(-84.841 -25.552)" fill="#293d7c"/>
  <path id="Caminho_5367" data-name="Caminho 5367" d="M195.906,325.4h35.169l19.906-11.662v-3.8a2.35,2.35,0,0,0-2.343-2.343H178.343A2.35,2.35,0,0,0,176,309.932v3.8Z" transform="translate(-99.187 -163.443)" fill="#2e4c89"/>
  <path id="Caminho_5368" data-name="Caminho 5368" d="M185.3,319.182v-9.249a2.35,2.35,0,0,1,2.343-2.343h-9.3A2.35,2.35,0,0,0,176,309.932v3.8Z" transform="translate(-99.187 -163.443)" fill="#293d7c"/>
  <path id="Caminho_5369" data-name="Caminho 5369" d="M327.583,236.848a2.35,2.35,0,0,1-2.343,2.343h-23.9a2.35,2.35,0,0,1-2.343-2.343V198.422a2.35,2.35,0,0,1,2.343-2.343h23.9a2.35,2.35,0,0,1,2.343,2.343Z" transform="translate(-164.542 -104.19)" fill="#445ea0"/>
  <path id="Caminho_5370" data-name="Caminho 5370" d="M308.293,236.848V198.422a2.35,2.35,0,0,1,2.343-2.343h-9.3a2.35,2.35,0,0,0-2.343,2.343v38.426a2.35,2.35,0,0,0,2.343,2.343h9.3A2.35,2.35,0,0,1,308.293,236.848Z" transform="translate(-164.542 -104.19)" fill="#293d7c"/>
  <g id="Grupo_1792" data-name="Grupo 1792" transform="translate(63.505 92.401)">
    <path id="Caminho_5371" data-name="Caminho 5371" d="M210.463,204.2H151.117a3.515,3.515,0,0,1,0-7.029h59.346a3.515,3.515,0,1,1,0,7.029Z" transform="translate(-147.602 -197.171)" fill="#445ea0"/>
    <path id="Caminho_5372" data-name="Caminho 5372" d="M210.463,228.9H151.117a3.515,3.515,0,1,1,0-7.029h59.346a3.515,3.515,0,1,1,0,7.029Z" transform="translate(-147.602 -210.294)" fill="#445ea0"/>
    <path id="Caminho_5373" data-name="Caminho 5373" d="M210.463,253.594H151.117a3.515,3.515,0,0,1,0-7.03h59.346a3.515,3.515,0,0,1,0,7.03Z" transform="translate(-147.602 -223.417)" fill="#445ea0"/>
    <path id="Caminho_5374" data-name="Caminho 5374" d="M210.463,278.292H151.117a3.515,3.515,0,1,1,0-7.029h59.346a3.515,3.515,0,1,1,0,7.029Z" transform="translate(-147.602 -236.541)" fill="#445ea0"/>
  </g>
  <path id="Caminho_5375" data-name="Caminho 5375" d="M176.5,169.495H153.831a3.515,3.515,0,0,1,0-7.03H176.5a3.515,3.515,0,0,1,0,7.03Z" transform="translate(-85.539 -86.329)" fill="#1a2b63"/>
  <g id="Grupo_1793" data-name="Grupo 1793" transform="translate(99.456 44.061)">
    <path id="Caminho_5376" data-name="Caminho 5376" d="M250.5,101.049H227.831a3.515,3.515,0,0,1,0-7.03H250.5a3.515,3.515,0,0,1,0,7.03Z" transform="translate(-224.316 -94.02)" fill="#445ea0"/>
    <path id="Caminho_5377" data-name="Caminho 5377" d="M250.5,123.865H227.831a3.515,3.515,0,0,1,0-7.03H250.5a3.515,3.515,0,0,1,0,7.03Z" transform="translate(-224.316 -106.143)" fill="#445ea0"/>
    <path id="Caminho_5378" data-name="Caminho 5378" d="M250.5,146.679H227.831a3.515,3.515,0,0,1,0-7.03H250.5a3.515,3.515,0,0,1,0,7.03Z" transform="translate(-224.316 -118.266)" fill="#445ea0"/>
    <path id="Caminho_5379" data-name="Caminho 5379" d="M250.5,169.495H227.831a3.515,3.515,0,0,1,0-7.03H250.5a3.515,3.515,0,0,1,0,7.03Z" transform="translate(-224.316 -130.389)" fill="#445ea0"/>
    <path id="Caminho_5380" data-name="Caminho 5380" d="M324.5,101.049H301.831a3.515,3.515,0,1,1,0-7.03H324.5a3.515,3.515,0,0,1,0,7.03Z" transform="translate(-263.637 -94.02)" fill="#445ea0"/>
    <path id="Caminho_5381" data-name="Caminho 5381" d="M324.5,123.865H301.831a3.515,3.515,0,0,1,0-7.03H324.5a3.515,3.515,0,0,1,0,7.03Z" transform="translate(-263.637 -106.143)" fill="#445ea0"/>
    <path id="Caminho_5382" data-name="Caminho 5382" d="M324.5,146.679H301.831a3.515,3.515,0,1,1,0-7.03H324.5a3.515,3.515,0,0,1,0,7.03Z" transform="translate(-263.637 -118.266)" fill="#445ea0"/>
    <path id="Caminho_5383" data-name="Caminho 5383" d="M324.5,169.495H301.831a3.515,3.515,0,1,1,0-7.03H324.5a3.515,3.515,0,0,1,0,7.03Z" transform="translate(-263.637 -130.389)" fill="#445ea0"/>
  </g>
  <path id="Caminho_5384" data-name="Caminho 5384" d="M177.351,117.4,167.172,96.338a3.515,3.515,0,0,0-6.329,0L150.664,117.4a3.515,3.515,0,0,0,6.329,3.059l1.622-3.356H169.4l1.622,3.356a3.515,3.515,0,0,0,6.329-3.059Zm-15.339-7.327,2-4.129,2,4.129Z" transform="translate(-85.538 -50.136)" fill="#1a2b63"/>
  <g id="Grupo_1794" data-name="Grupo 1794" transform="translate(64.776 8.008)">
    <path id="Caminho_5385" data-name="Caminho 5385" d="M347,24.118h-2.823a3.515,3.515,0,1,1,0-7.029H347a3.515,3.515,0,1,1,0,7.029Z" transform="translate(-251.458 -17.089)" fill="#445ea0"/>
    <path id="Caminho_5386" data-name="Caminho 5386" d="M164.086,24.118H153.83a3.515,3.515,0,0,1,0-7.029h10.256a3.515,3.515,0,1,1,0,7.029Z" transform="translate(-150.315 -17.089)" fill="#445ea0"/>
  </g>
  <g id="Grupo_1795" data-name="Grupo 1795" transform="translate(25.396 119.698)">
    <path id="Caminho_5387" data-name="Caminho 5387" d="M87.266,281.652a22.892,22.892,0,0,1-20.983,1.563v64.218A115.507,115.507,0,0,0,83.177,364.2l64.7-47.041Z" transform="translate(-66.283 -269.359)" fill="#ffaf10"/>
    <path id="Caminho_5388" data-name="Caminho 5388" d="M271.611,303.223l64.7,47.041a115.52,115.52,0,0,0,16.894-16.77V255.42Z" transform="translate(-175.388 -255.42)" fill="#ffaf10"/>
  </g>
  <path id="Caminho_5389" data-name="Caminho 5389" d="M75.268,286.823a22.8,22.8,0,0,1-8.985-1.835v64.218a115.5,115.5,0,0,0,9.3,10.078V286.816C75.477,286.817,75.373,286.823,75.268,286.823Z" transform="translate(-40.887 -151.433)" fill="#ef9614"/>
  <path id="Caminho_5390" data-name="Caminho 5390" d="M175.9,347.37a3.444,3.444,0,0,0-3.79,0l-70.422,51.2.006.009a114.8,114.8,0,0,0,144.626,0l0,0Z" transform="translate(-59.698 -184.279)" fill="#ffd00d"/>
  <path id="Caminho_5391" data-name="Caminho 5391" d="M82.322,213.433a23.4,23.4,0,1,1-23.4-23.4A23.4,23.4,0,0,1,82.322,213.433Z" transform="translate(-24.539 -100.976)" fill="#fe3745"/>
  <path id="Caminho_5392" data-name="Caminho 5392" d="M44.816,213.434A23.409,23.409,0,0,1,63.569,190.5a23.4,23.4,0,1,0,0,45.877A23.412,23.412,0,0,1,44.816,213.434Z" transform="translate(-24.539 -100.977)" fill="#b7092b"/>
  <path id="Caminho_5393" data-name="Caminho 5393" d="M80.292,238.607a2.343,2.343,0,0,1-2.343-2.343V223.006h-1.2a2.343,2.343,0,0,1,0-4.686h3.547a2.343,2.343,0,0,1,2.343,2.343v15.6A2.343,2.343,0,0,1,80.292,238.607Z" transform="translate(-45.201 -116.008)" fill="#fff"/>
  <path id="Caminho_5394" data-name="Caminho 5394" d="M68.932,161.63a7.774,7.774,0,0,0,15.486,0Z" transform="translate(-42.294 -85.885)" fill="#ff9518"/>
  <path id="Caminho_5395" data-name="Caminho 5395" d="M74.245,161.63H68.931a7.755,7.755,0,0,0,10.4,6.6A7.778,7.778,0,0,1,74.245,161.63Z" transform="translate(-42.294 -85.885)" fill="#ef8318"/>
  <path id="Caminho_5396" data-name="Caminho 5396" d="M82.9,86.994V69.611a16.919,16.919,0,0,0-16.87-16.87H61.548a16.919,16.919,0,0,0-16.87,16.87V86.994Z" transform="translate(-29.407 -28.025)" fill="#ff9518"/>
  <path id="Caminho_5397" data-name="Caminho 5397" d="M53.977,86.994V69.611A16.929,16.929,0,0,1,68.436,52.917a16.836,16.836,0,0,0-2.411-.176H61.547a16.919,16.919,0,0,0-16.87,16.87V86.994Z" transform="translate(-29.406 -28.025)" fill="#ef8318"/>
  <path id="Caminho_5398" data-name="Caminho 5398" d="M82.068,139.734a2.82,2.82,0,0,1-2.811,2.812H34.288a2.82,2.82,0,0,1-2.812-2.812v-12.09a2.82,2.82,0,0,1,2.812-2.811H79.257a2.82,2.82,0,0,1,2.811,2.811Z" transform="translate(-22.392 -66.332)" fill="#ffd00d"/>
  <path id="Caminho_5399" data-name="Caminho 5399" d="M40.775,139.734v-12.09a2.82,2.82,0,0,1,2.812-2.811h-9.3a2.82,2.82,0,0,0-2.812,2.811v12.09a2.82,2.82,0,0,0,2.812,2.812h9.3A2.821,2.821,0,0,1,40.775,139.734Z" transform="translate(-22.392 -66.332)" fill="#ffaf10"/>
</svg>
