<svg xmlns="http://www.w3.org/2000/svg" width="45" height="45" viewBox="0 0 45 45">
  <g id="icon-contact" transform="translate(0 -0.409)">
    <g id="Grupo_1664" data-name="Grupo 1664">
      <g id="Elipse_92" data-name="Elipse 92" transform="translate(0 0.409)" fill="#2980b9" stroke="#707070" stroke-width="1">
        <circle cx="22.5" cy="22.5" r="22.5" stroke="none"/>
        <circle cx="22.5" cy="22.5" r="22" fill="none"/>
      </g>
    </g>
    <g id="Grupo_1740" data-name="Grupo 1740" transform="translate(7 10)">
      <g id="Grupo_1739" data-name="Grupo 1739" transform="translate(0 0)">
        <path id="Caminho_5308" data-name="Caminho 5308" d="M27.735,12.813H7.5a1.233,1.233,0,0,0-1.231,1.231v5.58l-.925-1.388A1.431,1.431,0,0,0,3.415,17.8l-1.9,1.144A2.793,2.793,0,0,0,.235,20.6C-.459,23.13.056,27.486,6.45,33.88c5.085,5.079,8.875,6.447,11.488,6.447a6.746,6.746,0,0,0,1.791-.234,2.8,2.8,0,0,0,1.655-1.274l1.143-1.905a1.431,1.431,0,0,0-.435-1.929l-4.558-3.038a1.438,1.438,0,0,0-1.926.312l-1.327,1.706a.462.462,0,0,1-.591.125l-.253-.139a15.18,15.18,0,0,1-3.954-3.106c-.226-.226-.431-.437-.623-.64H27.735a1.23,1.23,0,0,0,1.231-1.226V14.044A1.233,1.233,0,0,0,27.735,12.813ZM12.977,34.8l.245.135a1.422,1.422,0,0,0,1.823-.376l1.327-1.706a.469.469,0,0,1,.628-.1l4.558,3.038a.466.466,0,0,1,.141.628l-1.143,1.905a1.835,1.835,0,0,1-1.082.84c-2.282.628-6.277.1-12.34-5.967S.542,23.138,1.168,20.857a1.835,1.835,0,0,1,.84-1.082l1.905-1.143a.467.467,0,0,1,.628.141l3.04,4.558a.469.469,0,0,1-.1.628L5.772,25.286A1.422,1.422,0,0,0,5.4,27.108l.135.245A16.008,16.008,0,0,0,8.8,31.528,16.039,16.039,0,0,0,12.977,34.8ZM28,28.98a.264.264,0,0,1-.266.261H7.991A12.177,12.177,0,0,1,6.38,26.892l-.139-.254a.461.461,0,0,1,.125-.59l1.706-1.327A1.438,1.438,0,0,0,8.384,22.8L7.237,21.074v-7.03a.263.263,0,0,1,.266-.266H27.735a.263.263,0,0,1,.266.266V28.98Z" transform="translate(-0.001 -12.813)" fill="#fff"/>
        <path id="Caminho_5309" data-name="Caminho 5309" d="M165.992,50.686l-8.07,6.12a.651.651,0,0,1-.766,0l-8.067-6.12a.483.483,0,0,0-.584.77l8.068,6.12a1.625,1.625,0,0,0,1.931,0l8.071-6.12a.483.483,0,0,0-.583-.77Z" transform="translate(-139.921 -48.45)" fill="#fff"/>
        <path id="Caminho_5310" data-name="Caminho 5310" d="M153.886,172.546l-4.946,5.3a.483.483,0,1,0,.706.659l4.947-5.3a.483.483,0,0,0-.706-.656Z" transform="translate(-140.389 -163.38)" fill="#fff"/>
        <path id="Caminho_5311" data-name="Caminho 5311" d="M370.788,172.232a.483.483,0,1,0-.706.659l4.945,5.3a.483.483,0,1,0,.706-.659Z" transform="translate(-349.018 -163.066)" fill="#fff"/>
      </g>
    </g>
  </g>
</svg>
