<svg xmlns="http://www.w3.org/2000/svg" width="18.165" height="21.572" viewBox="0 0 18.165 21.572">
  <g id="icon-pessoas-azul" transform="translate(-1.559)">
    <path id="Caminho_5271" data-name="Caminho 5271" d="M19.724,20.492H17.539a6.8,6.8,0,0,0-6.9-6.686,6.8,6.8,0,0,0-6.9,6.686H1.559a8.989,8.989,0,0,1,9.083-8.872A8.989,8.989,0,0,1,19.724,20.492Z" transform="translate(0 1.08)" fill="#2980b9"/>
    <path id="Caminho_5272" data-name="Caminho 5272" d="M10.38,11.989a5.995,5.995,0,1,1,6-5.995A6,6,0,0,1,10.38,11.989Zm0-9.8a3.809,3.809,0,1,0,3.81,3.809A3.813,3.813,0,0,0,10.38,2.186Z" transform="translate(0.263)" fill="#2980b9"/>
  </g>
</svg>
