<svg id="icon-aviao" xmlns="http://www.w3.org/2000/svg" width="23.023" height="22.969" viewBox="0 0 23.023 22.969">
  <path id="Caminho_5409" data-name="Caminho 5409" d="M22.8.76c-.745-.746-3.276.576-4.021,1.322L15.8,5.067H2.215a.672.672,0,0,0-.247,1.3l8.981,3.549L5.441,15.421H.233a.233.233,0,0,0-.086.45L4.53,17.6a1.889,1.889,0,0,0,.106.323l-.192.192a.7.7,0,0,0,.989.989l.187-.187a1.888,1.888,0,0,0,.327.11l1.689,4.33a.233.233,0,0,0,.26.144.233.233,0,0,0,.19-.229v-5.1l5.594-5.594,3.516,9.01a.673.673,0,0,0,1.3-.245V7.767l2.986-2.986C22.226,4.036,23.548,1.506,22.8.76Z" transform="translate(0 -0.539)" fill="#707070"/>
</svg>
