<svg id="icon-destaque" xmlns="http://www.w3.org/2000/svg" width="53.734" height="51.425" viewBox="0 0 53.734 51.425">
  <path id="Caminho_1119" data-name="Caminho 1119" d="M120.542.5a25.59,25.59,0,0,0-14.593,4.542V47.383A25.713,25.713,0,1,0,120.542.5Zm0,0" transform="translate(-94.83 -0.5)" fill="#fbc840"/>
  <path id="Caminho_1120" data-name="Caminho 1120" d="M144.409,14.836h-32.55a25.639,25.639,0,0,0-5.91,3.038V60.214a25.639,25.639,0,0,0,5.91,3.038h32.55a4.167,4.167,0,0,0,4.155-4.155V18.991a4.167,4.167,0,0,0-4.155-4.155Zm0,0" transform="translate(-94.83 -13.331)" fill="#554cbf"/>
  <path id="Caminho_1121" data-name="Caminho 1121" d="M49.579,43.082H11.224a25.716,25.716,0,0,0,0,42.487H49.579a1.207,1.207,0,0,0,1.191-1.191V44.273a1.207,1.207,0,0,0-1.191-1.191Zm0,0" transform="translate(0 -38.613)" fill="#52b0f5"/>
  <path id="Caminho_1122" data-name="Caminho 1122" d="M12.472,47.893c0-.077,0-.153.006-.229A25.7,25.7,0,0,0,2.16,65h0l.124,7.674h0a25.708,25.708,0,0,0,10.2,16.514c0-.076-.007-.153-.007-.229Zm0,0" transform="translate(-1.933 -42.714)" fill="#2299f2"/>
  <path id="Caminho_1123" data-name="Caminho 1123" d="M.351,239.056a2.2,2.2,0,0,0,.817-1.278l.931-4.224-2.087.49C0,234.3,0,234.552,0,234.808a25.869,25.869,0,0,0,.351,4.248Zm0,0" transform="translate(0 -209.095)" fill="#82c6f9"/>
  <path id="Caminho_1124" data-name="Caminho 1124" d="M66.629,187.325l1.76,8.78a.534.534,0,0,0,.8.386,3.586,3.586,0,0,0,1.759-2.8l.064-8.9Zm0,0" transform="translate(-59.636 -165.455)" fill="#abe4fe"/>
  <path id="Caminho_1125" data-name="Caminho 1125" d="M69.017,189.431a1.7,1.7,0,0,1,.831-1.756l1.144-.653.016-2.226-4.379,2.528,1.76,8.78a.534.534,0,0,0,.8.386,3.713,3.713,0,0,0,.9-.756Zm0,0" transform="translate(-59.636 -165.455)" fill="#82c6f9"/>
  <path id="Caminho_1126" data-name="Caminho 1126" d="M18.078,126.747l3.473,3.054,4.379-2.528-6.349-3.605A25.575,25.575,0,0,0,18.078,126.747Zm0,0" transform="translate(-16.181 -110.742)" fill="#abe4fe"/>
  <path id="Caminho_1127" data-name="Caminho 1127" d="M23.9,138.246l-.881.6a1.608,1.608,0,0,1-1.82,0l-2.375-1.633q-.4.813-.746,1.657l3.473,3.054,4.378-2.528Zm0,0" transform="translate(-16.184 -122.867)" fill="#82c6f9"/>
  <path id="Caminho_1128" data-name="Caminho 1128" d="M233.746,347.307H210.928a.513.513,0,0,1-.513-.513v-2.488a.513.513,0,0,1,.513-.513h22.818a.513.513,0,0,1,.513.513v2.488A.513.513,0,0,1,233.746,347.307Zm0,0" transform="translate(-188.331 -307.765)" fill="#fff"/>
  <path id="Caminho_1129" data-name="Caminho 1129" d="M217.2,346.794v-2.488a.513.513,0,0,1,.513-.513h-6.785a.513.513,0,0,0-.513.513v2.488a.513.513,0,0,0,.513.513h6.785A.513.513,0,0,1,217.2,346.794Zm0,0" transform="translate(-188.331 -307.765)" fill="#d9f5ff"/>
  <path id="Caminho_1130" data-name="Caminho 1130" d="M398.472,346.794v-2.488a.513.513,0,0,0-.513-.513H394.4a.513.513,0,0,0-.513.513v2.488a.513.513,0,0,0,.513.513h3.563A.513.513,0,0,0,398.472,346.794Zm0,0" transform="translate(-352.545 -307.765)" fill="#fbc840"/>
  <path id="Caminho_1131" data-name="Caminho 1131" d="M231.049,105.214H209.336a1.321,1.321,0,0,1-1.317-1.318V82.184a1.321,1.321,0,0,1,1.317-1.318h21.713a1.322,1.322,0,0,1,1.318,1.318V103.9A1.322,1.322,0,0,1,231.049,105.214Zm0,0" transform="translate(-186.188 -72.432)" fill="#d9f5ff"/>
  <path id="Caminho_1132" data-name="Caminho 1132" d="M215.015,103.894V82.181a1.322,1.322,0,0,1,1.318-1.318h-7a1.322,1.322,0,0,0-1.317,1.318v21.713a1.321,1.321,0,0,0,1.317,1.317h7A1.321,1.321,0,0,1,215.015,103.894Zm0,0" transform="translate(-186.188 -72.429)" fill="#abe4fe"/>
  <path id="Caminho_1133" data-name="Caminho 1133" d="M231.049,80.867H209.336a1.321,1.321,0,0,0-1.317,1.318v2.492h24.347V82.185a1.322,1.322,0,0,0-1.318-1.318Zm0,0" transform="translate(-186.188 -72.433)" fill="#f7577a"/>
  <path id="Caminho_1134" data-name="Caminho 1134" d="M216.332,80.867h-7a1.321,1.321,0,0,0-1.317,1.318v2.492h7V82.185A1.321,1.321,0,0,1,216.332,80.867Zm0,0" transform="translate(-186.188 -72.433)" fill="#d93a59"/>
  <path id="Caminho_1135" data-name="Caminho 1135" d="M22.7,312.4a27.826,27.826,0,0,0-14.568-4.116,25.749,25.749,0,0,0,10.37,14.654H56.861a1.207,1.207,0,0,0,1.191-1.191v-6.36c-10.376,6.137-24.415,3.7-35.348-2.988Zm0,0" transform="translate(-7.282 -275.987)" fill="#83d912"/>
  <path id="Caminho_1136" data-name="Caminho 1136" d="M237.893,146.326h-.538a.823.823,0,1,1,0-1.647h.538a.823.823,0,1,1,0,1.647Zm0,0" transform="translate(-211.708 -129.548)" fill="#82c6f9"/>
  <path id="Caminho_1137" data-name="Caminho 1137" d="M237.893,178.471h-.538a.823.823,0,1,1,0-1.647h.538a.823.823,0,1,1,0,1.647Zm0,0" transform="translate(-211.708 -158.319)" fill="#52b0f5"/>
  <path id="Caminho_1138" data-name="Caminho 1138" d="M237.893,210.615h-.538a.823.823,0,1,1,0-1.647h.538a.823.823,0,1,1,0,1.647Zm0,0" transform="translate(-211.708 -187.09)" fill="#52b0f5"/>
  <path id="Caminho_1139" data-name="Caminho 1139" d="M237.893,242.757h-.538a.824.824,0,0,1,0-1.647h.538a.824.824,0,0,1,0,1.647Zm0,0" transform="translate(-211.708 -215.858)" fill="#52b0f5"/>
  <path id="Caminho_1140" data-name="Caminho 1140" d="M237.893,274.9h-.538a.823.823,0,1,1,0-1.647h.538a.823.823,0,1,1,0,1.647Zm0,0" transform="translate(-211.708 -244.628)" fill="#52b0f5"/>
  <path id="Caminho_1141" data-name="Caminho 1141" d="M276.428,146.326h-.538a.823.823,0,1,1,0-1.647h.538a.823.823,0,1,1,0,1.647Zm0,0" transform="translate(-246.198 -129.548)" fill="#abe4fe"/>
  <g id="Grupo_40" data-name="Grupo 40" transform="translate(28.868 15.132)">
    <path id="Caminho_1142" data-name="Caminho 1142" d="M276.428,178.471h-.538a.823.823,0,1,1,0-1.647h.538a.823.823,0,1,1,0,1.647Zm0,0" transform="translate(-275.066 -173.451)" fill="#82c6f9"/>
    <path id="Caminho_1143" data-name="Caminho 1143" d="M276.428,210.615h-.538a.823.823,0,1,1,0-1.647h.538a.823.823,0,1,1,0,1.647Zm0,0" transform="translate(-275.066 -202.221)" fill="#82c6f9"/>
    <path id="Caminho_1144" data-name="Caminho 1144" d="M276.428,242.757h-.538a.824.824,0,0,1,0-1.647h.538a.824.824,0,0,1,0,1.647Zm0,0" transform="translate(-275.066 -230.989)" fill="#82c6f9"/>
    <path id="Caminho_1145" data-name="Caminho 1145" d="M276.428,274.9h-.538a.823.823,0,1,1,0-1.647h.538a.823.823,0,1,1,0,1.647Zm0,0" transform="translate(-275.066 -259.76)" fill="#82c6f9"/>
    <path id="Caminho_1146" data-name="Caminho 1146" d="M314.963,146.326h-.538a.823.823,0,1,1,0-1.647h.538a.823.823,0,1,1,0,1.647Zm0,0" transform="translate(-309.557 -144.68)" fill="#82c6f9"/>
    <path id="Caminho_1147" data-name="Caminho 1147" d="M314.963,178.471h-.538a.823.823,0,1,1,0-1.647h.538a.823.823,0,1,1,0,1.647Zm0,0" transform="translate(-309.557 -173.451)" fill="#82c6f9"/>
    <path id="Caminho_1148" data-name="Caminho 1148" d="M314.963,210.615h-.538a.823.823,0,1,1,0-1.647h.538a.823.823,0,1,1,0,1.647Zm0,0" transform="translate(-309.557 -202.221)" fill="#82c6f9"/>
    <path id="Caminho_1149" data-name="Caminho 1149" d="M314.963,242.757h-.538a.824.824,0,0,1,0-1.647h.538a.824.824,0,0,1,0,1.647Zm0,0" transform="translate(-309.557 -230.989)" fill="#82c6f9"/>
  </g>
  <path id="Caminho_1150" data-name="Caminho 1150" d="M314.963,274.9h-.538a.823.823,0,1,1,0-1.647h.538a.823.823,0,1,1,0,1.647Zm0,0" transform="translate(-280.689 -244.628)" fill="#abe4fe"/>
  <path id="Caminho_1151" data-name="Caminho 1151" d="M353.5,146.326h-.538a.823.823,0,1,1,0-1.647h.538a.823.823,0,1,1,0,1.647Zm0,0" transform="translate(-315.18 -129.548)" fill="#82c6f9"/>
  <path id="Caminho_1152" data-name="Caminho 1152" d="M353.5,178.471h-.538a.823.823,0,1,1,0-1.647h.538a.823.823,0,1,1,0,1.647Zm0,0" transform="translate(-315.18 -158.319)" fill="#82c6f9"/>
  <path id="Caminho_1153" data-name="Caminho 1153" d="M353.5,210.615h-.538a.823.823,0,1,1,0-1.647h.538a.823.823,0,1,1,0,1.647Zm0,0" transform="translate(-315.18 -187.09)" fill="#82c6f9"/>
  <path id="Caminho_1154" data-name="Caminho 1154" d="M353.5,242.757h-.538a.824.824,0,1,1,0-1.647h.538a.824.824,0,0,1,0,1.647Zm0,0" transform="translate(-315.18 -215.858)" fill="#82c6f9"/>
  <path id="Caminho_1155" data-name="Caminho 1155" d="M353.5,274.9h-.538a.823.823,0,1,1,0-1.647h.538a.823.823,0,1,1,0,1.647Zm0,0" transform="translate(-315.18 -244.628)" fill="#abe4fe"/>
  <path id="Caminho_1156" data-name="Caminho 1156" d="M392.033,146.326H391.5a.823.823,0,1,1,0-1.647h.538a.823.823,0,1,1,0,1.647Zm0,0" transform="translate(-349.671 -129.548)" fill="#82c6f9"/>
  <path id="Caminho_1157" data-name="Caminho 1157" d="M392.033,178.471H391.5a.823.823,0,1,1,0-1.647h.538a.823.823,0,1,1,0,1.647Zm0,0" transform="translate(-349.671 -158.319)" fill="#82c6f9"/>
  <path id="Caminho_1158" data-name="Caminho 1158" d="M392.033,210.615H391.5a.823.823,0,1,1,0-1.647h.538a.823.823,0,1,1,0,1.647Zm0,0" transform="translate(-349.671 -187.09)" fill="#82c6f9"/>
  <path id="Caminho_1159" data-name="Caminho 1159" d="M392.033,242.757H391.5a.824.824,0,0,1,0-1.647h.538a.824.824,0,0,1,0,1.647Zm0,0" transform="translate(-349.671 -215.858)" fill="#82c6f9"/>
  <path id="Caminho_1160" data-name="Caminho 1160" d="M392.033,274.9H391.5a.823.823,0,1,1,0-1.647h.538a.823.823,0,1,1,0,1.647Zm0,0" transform="translate(-349.671 -244.628)" fill="#abe4fe"/>
  <path id="Caminho_1161" data-name="Caminho 1161" d="M233.746,379.736H210.928a.513.513,0,0,1-.513-.513v-2.488a.513.513,0,0,1,.513-.513h22.818a.513.513,0,0,1,.513.513v2.488A.513.513,0,0,1,233.746,379.736Zm0,0" transform="translate(-188.331 -336.791)" fill="#d9f5ff"/>
  <path id="Caminho_1162" data-name="Caminho 1162" d="M217.2,379.224v-2.488a.513.513,0,0,1,.513-.513h-6.785a.513.513,0,0,0-.513.513v2.488a.513.513,0,0,0,.513.513h6.785A.513.513,0,0,1,217.2,379.224Zm0,0" transform="translate(-188.331 -336.791)" fill="#abe4fe"/>
  <path id="Caminho_1163" data-name="Caminho 1163" d="M398.472,379.224v-2.488a.513.513,0,0,0-.513-.513H394.4a.513.513,0,0,0-.513.513v2.488a.513.513,0,0,0,.513.513h3.563A.513.513,0,0,0,398.472,379.224Zm0,0" transform="translate(-352.545 -336.791)" fill="#f9b50b"/>
  <path id="Caminho_1164" data-name="Caminho 1164" d="M19.3,314.737c3.125-2.014-1.407-4.671-1.474-4.71a28.128,28.128,0,0,0-9.687-1.738,25.749,25.749,0,0,0,10.37,14.654h4.232c-4.957-3.124-5.783-6.7-3.441-8.206Zm0,0" transform="translate(-7.282 -275.986)" fill="#5bbf02"/>
  <path id="Caminho_1165" data-name="Caminho 1165" d="M17.4,128.688l-1.194-.01a4.723,4.723,0,0,0-2.4.633l-12.124,7a4.384,4.384,0,0,0-1,.795l-.383.408a25.948,25.948,0,0,0-.22,2.8l2.163-.507a4.369,4.369,0,0,0,1.19-.471l12.124-7a4.729,4.729,0,0,0,1.748-1.762l.589-1.039a.568.568,0,0,0-.49-.848Zm0,0" transform="translate(-0.066 -115.226)" fill="#d9f5ff"/>
  <path id="Caminho_1166" data-name="Caminho 1166" d="M3.854,189.445,1.68,190.7a4.384,4.384,0,0,0-1,.795l-.383.408a25.948,25.948,0,0,0-.22,2.8l2.163-.507a4.37,4.37,0,0,0,1.19-.471l2.084-1.2a1.934,1.934,0,0,1-1.657-3.078Zm0,0" transform="translate(-0.066 -169.615)" fill="#abe4fe"/>
</svg>
