<svg id="icon-reserva" xmlns="http://www.w3.org/2000/svg" width="51.376" height="53.682" viewBox="0 0 51.376 53.682">
  <path id="Caminho_284" data-name="Caminho 284" d="M1.678,52.039H49.7a2.1,2.1,0,0,1,1.055.287,25.688,25.688,0,1,0-50.131,0,2.1,2.1,0,0,1,1.055-.287Zm0,0" transform="translate(0 -18.798)" fill="#83d912"/>
  <path id="Caminho_285" data-name="Caminho 285" d="M63.438,431.5a25.688,25.688,0,0,0,38.073,0Zm0,0" transform="translate(-56.786 -386.258)" fill="#554cbf"/>
  <path id="Caminho_286" data-name="Caminho 286" d="M77.595,438.477a5.191,5.191,0,0,1-.665-5.987,1.787,1.787,0,0,0-.081-1.843c-.032-.049-.062-.1-.091-.147H63.438a25.653,25.653,0,0,0,14.157,7.977Zm0,0" transform="translate(-56.786 -385.363)" fill="#483ba8"/>
  <path id="Caminho_287" data-name="Caminho 287" d="M54.835,316.035H6.814a2.1,2.1,0,0,0-1.076.3A25.648,25.648,0,0,0,12.807,329.1H48.842a25.647,25.647,0,0,0,7.069-12.763,2.1,2.1,0,0,0-1.076-.3Zm0,0" transform="translate(-5.137 -282.899)" fill="#3c2b8e"/>
  <path id="Caminho_288" data-name="Caminho 288" d="M25.945,316.035H6.814a2.1,2.1,0,0,0-1.076.3A25.648,25.648,0,0,0,12.807,329.1H25.5a1.851,1.851,0,0,0-.3-.913c-1.859-2.871.747-5.567.747-5.567Zm0,0" transform="translate(-5.137 -282.899)" fill="#2c217c"/>
  <path id="Caminho_289" data-name="Caminho 289" d="M67.509,38.827H25.841a2.4,2.4,0,0,1-2.4-2.4V4.376a2.4,2.4,0,0,1,2.4-2.4H67.509a2.4,2.4,0,0,1,2.4,2.4V36.432A2.4,2.4,0,0,1,67.509,38.827Zm0,0" transform="translate(-20.987 -1.773)" fill="#554cbf"/>
  <path id="Caminho_290" data-name="Caminho 290" d="M30.916,36.432V4.375a2.4,2.4,0,0,1,2.4-2.4h-7.47a2.4,2.4,0,0,0-2.4,2.4V36.432a2.4,2.4,0,0,0,2.4,2.4h7.47A2.4,2.4,0,0,1,30.916,36.432Zm0,0" transform="translate(-20.987 -1.773)" fill="#483ba8"/>
  <path id="Caminho_291" data-name="Caminho 291" d="M231.423,27.371V40.043l-7.591,6.372v2.77h7.494l2.872,3.458h12.42V27.371Zm0,0" transform="translate(-200.363 -24.501)" fill="#2299f2"/>
  <path id="Caminho_292" data-name="Caminho 292" d="M48.84,27.371V46.415H67.187l7.591-6.372V27.371Zm0,0" transform="translate(-43.719 -24.501)" fill="#83d912"/>
  <path id="Caminho_293" data-name="Caminho 293" d="M48.84,27.371h4.808V46.415H48.84Zm0,0" transform="translate(-43.719 -24.501)" fill="#5bbf02"/>
  <path id="Caminho_294" data-name="Caminho 294" d="M77.554,135.982l-2.872-3.458H67.187v-2.77L48.84,120.472v15.51Zm0,0" transform="translate(-43.719 -107.841)" fill="#fbc840"/>
  <path id="Caminho_295" data-name="Caminho 295" d="M48.84,120.473v15.51h4.808V122.905Zm0,0" transform="translate(-43.719 -107.842)" fill="#f9b50b"/>
  <path id="Caminho_296" data-name="Caminho 296" d="M103.111,353.41H68.479a1.331,1.331,0,1,0,0,2.663h34.632a1.331,1.331,0,0,0,0-2.663Zm0,0" transform="translate(-60.107 -316.355)" fill="#483ba8"/>
  <path id="Caminho_297" data-name="Caminho 297" d="M79.586,354.741a1.331,1.331,0,0,1,1.331-1.331H68.48a1.331,1.331,0,0,0,0,2.663H80.917A1.331,1.331,0,0,1,79.586,354.741Zm0,0" transform="translate(-60.109 -316.355)" fill="#3c2b8e"/>
  <path id="Caminho_298" data-name="Caminho 298" d="M156.718,297.976a1.331,1.331,0,0,0-1.331-1.331H134.624a1.331,1.331,0,0,0,0,2.663h20.762A1.331,1.331,0,0,0,156.718,297.976Zm0,0" transform="translate(-119.318 -265.542)" fill="#483ba8"/>
  <g id="Grupo_24" data-name="Grupo 24" transform="translate(6.302 31.694)">
    <path id="Caminho_299" data-name="Caminho 299" d="M388.994,303.766a.739.739,0,1,1,.738-.739A.74.74,0,0,1,388.994,303.766Zm0,0" transform="translate(-353.848 -302.287)" fill="#2299f2"/>
    <path id="Caminho_300" data-name="Caminho 300" d="M416.54,303.764a.739.739,0,1,1,.74-.739A.74.74,0,0,1,416.54,303.764Zm0,0" transform="translate(-378.507 -302.284)" fill="#2299f2"/>
    <path id="Caminho_301" data-name="Caminho 301" d="M60.841,303.772a.739.739,0,1,1,.739-.739A.739.739,0,0,1,60.841,303.772Zm0,0" transform="translate(-60.102 -302.293)" fill="#2299f2"/>
    <path id="Caminho_302" data-name="Caminho 302" d="M88.388,303.767a.739.739,0,1,1,.738-.739A.739.739,0,0,1,88.388,303.767Zm0,0" transform="translate(-84.76 -302.287)" fill="#2299f2"/>
  </g>
  <path id="Caminho_303" data-name="Caminho 303" d="M208.98,296.648h7.553v2.662H208.98Zm0,0" transform="translate(-187.069 -265.545)" fill="#3c2b8e"/>
  <path id="Caminho_304" data-name="Caminho 304" d="M358.391,221.5a.736.736,0,0,1-.523-.217.617.617,0,0,0-.874,0,.74.74,0,0,1-1.046-1.046,2.1,2.1,0,0,1,2.966,0,.741.741,0,0,1-.523,1.263Zm0,0" transform="translate(-318.434 -196.6)" fill="#82c6f9"/>
  <path id="Caminho_305" data-name="Caminho 305" d="M328.929,171.127a6.055,6.055,0,0,0-8.553,0,.74.74,0,0,1-1.046-1.046,7.535,7.535,0,0,1,10.644,0,.74.74,0,0,1-1.046,1.046Zm0,0" transform="translate(-285.656 -150.278)" fill="#82c6f9"/>
  <path id="Caminho_306" data-name="Caminho 306" d="M343.4,196.184a3.33,3.33,0,0,0-4.713,0,.74.74,0,1,1-1.046-1.046,4.809,4.809,0,0,1,6.8,0,.74.74,0,0,1-1.046,1.046Zm0,0" transform="translate(-302.045 -173.416)" fill="#82c6f9"/>
  <path id="Caminho_307" data-name="Caminho 307" d="M75.512,40.734a.987.987,0,0,0,.353-.756V27.372H73.893V39.518l-6.84,5.726L48.84,36.029v2.21L66.2,47.023v2.164a.986.986,0,0,0,.986.986h7.031l2.053,2.471h2.564l-3.4-4.087a.985.985,0,0,0-.759-.356H68.174V46.877Zm0,0" transform="translate(-43.719 -24.502)" fill="#d9f5ff"/>
  <path id="Caminho_308" data-name="Caminho 308" d="M118.209,125.513a4.024,4.024,0,1,1-4.024-4.024A4.025,4.025,0,0,1,118.209,125.513Zm0,0" transform="translate(-98.61 -108.75)" fill="#f9b50b"/>
  <path id="Caminho_309" data-name="Caminho 309" d="M115.4,127.111a2.812,2.812,0,0,1-.553-5.568,4.074,4.074,0,0,0-.66-.055,4.028,4.028,0,1,0,3.969,3.365A2.812,2.812,0,0,1,115.4,127.111Zm0,0" transform="translate(-98.613 -108.75)" fill="#ef9f35"/>
  <path id="Caminho_310" data-name="Caminho 310" d="M90.331,0A6.805,6.805,0,0,0,85,11.03l4.179,5.277a1.475,1.475,0,0,0,2.313,0l4.179-5.277A6.805,6.805,0,0,0,90.331,0Zm0,0" transform="translate(-74.756)" fill="#f7577a"/>
  <path id="Caminho_311" data-name="Caminho 311" d="M91.49,25.147l4.179-5.277c-1.234.5-1.667-.129-1.818-.606a.6.6,0,0,0-.535-.412,1.1,1.1,0,0,1-1.051-.981.614.614,0,0,0-.456-.47,3.725,3.725,0,0,1-2.826-3.612.6.6,0,0,0-.365-.517,1.059,1.059,0,0,1-.713-1.086.6.6,0,0,0-.426-.585A1.293,1.293,0,0,1,86.7,9.875,6.817,6.817,0,0,0,85,19.869l4.179,5.278a1.475,1.475,0,0,0,2.313,0Zm0,0" transform="translate(-74.759 -8.84)" fill="#d93a59"/>
  <path id="Caminho_312" data-name="Caminho 312" d="M108.96,30.4a4.636,4.636,0,1,1,4.636-4.636A4.641,4.641,0,0,1,108.96,30.4Zm0-7.3a2.664,2.664,0,1,0,2.664,2.664A2.667,2.667,0,0,0,108.96,23.1Zm0,0" transform="translate(-93.386 -18.913)" fill="#d93a59"/>
  <path id="Caminho_313" data-name="Caminho 313" d="M112.248,35.556a.612.612,0,0,0-.3-.106,1.1,1.1,0,0,1-1.051-.981.579.579,0,0,0-.107-.24,2.663,2.663,0,1,1-3.29-4.163.6.6,0,0,0-.249-.2,1.058,1.058,0,0,1-.713-1.085.564.564,0,0,0-.118-.367,4.634,4.634,0,1,0,5.833,7.138Zm0,0" transform="translate(-93.386 -25.438)" fill="#ba1c37"/>
  <path id="Caminho_314" data-name="Caminho 314" d="M48.84,109.934v2.21l4.808,2.433a1.773,1.773,0,0,1,0-2.21Zm0,0" transform="translate(-43.719 -98.408)" fill="#abe4fe"/>
</svg>
