<svg id="user-account" xmlns="http://www.w3.org/2000/svg" width="44" height="45" viewBox="0 0 44 45">
  <g id="Elipse_92" data-name="Elipse 92" fill="#2980b9" stroke="#707070" stroke-width="1">
    <ellipse cx="22" cy="22.5" rx="22" ry="22.5" stroke="none"/>
    <ellipse cx="22" cy="22.5" rx="21.5" ry="22" fill="none"/>
  </g>
  <g id="User" transform="translate(8.395 8.229)">
    <path id="Caminho_3938" data-name="Caminho 3938" d="M22.151,18.138a7.8,7.8,0,1,0-9.011,0A12.691,12.691,0,0,0,4,30.3a.975.975,0,0,0,.975.975H30.317a.975.975,0,0,0,.975-.975,12.691,12.691,0,0,0-9.14-12.167ZM11.8,11.785a5.848,5.848,0,1,1,5.848,5.848A5.848,5.848,0,0,1,11.8,11.785ZM5.993,29.33a10.736,10.736,0,0,1,10.678-9.747H18.62A10.736,10.736,0,0,1,29.3,29.33Z" transform="translate(-4 -3.976)" fill="#fff"/>
  </g>
</svg>
