<svg id="icon-wifi-colorido" xmlns="http://www.w3.org/2000/svg" width="168.926" height="153.528" viewBox="0 0 168.926 153.528">
  <path id="Caminho_5312" data-name="Caminho 5312" d="M256.367,303.011v21.2l13.177,10.25-6.191,7.958-11.6-9.02h-.427V272.91h5.037v17.606l31.879,23.34-5.955,8.133Z" transform="translate(-166.867 -188.894)" fill="#38336b"/>
  <path id="Caminho_5313" data-name="Caminho 5313" d="M178.888,272.91V333.4h-.434l-11.6,9.02-6.19-7.958,13.177-10.25v-20.95l-25.507,19.468-6.116-8.015,31.624-24.136V272.91Z" transform="translate(-94.425 -188.894)" fill="#6b61b1"/>
  <path id="Caminho_5314" data-name="Caminho 5314" d="M291.735,213.784l-7.844,6.331a40.812,40.812,0,0,0-31.9-15.244c-.222,0-.444,0-.662.007V194.8c.222-.007.44-.007.662-.007A50.843,50.843,0,0,1,291.735,213.784Z" transform="translate(-166.867 -137.027)" fill="#53cb8a"/>
  <path id="Caminho_5315" data-name="Caminho 5315" d="M174.128,194.81v10.082a40.79,40.79,0,0,0-31.234,15.237L135.05,213.8A50.821,50.821,0,0,1,174.128,194.81Z" transform="translate(-89.665 -137.041)" fill="#53cb8a"/>
  <path id="Caminho_5316" data-name="Caminho 5316" d="M312.927,137.255l-7.743,6.459a69.078,69.078,0,0,0-53.192-24.9c-.222,0-.44,0-.662,0V108.733c.222,0,.44,0,.662,0A79.142,79.142,0,0,1,312.927,137.255Z" transform="translate(-166.867 -79.889)" fill="#53cb8a"/>
  <path id="Caminho_5317" data-name="Caminho 5317" d="M132.26,108.74v10.082a69.074,69.074,0,0,0-52.527,24.9l-7.743-6.459a79.131,79.131,0,0,1,60.27-28.522Z" transform="translate(-47.797 -79.896)" fill="#53cb8a"/>
  <path id="Caminho_5318" data-name="Caminho 5318" d="M335.793,61.944l-7.679,6.536a100.753,100.753,0,0,0-76.25-35.488h-.534V22.91h.588a110.477,110.477,0,0,1,83.875,39.034Z" transform="translate(-166.867 -22.91)" fill="#53cb8a"/>
  <path id="Caminho_5319" data-name="Caminho 5319" d="M84.463,22.91V32.992h-.017A100.758,100.758,0,0,0,8.365,67.647l-.756.874L0,61.9l.76-.874a110.458,110.458,0,0,1,83.7-38.12Z" transform="translate(0 -22.91)" fill="#53cb8a"/>
</svg>
