<svg xmlns="http://www.w3.org/2000/svg" width="19.503" height="19.795" viewBox="0 0 19.503 19.795">
  <g id="input-code" transform="translate(-1.849)">
    <path id="Caminho_3943" data-name="Caminho 3943" d="M16.589,14.271H11.318A1.322,1.322,0,0,1,10,12.953V10.318A1.322,1.322,0,0,1,11.318,9h5.271a1.322,1.322,0,0,1,1.318,1.318v2.636A1.322,1.322,0,0,1,16.589,14.271Z" transform="translate(-2.353 -2.729)" fill="none" stroke="#9f9f9f" stroke-linecap="round" stroke-linejoin="round" stroke-miterlimit="10" stroke-width="2"/>
    <path id="Caminho_3944" data-name="Caminho 3944" d="M17.271,6.271H12V3.636A2.643,2.643,0,0,1,14.636,1h0a2.643,2.643,0,0,1,2.636,2.636Z" transform="translate(-3.036)" fill="none" stroke="#9f9f9f" stroke-linecap="round" stroke-linejoin="round" stroke-miterlimit="10" stroke-width="2"/>
    <line id="Linha_23" data-name="Linha 23" y2="1.318" transform="translate(11.6 8.248)" fill="none" stroke="#9f9f9f" stroke-linecap="round" stroke-linejoin="round" stroke-miterlimit="10" stroke-width="2"/>
    <line id="Linha_24" data-name="Linha 24" y2="1.977" transform="translate(11.6 14.837)" fill="none" stroke="#9f9f9f" stroke-linecap="round" stroke-linejoin="round" stroke-miterlimit="10" stroke-width="2"/>
    <line id="Linha_25" data-name="Linha 25" x2="1.911" y2="0.593" transform="translate(9.689 16.221)" fill="none" stroke="#9f9f9f" stroke-linecap="round" stroke-linejoin="round" stroke-miterlimit="10" stroke-width="2"/>
    <line id="Linha_26" data-name="Linha 26" y1="1.581" x2="1.186" transform="translate(10.414 16.814)" fill="none" stroke="#9f9f9f" stroke-linecap="round" stroke-linejoin="round" stroke-miterlimit="10" stroke-width="2"/>
    <line id="Linha_27" data-name="Linha 27" x1="1.186" y1="1.581" transform="translate(11.6 16.814)" fill="none" stroke="#9f9f9f" stroke-linecap="round" stroke-linejoin="round" stroke-miterlimit="10" stroke-width="2"/>
    <line id="Linha_28" data-name="Linha 28" x1="1.911" y2="0.593" transform="translate(11.6 16.221)" fill="none" stroke="#9f9f9f" stroke-linecap="round" stroke-linejoin="round" stroke-miterlimit="10" stroke-width="2"/>
    <line id="Linha_29" data-name="Linha 29" y2="1.977" transform="translate(18.189 14.837)" fill="none" stroke="#9f9f9f" stroke-linecap="round" stroke-linejoin="round" stroke-miterlimit="10" stroke-width="2"/>
    <line id="Linha_30" data-name="Linha 30" x2="1.911" y2="0.593" transform="translate(16.278 16.221)" fill="none" stroke="#9f9f9f" stroke-linecap="round" stroke-linejoin="round" stroke-miterlimit="10" stroke-width="2"/>
    <line id="Linha_31" data-name="Linha 31" y1="1.581" x2="1.186" transform="translate(17.003 16.814)" fill="none" stroke="#9f9f9f" stroke-linecap="round" stroke-linejoin="round" stroke-miterlimit="10" stroke-width="2"/>
    <line id="Linha_32" data-name="Linha 32" x1="1.186" y1="1.581" transform="translate(18.189 16.814)" fill="none" stroke="#9f9f9f" stroke-linecap="round" stroke-linejoin="round" stroke-miterlimit="10" stroke-width="2"/>
    <line id="Linha_33" data-name="Linha 33" x1="1.911" y2="0.593" transform="translate(18.189 16.221)" fill="none" stroke="#9f9f9f" stroke-linecap="round" stroke-linejoin="round" stroke-miterlimit="10" stroke-width="2"/>
    <line id="Linha_34" data-name="Linha 34" y2="1.977" transform="translate(5.011 14.837)" fill="none" stroke="#9f9f9f" stroke-linecap="round" stroke-linejoin="round" stroke-miterlimit="10" stroke-width="2"/>
    <line id="Linha_35" data-name="Linha 35" x2="1.911" y2="0.593" transform="translate(3.1 16.221)" fill="none" stroke="#9f9f9f" stroke-linecap="round" stroke-linejoin="round" stroke-miterlimit="10" stroke-width="2"/>
    <line id="Linha_36" data-name="Linha 36" y1="1.581" x2="1.186" transform="translate(3.825 16.814)" fill="none" stroke="#9f9f9f" stroke-linecap="round" stroke-linejoin="round" stroke-miterlimit="10" stroke-width="2"/>
    <line id="Linha_37" data-name="Linha 37" x1="1.186" y1="1.581" transform="translate(5.011 16.814)" fill="none" stroke="#9f9f9f" stroke-linecap="round" stroke-linejoin="round" stroke-miterlimit="10" stroke-width="2"/>
    <line id="Linha_38" data-name="Linha 38" x1="1.911" y2="0.593" transform="translate(5.011 16.221)" fill="none" stroke="#9f9f9f" stroke-linecap="round" stroke-linejoin="round" stroke-miterlimit="10" stroke-width="2"/>
  </g>
</svg>
