<svg id="input-pessoas" xmlns="http://www.w3.org/2000/svg" width="20.834" height="24.741" viewBox="0 0 20.834 24.741">
  <path id="Caminho_5271" data-name="Caminho 5271" d="M22.393,21.8H19.886a7.8,7.8,0,0,0-7.911-7.669A7.8,7.8,0,0,0,4.066,21.8H1.559A10.309,10.309,0,0,1,11.976,11.62,10.309,10.309,0,0,1,22.393,21.8Z" transform="translate(-1.559 2.945)" fill="#9f9f9f"/>
  <path id="Caminho_5272" data-name="Caminho 5272" d="M11.26,13.75a6.875,6.875,0,1,1,6.876-6.875A6.884,6.884,0,0,1,11.26,13.75Zm0-11.243a4.368,4.368,0,1,0,4.37,4.368A4.373,4.373,0,0,0,11.26,2.507Z" transform="translate(-0.843 0)" fill="#9f9f9f"/>
</svg>
