<svg id="input-quartos" xmlns="http://www.w3.org/2000/svg" width="22.7" height="18" viewBox="0 0 22.7 18">
  <g id="Grupo_1679" data-name="Grupo 1679">
    <path id="Caminho_5275" data-name="Caminho 5275" d="M20.882,62V55.66A2.663,2.663,0,0,0,18.222,53H4.433a2.663,2.663,0,0,0-2.66,2.66V62.02A2.664,2.664,0,0,0,0,64.527V69.4H1.773V71H3.547V69.4H19.153V71h1.773V69.4H22.7V64.527A2.664,2.664,0,0,0,20.882,62ZM3.547,55.66a.888.888,0,0,1,.887-.887H18.222a.888.888,0,0,1,.887.887v6.207h-.931V60.98a2.663,2.663,0,0,0-2.66-2.66H13.123A2.649,2.649,0,0,0,11.35,59a2.649,2.649,0,0,0-1.773-.68H7.094a2.663,2.663,0,0,0-2.66,2.66v.887H3.547ZM16.4,60.98v.887H12.236V60.98a.888.888,0,0,1,.887-.887h2.394A.888.888,0,0,1,16.4,60.98Zm-5.941,0v.887H6.207V60.98a.888.888,0,0,1,.887-.887H9.576A.888.888,0,0,1,10.463,60.98Zm10.463,6.65H1.773v-3.1a.888.888,0,0,1,.887-.887H20.039a.888.888,0,0,1,.887.887Z" transform="translate(0 -53)" fill="#9f9f9f"/>
  </g>
</svg>
