<svg xmlns="http://www.w3.org/2000/svg" width="13.738" height="19.95" viewBox="0 0 13.738 19.95">
  <g id="input-cadeado" transform="translate(-31.62)">
    <path id="Caminho_3941" data-name="Caminho 3941" d="M43.639,7.194h-.325V4.825a4.825,4.825,0,0,0-9.65,0V7.194h-.325A1.721,1.721,0,0,0,31.62,8.913v9.318a1.721,1.721,0,0,0,1.719,1.719h10.3a1.721,1.721,0,0,0,1.719-1.719V8.913A1.721,1.721,0,0,0,43.639,7.194Zm-8.5-2.369a3.351,3.351,0,0,1,6.7,0V7.194h-6.7Zm8.747,13.406a.249.249,0,0,1-.246.246h-10.3a.249.249,0,0,1-.246-.246V8.913a.249.249,0,0,1,.246-.246h10.3a.249.249,0,0,1,.246.246Z" fill="#9f9f9f"/>
    <path id="Caminho_3942" data-name="Caminho 3942" d="M94.784,116.309a.737.737,0,0,0-.737.737v2.821a.737.737,0,1,0,1.473,0v-2.821A.737.737,0,0,0,94.784,116.309Z" transform="translate(-56.295 -104.884)" fill="#9f9f9f"/>
  </g>
</svg>
