<svg id="input-calendario" xmlns="http://www.w3.org/2000/svg" width="22.539" height="22.539" viewBox="0 0 22.539 22.539">
  <g id="Grupo_73" data-name="Grupo 73">
    <g id="Grupo_72" data-name="Grupo 72">
      <circle id="Elipse_3" data-name="Elipse 3" cx="1.5" cy="1.5" r="1.5" transform="translate(11.539 11.539)" fill="#9f9f9f"/>
      <ellipse id="Elipse_4" data-name="Elipse 4" cx="1.5" cy="1" rx="1.5" ry="1" transform="translate(11.539 8.539)" fill="#9f9f9f"/>
      <ellipse id="Elipse_5" data-name="Elipse 5" cx="1" cy="1.5" rx="1" ry="1.5" transform="translate(8.539 11.539)" fill="#9f9f9f"/>
      <circle id="Elipse_6" data-name="Elipse 6" cx="1" cy="1" r="1" transform="translate(8.539 8.539)" fill="#9f9f9f"/>
      <circle id="Elipse_7" data-name="Elipse 7" cx="1" cy="1" r="1" transform="translate(8.539 15.539)" fill="#9f9f9f"/>
      <circle id="Elipse_8" data-name="Elipse 8" cx="1" cy="1" r="1" transform="translate(15.539 8.539)" fill="#9f9f9f"/>
      <circle id="Elipse_9" data-name="Elipse 9" cx="1" cy="1" r="1" transform="translate(4.539 8.539)" fill="#9f9f9f"/>
      <path id="Caminho_1772" data-name="Caminho 1772" d="M296.766,294a3.96,3.96,0,0,0-3.4,5.988l-2.106,2.106a.88.88,0,1,0,1.245,1.245l2.076-2.076A3.961,3.961,0,1,0,296.766,294Zm0,6.163a2.2,2.2,0,1,1,2.2-2.2A2.2,2.2,0,0,1,296.766,300.163Z" transform="translate(-278.189 -281.057)" fill="#9f9f9f"/>
      <circle id="Elipse_10" data-name="Elipse 10" cx="1" cy="1" r="1" transform="translate(4.539 15.539)" fill="#9f9f9f"/>
      <path id="Caminho_1773" data-name="Caminho 1773" d="M19.018,1.761H17.873V.88a.88.88,0,0,0-1.761,0v.88H12.106V.88a.88.88,0,1,0-1.761,0v.88H6.383V.88a.88.88,0,0,0-1.761,0v.88h-1.1A3.526,3.526,0,0,0,0,5.283V19.018a3.526,3.526,0,0,0,3.522,3.522H9.289a.88.88,0,0,0,0-1.761H3.522a1.763,1.763,0,0,1-1.761-1.761V5.283A1.763,1.763,0,0,1,3.522,3.522h1.1V4.4a.88.88,0,0,0,1.761,0v-.88h3.962V4.4a.88.88,0,1,0,1.761,0v-.88h4.006V4.4a.88.88,0,0,0,1.761,0v-.88h1.145a1.763,1.763,0,0,1,1.761,1.761v5.283a.88.88,0,0,0,1.761,0V5.283A3.526,3.526,0,0,0,19.018,1.761Z" fill="#9f9f9f"/>
      <ellipse id="Elipse_11" data-name="Elipse 11" cx="1" cy="1.5" rx="1" ry="1.5" transform="translate(4.539 11.539)" fill="#9f9f9f"/>
    </g>
  </g>
</svg>
