<svg id="input-origem-destino" xmlns="http://www.w3.org/2000/svg" width="24.5" height="24" viewBox="0 0 24.5 24">
  <g id="Grupo_69" data-name="Grupo 69">
    <path id="Caminho_1770" data-name="Caminho 1770" d="M17.887,28.334q-.574.924-1.251,1.925c3.8.568,5.744,1.786,5.744,2.391,0,.806-3.446,2.7-10.13,2.7s-10.131-1.89-10.131-2.7c0-.606,1.945-1.823,5.745-2.391q-.678-1-1.251-1.925C2.863,29.042,0,30.5,0,32.651c0,3.161,6.163,4.815,12.25,4.815S24.5,35.811,24.5,32.651C24.5,30.5,21.638,29.042,17.887,28.334Z" transform="translate(0 -13.466)" fill="#9f9f9f"/>
    <path id="Caminho_1771" data-name="Caminho 1771" d="M16.7,19.452a1.727,1.727,0,0,0,1.394-.707C20.175,15.9,23.86,10.47,23.86,7.632a7.164,7.164,0,1,0-14.328,0c0,2.838,3.685,8.269,5.769,11.113A1.732,1.732,0,0,0,16.7,19.452ZM13.716,7.491A2.98,2.98,0,1,1,16.7,10.47,2.98,2.98,0,0,1,13.716,7.491Z" transform="translate(-4.446 -0.468)" fill="#9f9f9f"/>
  </g>
</svg>
