<svg id="instagram" xmlns="http://www.w3.org/2000/svg" width="50.141" height="50.141" viewBox="0 0 50.141 50.141">
  <path id="Caminho_3932" data-name="Caminho 3932" d="M43.029,23.88H28.085a4.331,4.331,0,0,0-4.326,4.326V43.15a4.331,4.331,0,0,0,4.326,4.327H43.029a4.331,4.331,0,0,0,4.327-4.327V28.206A4.331,4.331,0,0,0,43.029,23.88ZM35.557,43.446a7.768,7.768,0,1,1,7.768-7.768A7.777,7.777,0,0,1,35.557,43.446Zm8.018-13.93a1.838,1.838,0,1,1,1.838-1.838A1.84,1.84,0,0,1,43.575,29.516Z" transform="translate(-10.487 -10.54)" fill="#6a453b"/>
  <path id="Caminho_3933" data-name="Caminho 3933" d="M41.335,36.971a4.485,4.485,0,1,0,4.485,4.485A4.491,4.491,0,0,0,41.335,36.971Z" transform="translate(-16.264 -16.318)" fill="#6a453b"/>
  <path id="Caminho_3934" data-name="Caminho 3934" d="M25.07,0a25.07,25.07,0,1,0,25.07,25.07A25.071,25.071,0,0,0,25.07,0ZM40.151,32.61a7.616,7.616,0,0,1-7.608,7.608H17.6A7.617,7.617,0,0,1,9.99,32.61V17.666A7.617,7.617,0,0,1,17.6,10.057H32.542a7.617,7.617,0,0,1,7.608,7.608Z" fill="#6a453b"/>
</svg>
