<svg xmlns="http://www.w3.org/2000/svg" width="56.141" height="56.141" viewBox="0 0 56.141 56.141">
  <g id="linkedin" transform="translate(0 0.001)">
    <circle id="Elipse_89" data-name="Elipse 89" cx="28.07" cy="28.07" r="28.07" transform="translate(0 -0.001)" fill="#007ab9"/>
    <g id="Grupo_506" data-name="Grupo 506" transform="translate(13.544 11.993)">
      <path id="Caminho_3935" data-name="Caminho 3935" d="M58.366,42.3V53.877h-6.71V43.08c0-2.711-.969-4.562-3.4-4.562a3.67,3.67,0,0,0-3.442,2.453,4.592,4.592,0,0,0-.222,1.635V53.876h-6.71s.09-18.287,0-20.18h6.711v2.86c-.014.023-.033.045-.045.066h.045v-.066a6.662,6.662,0,0,1,6.047-3.334c4.414,0,7.724,2.884,7.724,9.081Zm-27.5-18.335a3.5,3.5,0,1,0-.088,6.974h.044a3.5,3.5,0,1,0,.045-6.974Zm-3.4,29.908h6.708V33.7H27.467Z" transform="translate(-27.068 -23.969)" fill="#f1f2f2"/>
    </g>
  </g>
</svg>
