<?xml version="1.0" encoding="iso-8859-1"?>
<!-- Generator: Adobe Illustrator 16.0.0, SVG Export Plug-In . SVG Version: 6.00 Build 0)  -->
<!DOCTYPE svg PUBLIC "-//W3C//DTD SVG 1.1//EN" "http://www.w3.org/Graphics/SVG/1.1/DTD/svg11.dtd">
<svg version="1.1" id="Capa_1" xmlns="http://www.w3.org/2000/svg" xmlns:xlink="http://www.w3.org/1999/xlink" x="0px" y="0px"
	 width="590.325px" height="590.325px" viewBox="0 0 590.325 590.325" style="enable-background:new 0 0 590.325 590.325;"
	 xml:space="preserve">
<g>
	<g id="Layer_1_4_">
		<g>
			<path d="M443.7,35.7c-80.325,0-146.625,65.025-146.625,146.625c0,67.575,103.274,242.25,136.425,297.075
				c2.55,3.824,6.375,5.1,10.2,5.1s7.649-2.55,10.2-5.1c33.149-54.825,136.425-229.5,136.425-297.075
				C590.325,102,525.3,35.7,443.7,35.7z M499.8,170.85l-24.225,22.95c-1.275,1.275-1.275,2.55-1.275,2.55l5.101,33.15
				c0,1.275,0,2.55-1.275,3.825c-1.275,1.275-2.55,1.275-3.825,0l-29.325-15.3c-1.274,0-2.55,0-3.824,0l-29.325,15.3
				c-1.275,0-2.55,0-3.825,0c-1.274-1.275-1.274-2.55-1.274-3.825l5.1-33.15c0-1.275,0-2.55-1.275-2.55l-21.675-22.95
				c-1.275-1.275-1.275-2.55-1.275-3.825s1.275-2.55,2.551-2.55l33.149-5.1c1.275,0,2.55-1.275,2.55-2.55l15.301-30.6
				c0-1.275,1.274-2.55,3.824-2.55c2.551,0,2.551,1.275,3.825,2.55l15.3,30.6c0,1.275,1.275,1.275,2.551,2.55l33.149,5.1
				c1.275,0,2.55,1.275,2.55,2.55C501.075,168.3,501.075,169.575,499.8,170.85z"/>
			<path d="M95.625,516.375h-76.5C8.925,516.375,0,525.3,0,535.5s8.925,19.125,19.125,19.125h76.5
				c10.2,0,19.125-8.925,19.125-19.125S105.825,516.375,95.625,516.375z"/>
			<path d="M261.375,516.375h-76.5c-10.2,0-19.125,8.925-19.125,19.125s8.925,19.125,19.125,19.125h76.5
				c10.2,0,19.125-8.925,19.125-19.125S271.575,516.375,261.375,516.375z"/>
			<path d="M427.125,516.375h-76.5c-10.2,0-19.125,8.925-19.125,19.125s8.925,19.125,19.125,19.125h76.5
				c10.2,0,19.125-8.925,19.125-19.125S437.325,516.375,427.125,516.375z"/>
		</g>
	</g>
</g>
<g>
</g>
<g>
</g>
<g>
</g>
<g>
</g>
<g>
</g>
<g>
</g>
<g>
</g>
<g>
</g>
<g>
</g>
<g>
</g>
<g>
</g>
<g>
</g>
<g>
</g>
<g>
</g>
<g>
</g>
</svg>
