<svg xmlns="http://www.w3.org/2000/svg" width="309.971" height="450.697" viewBox="0 0 309.971 450.697">
  <g id="Group_3" data-name="Group 3" transform="translate(-157.092 -55.116)">
    <g id="Group_2" data-name="Group 2" transform="translate(158.592 56.616)">
      <g id="Group_1" data-name="Group 1" transform="translate(25.073 25.071)">
        <path id="Path_1" data-name="Path 1" d="M301.935,71.547A128.421,128.421,0,0,0,173.524,199.96c0,70.913,128.411,275.462,128.411,275.462S430.348,270.872,430.348,199.96A128.421,128.421,0,0,0,301.935,71.547Zm0,195.44a67.027,67.027,0,1,1,67.027-67.027A67.02,67.02,0,0,1,301.935,266.987Z" transform="translate(-173.524 -71.547)" fill="#1abc9c"/>
      </g>
      <path id="Path_2" data-name="Path 2" d="M282.587,485.561C252.077,435.717,158.592,277.485,158.592,210.1c0-84.631,68.852-153.482,153.484-153.482S465.563,125.467,465.563,210.1c0,75.937-118.716,267.231-132.251,288.794h0c-6.135,9.774-21.236,5.427-21.236-6.114V210.1" transform="translate(-158.592 -56.616)" fill="none" stroke="#2980b9" stroke-linecap="round" stroke-linejoin="round" stroke-width="3"/>
      <path id="Path_3" data-name="Path 3" d="M297.4,187.459c-.28,19.087-8.023,53.75-8.023,53.75l16.3,12.095-.213,14.467-24.225-6.434-24.4,5.722.212-14.467L273.7,240.979s-6.723-34.875-6.444-53.962l.017-1.155-64.337,25.687.178-12.157a21.6,21.6,0,0,1,12.424-18.057c8.94-4.309,37.522-21.278,52.243-30.122l.4-27.6s2.455-26.594,15.465-26.4,14.684,26.846,14.684,26.846l-.4,27.6c14.456,9.272,42.529,27.071,51.337,31.638a21.6,21.6,0,0,1,11.892,18.415l-.178,12.157L297.421,186.3Z" transform="translate(-128.479 -29.047)" fill="#2980b9"/>
    </g>
  </g>
</svg>
