<svg xmlns="http://www.w3.org/2000/svg" width="1840.395" height="724.93" viewBox="0 0 1840.395 724.93">
  <g id="logo-horizontal" transform="translate(-1563.922 -98)">
    <g id="Grupo_3" data-name="Grupo 3" transform="translate(1563.922 98)">
      <g id="Grupo_2" data-name="Grupo 2">
        <g id="Grupo_1" data-name="Grupo 1" transform="translate(44.855 44.807)">
          <path id="Caminho_1" data-name="Caminho 1" d="M717.524,206.56c-113.344,0-205.221,91.9-205.194,205.242,0,113.311,205.194,440.174,205.194,440.174S922.718,525.065,922.718,411.8c0-113.392-91.9-205.268-205.242-205.242Zm0,312.305A107.063,107.063,0,1,1,824.587,411.8,107.063,107.063,0,0,1,717.524,518.865Z" transform="translate(-512.33 -206.56)" fill="#1abc9c"/>
        </g>
        <g id="Caminho_2" data-name="Caminho 2">
          <path id="Caminho_5307" data-name="Caminho 5307" d="M752.973,903.45a23.787,23.787,0,0,1-6.7-.959,22.691,22.691,0,0,1-16.762-22.259V428.569a4.794,4.794,0,1,1,9.588,0V880.232a13.567,13.567,0,0,0,25.072,7.223c21.557-34.34,210.611-338.959,210.611-458.934,0-132.631-107.878-240.461-240.477-240.461S493.848,295.938,493.848,428.569c0,106.824,151.1,362,197.428,437.665a4.8,4.8,0,1,1-8.182,5.018C636.45,795,484.26,537.853,484.26,428.569c0-137.872,112.161-250.049,250.049-250.049S984.373,290.649,984.373,428.569c0,122.659-190.365,429.451-212.065,464.031a22.659,22.659,0,0,1-19.335,10.85Z" transform="translate(-484.26 -178.52)" fill="#2980b9"/>
        </g>
        <path id="Caminho_3" data-name="Caminho 3" d="M712.669,393.86c-.447,30.489-12.784,85.89-12.784,85.89l26.047,19.319-.336,23.122-38.782-10.275-38.99,9.14.336-23.122,26.606-18.552s-10.754-55.737-10.307-86.29V391.24L561.71,432.371,562,412.94a34.532,34.532,0,0,1,19.847-28.859c14.286-6.887,59.971-33.989,83.493-48.13l.639-44.1s3.915-42.49,24.7-42.186,23.474,42.905,23.474,42.905l-.639,44.1c23.091,14.813,67.961,43.257,82.023,50.559a34.532,34.532,0,0,1,19.016,29.418l-.288,19.431L712.7,392.007Z" transform="translate(-437.948 -135.982)" fill="#2980b9"/>
      </g>
    </g>
    <path id="Caminho_4" data-name="Caminho 4" d="M532.032,1089.987c.879-116.967,36.038-308.679,136.3-386.123,22.854-19.369,48.375-30.8,79.14-30.8,40.464,0,71.26,19.337,92.356,53.649,26.37,43.1,29.917,90.6,15.7,138.973-36.917,128.394-186.438,250.635-323.653,250.635ZM504.753,952.8c0-6.278-.879-12.306-.879-18.458a963.343,963.343,0,0,1,0-142.457c.879-16.732,3.516-33.433,4.395-50.228,0-10.548-6.278-18.49-17.58-18.49-7.911,0-14.064,5.305-17.58,14.095-9.669,19.338-16.7,81.777-17.58,104.661-6.279,79.14,0,157.4,9.669,235.692.879,6.278,0,9.669-5.274,13.185-9.669,5.274-13.185,13.185-8.79,21.1a53.363,53.363,0,0,0,14.974,13.185c4.395,2.636,7.032,4.394,7.911,9.668a881.221,881.221,0,0,0,29.006,115.209c3.516,11.458,14.943,13.185,25.522,13.185a38.4,38.4,0,0,0,19.338-4.4c6.278-2.636,8.79-6.278,7.032-13.184l-10.548-50.227c-3.516-18.49-6.278-36.948-9.669-56.286h8.79c18.459-1.758,36.917-.879,55.407-3.547,126.636-20.217,247.119-104.63,298.225-224.265,12.306-30.764,20.217-63.318,14.943-96.719C900.638,735.351,854.9,684.339,781.034,657.969a158.439,158.439,0,0,0-51.922-9.669c-118.725,0-182.074,148.611-208.444,244.482C514.39,913,511,933.246,505.726,952.427Zm440.62,136.242c-22.854,39.585-43.1,72.2-82.656,96.75-7.063,5.274-14.974,7.911-23.764,12.306a72.614,72.614,0,0,1-.879-43.1c7.911-35.191,41.344-100.266,83.566-100.266,13.185,0,24.612,7.911,26.369,20.248a19.651,19.651,0,0,1-2.637,14.032Zm138.973-3.516a17.206,17.206,0,0,0-7.063-3.516c-2.637,0-4.395,1.758-7.032,4.4-21.974,26.37-45.707,51.012-73.866,71.229a20.161,20.161,0,0,0-4.4,2.637c-.879,0-1.758-.879-2.637-.879,4.4-23.732,7.911-48.375,12.306-72.2,2.637-10.579,0-17.58-7.911-23.764-4.4-3.516-16.7-10.548-22.854-10.548a10.735,10.735,0,0,0-8.79,4.4c-16.732-17.579-43.1-34.312-68.592-34.312-20.248,0-40.464,12.337-54.528,26.369-30.8,30.8-49.254,67.744-47.5,111.693.879,36.949,36.917,69.5,73.866,69.5,35.191,0,71.229-37.67,90.6-64.2,8.79,19.337,21.974,29.885,36.917,29.885,34.312,0,80.929-65.076,98.508-95.872,3.516-6.278.848-10.548-7.063-14.943Zm102.872-40.464c-44.828,0-72.2,31.675-94.176,65.075v-7.032l2.637-58.044a22.162,22.162,0,0,0-21.127-21.975c-6.279,0-10.548,4.395-13.185,14.943-7.032,26.369-8.79,53.649-10.548,80.929a575.013,575.013,0,0,0,2.637,102.9c1.758,21.974,14.064,32.522,36.07,32.522,7.911,0,11.427-4.4,13.185-14.064,2.637-20.216,4.4-41.343,7.911-60.681,7.032-43.949,31.643-102.9,79.14-117.846a38.278,38.278,0,0,1,8.79-1.758,9.668,9.668,0,0,1,8.79,4.4,7.661,7.661,0,0,0,5.274,2.637h10.548c-7-14.974-19.306-21.975-36.038-21.975Zm179.437-181.1c-12.337-19.337-30.8-19.337-50.227-19.337h-30.8c-7.032.879-14.064.879-21.1,1.758a15.962,15.962,0,0,0,.879-5.305c5.274-16.7,10.548-33.4,14.943-50.227a15.039,15.039,0,0,0-.879-8.79A25.114,25.114,0,0,0,1257.5,770.6c-7.032-.879-9.669,6.278-11.427,11.458-8.79,21.1-16.7,43.07-25.522,64.2-.879,2.637-3.516,6.279-5.274,6.279-18.459,3.516-36.917,7.032-56.286,9.669h-6.278a21.724,21.724,0,0,1-15.7-5.274c-1.758-3.516-6.279-3.516-9.669-3.516a6.281,6.281,0,0,0-4.4.879,7.284,7.284,0,0,0,0,6.279c16.7,20.216,28.253,27.248,57.165,27.248,9.669,0,19.337-1.758,29.006-2.637a2.794,2.794,0,0,1,.879,1.758c-8.79,35.191-12.306,70.381-15.7,105.54-4.4,51.891-6.279,104.662,0,156.553,3.516,30.8,16.7,68.592,53.649,68.592,42.222,0,79.139-81.777,87.05-115.209,1.758-10.547-.879-14.063-10.548-15.7-7.032-.879-9.669,3.516-11.427,9.668-10.548,33.433-36.948,81.808-68.592,100.266-1.758-7.032-4.395-13.185-5.274-19.337-1.758-21.127-4.4-42.223-5.274-64.2a1075.045,1075.045,0,0,1,7.911-150.4c3.516-27.28,8.789-54.528,14.063-80.929,0-2.637,2.637-6.278,5.274-6.278,25.522-4.4,51.891-8.79,77.382-12.306h4.395a10.265,10.265,0,0,1,9.7,5.274,10.3,10.3,0,0,0,5.274,5.274c4.395.879,7.911.879,12.306,1.758-.879-3.516-.879-8.821-3.516-11.458Zm58.923,225.144a17.139,17.139,0,0,0-11.458-4.4c-4.4,0-7.911,1.758-12.306,6.278-7.911,9.669-14.942,19.337-22.853,29.006-8.79,11.458-17.58,22.885-26.37,33.433-.879,0-.879,0-1.758-.879a10.9,10.9,0,0,1-.879-5.274c.879-21.1.879-42.222,1.758-62.439,1.758-18.458,4.4-37.67,6.278-56.286.879-12.305-5.274-21.127-16.7-25.522a23.62,23.62,0,0,0-6.278-1.758c-3.516,0-5.274,2.637-7.911,7.911a335.891,335.891,0,0,0-21.1,88.839,352.516,352.516,0,0,0,0,52.77c2.637,25.522,18.458,41.344,42.222,44.86a21.226,21.226,0,0,0,7.032.879,25.113,25.113,0,0,0,21.974-12.306c6.279-10.548,13.185-21.1,20.217-32.553,9.669-16.7,20.248-33.4,30.8-50.228,3.516-5.274,1.758-8.821-2.637-12.337Zm-87.082-124c3.516,2.637,21.1,12.306,25.49,12.306,3.547,0,5.305-2.637,6.278-6.279.879-5.274,2.637-10.547,3.516-15.7,1.758-14.095-7.032-23.764-21.974-23.764-7.911,0-12.337,3.516-15.7,13.185-4.4,8.79-3.516,15.7,2.637,20.217Zm310.468,125.757a130.889,130.889,0,0,0-15.7-7.911c-5.274-.879-7.032,4.395-7.911,7.911a112.068,112.068,0,0,1-37.827,50.228c-1.758.879-3.516,2.637-7.032,4.395-.879-11.458-1.758-21.127-2.637-30.8,0-18.459,0-36.949-.879-55.407,0-7.032-2.637-12.306-7.911-14.943a106.823,106.823,0,0,0-14.943-6.279c-1.758,0-2.637-.879-4.4-.879-4.4,0-7.032,3.516-8.79,9.669-4.395,11.427-7.911,22.854-12.306,35.159-16.732,51.012-36.949,79.171-76.534,112.573a93.044,93.044,0,0,1-11.427-37.671c-4.395-36.069-1.758-71.26,4.4-106.419a17.739,17.739,0,0,0-2.637-9.668c-6.279-6.278-12.306-8.79-17.58-8.79-8.79,0-15.7,6.279-19.337,17.58,0,1.758-.879,2.637-.879,4.395a261.558,261.558,0,0,0-8.162,86.894c1.758,36.948,22.853,76.534,64.2,76.534,27.248,0,46.617-18.49,60.681-38.707,8.79-12.305,16.7-26.369,25.49-39.585a57.586,57.586,0,0,1,2.637,7.032,39.587,39.587,0,0,0,35.191,21.975c32.553,0,58.044-43.949,64.2-71.229a7.285,7.285,0,0,0,0-6.278Z" transform="translate(1754.736 -495.3)" fill="#2980b9"/>
  </g>
</svg>
