<svg xmlns="http://www.w3.org/2000/svg" width="611" height="1063.68" viewBox="0 0 611 1063.68">
  <g id="logo-vertical" transform="translate(-449.264 -178.52)">
    <g id="Grupo_3" data-name="Grupo 3" transform="translate(505.186 178.52)">
      <g id="Grupo_2" data-name="Grupo 2">
        <g id="Grupo_1" data-name="Grupo 1" transform="translate(44.855 44.807)">
          <path id="Caminho_1" data-name="Caminho 1" d="M717.524,206.56c-113.344,0-205.221,91.9-205.194,205.242,0,113.311,205.194,440.174,205.194,440.174S922.718,525.065,922.718,411.8c0-113.392-91.9-205.268-205.242-205.242Zm0,312.305A107.063,107.063,0,1,1,824.587,411.8,107.063,107.063,0,0,1,717.524,518.865Z" transform="translate(-512.33 -206.56)" fill="#1abc9c"/>
        </g>
        <g id="Caminho_2" data-name="Caminho 2">
          <path id="Caminho_5307" data-name="Caminho 5307" d="M752.973,903.45a23.787,23.787,0,0,1-6.7-.959,22.691,22.691,0,0,1-16.762-22.259V428.569a4.794,4.794,0,1,1,9.588,0V880.232a13.567,13.567,0,0,0,25.072,7.223c21.557-34.34,210.611-338.959,210.611-458.934,0-132.631-107.878-240.461-240.477-240.461S493.848,295.938,493.848,428.569c0,106.824,151.1,362,197.428,437.665a4.8,4.8,0,1,1-8.182,5.018C636.45,795,484.26,537.853,484.26,428.569c0-137.872,112.161-250.049,250.049-250.049S984.373,290.649,984.373,428.569c0,122.659-190.365,429.451-212.065,464.031a22.659,22.659,0,0,1-19.335,10.85Z" transform="translate(-484.26 -178.52)" fill="#2980b9"/>
        </g>
        <path id="Caminho_3" data-name="Caminho 3" d="M712.669,393.86c-.447,30.489-12.784,85.89-12.784,85.89l26.047,19.319-.336,23.122-38.782-10.275-38.99,9.14.336-23.122,26.606-18.552s-10.754-55.737-10.307-86.29V391.24L561.71,432.371,562,412.94a34.532,34.532,0,0,1,19.847-28.859c14.286-6.887,59.971-33.989,83.493-48.13l.639-44.1s3.915-42.49,24.7-42.186,23.474,42.905,23.474,42.905l-.639,44.1c23.091,14.813,67.961,43.257,82.023,50.559a34.532,34.532,0,0,1,19.016,29.418l-.288,19.431L712.7,392.007Z" transform="translate(-437.948 -135.982)" fill="#2980b9"/>
      </g>
    </g>
    <path id="Caminho_4" data-name="Caminho 4" d="M491.4,873.133c.447-59.54,18.345-157.127,69.383-196.549,11.633-9.859,24.625-15.676,40.285-15.676,20.6,0,36.274,9.843,47.012,27.309,13.423,21.94,15.229,46.117,7.99,70.742-18.792,65.357-94.9,127.581-164.75,127.581ZM477.509,803.3c0-3.2-.447-6.264-.447-9.4a490.369,490.369,0,0,1,0-72.515c.447-8.517,1.79-17.018,2.237-25.567,0-5.369-3.2-9.412-8.949-9.412-4.027,0-7.159,2.7-8.949,7.175-4.922,9.843-8.5,41.627-8.949,53.276-3.2,40.285,0,80.122,4.922,119.975.447,3.2,0,4.922-2.685,6.711-4.922,2.684-6.711,6.711-4.474,10.738A27.163,27.163,0,0,0,457.839,891c2.237,1.342,3.58,2.237,4.027,4.921a448.574,448.574,0,0,0,14.765,58.645c1.79,5.833,7.606,6.711,12.991,6.711a19.544,19.544,0,0,0,9.843-2.237c3.2-1.342,4.474-3.2,3.579-6.711l-5.369-25.567c-1.79-9.412-3.2-18.808-4.922-28.651h4.474c9.4-.895,18.792-.447,28.2-1.806,64.462-10.291,125.791-53.26,151.806-114.158,6.264-15.66,10.291-32.231,7.606-49.233-5.817-40.3-29.1-66.267-66.7-79.69a80.652,80.652,0,0,0-26.43-4.922c-60.435,0-92.682,75.648-106.1,124.449-3.2,10.291-4.922,20.6-7.606,30.361ZM701.8,872.654c-11.633,20.15-21.94,36.753-42.074,49.249-3.6,2.685-7.622,4.027-12.1,6.264a36.963,36.963,0,0,1-.448-21.94c4.027-17.913,21.045-51.039,42.538-51.039,6.711,0,12.528,4.027,13.423,10.307a10,10,0,0,1-1.342,7.143Zm70.742-1.79a8.758,8.758,0,0,0-3.6-1.79c-1.342,0-2.237.895-3.579,2.237-11.186,13.423-23.266,25.967-37.6,36.258a10.266,10.266,0,0,0-2.237,1.342c-.448,0-.895-.447-1.342-.447,2.237-12.081,4.027-24.625,6.264-36.753,1.342-5.385,0-8.949-4.027-12.1-2.237-1.79-8.5-5.369-11.633-5.369a5.465,5.465,0,0,0-4.474,2.237c-8.517-8.948-21.94-17.466-34.915-17.466-10.307,0-20.6,6.28-27.757,13.423-15.676,15.676-25.072,34.484-24.177,56.856.447,18.808,18.792,35.379,37.6,35.379,17.913,0,36.258-19.175,46.117-32.678,4.474,9.843,11.186,15.213,18.792,15.213,17.466,0,41.2-33.126,50.144-48.8,1.79-3.2.432-5.369-3.6-7.606Zm52.365-20.6c-22.819,0-36.753,16.123-47.939,33.126v-3.579l1.342-29.546a11.281,11.281,0,0,0-10.754-11.186c-3.2,0-5.369,2.237-6.711,7.606-3.579,13.423-4.474,27.309-5.369,41.2a292.7,292.7,0,0,0,1.342,52.381c.895,11.186,7.159,16.555,18.361,16.555,4.027,0,5.817-2.237,6.711-7.159,1.342-10.291,2.237-21.045,4.027-30.889C789.5,896.4,802.023,866.39,826.2,858.783a19.484,19.484,0,0,1,4.474-.895,4.921,4.921,0,0,1,4.474,2.237,3.9,3.9,0,0,0,2.685,1.342H843.2c-3.563-7.622-9.827-11.186-18.344-11.186Zm91.339-92.186c-6.28-9.843-15.676-9.843-25.567-9.843H875c-3.579.448-7.159.448-10.738.895a8.124,8.124,0,0,0,.448-2.7c2.685-8.5,5.369-17,7.606-25.567a7.656,7.656,0,0,0-.448-4.474,12.784,12.784,0,0,0-11.186-5.832c-3.579-.448-4.922,3.2-5.817,5.833-4.474,10.738-8.5,21.924-12.991,32.678-.448,1.342-1.79,3.2-2.685,3.2-9.4,1.79-18.792,3.579-28.651,4.922h-3.2a11.058,11.058,0,0,1-7.99-2.685c-.895-1.79-3.2-1.79-4.922-1.79a3.2,3.2,0,0,0-2.237.448,3.708,3.708,0,0,0,0,3.2c8.5,10.291,14.382,13.87,29.1,13.87,4.922,0,9.843-.895,14.765-1.342a1.422,1.422,0,0,1,.447.895c-4.474,17.913-6.264,35.826-7.99,53.723-2.237,26.414-3.2,53.276,0,79.69,1.79,15.676,8.5,34.915,27.309,34.915,21.492,0,40.285-41.627,44.311-58.645.895-5.369-.448-7.159-5.369-7.99-3.579-.448-4.922,1.79-5.817,4.922-5.369,17.018-18.808,41.643-34.915,51.039-.895-3.579-2.237-6.711-2.685-9.843-.895-10.754-2.237-21.493-2.685-32.678a547.237,547.237,0,0,1,4.027-76.558c1.789-13.886,4.474-27.757,7.159-41.2,0-1.342,1.342-3.2,2.685-3.2,12.991-2.237,26.414-4.474,39.39-6.264h2.237a5.225,5.225,0,0,1,4.938,2.685,5.241,5.241,0,0,0,2.685,2.685c2.237.448,4.027.448,6.264.895-.447-1.79-.447-4.49-1.79-5.833Zm29.994,114.606a8.725,8.725,0,0,0-5.833-2.237c-2.237,0-4.027.895-6.264,3.2-4.027,4.922-7.606,9.843-11.633,14.765-4.474,5.833-8.949,11.649-13.423,17.018-.448,0-.448,0-.895-.448a5.546,5.546,0,0,1-.448-2.684c.448-10.738.448-21.493.895-31.784.895-9.4,2.237-19.175,3.2-28.651.448-6.264-2.685-10.754-8.5-12.991a12.022,12.022,0,0,0-3.2-.895c-1.79,0-2.685,1.342-4.027,4.027a170.98,170.98,0,0,0-10.739,45.222,179.444,179.444,0,0,0,0,26.862c1.342,12.992,9.4,21.045,21.492,22.835a10.8,10.8,0,0,0,3.579.447A12.783,12.783,0,0,0,921.63,921.1c3.2-5.369,6.711-10.738,10.291-16.571,4.922-8.5,10.307-17,15.676-25.567,1.79-2.685.895-4.49-1.342-6.28Zm-44.327-63.12c1.79,1.342,10.738,6.264,12.975,6.264,1.806,0,2.7-1.342,3.2-3.2.448-2.685,1.342-5.369,1.79-7.99.895-7.175-3.579-12.1-11.186-12.1-4.027,0-6.28,1.79-7.99,6.711-2.237,4.474-1.79,7.99,1.342,10.291ZM1059.95,873.58a66.622,66.622,0,0,0-7.99-4.027c-2.684-.448-3.579,2.237-4.027,4.027a57.046,57.046,0,0,1-19.255,25.567c-.895.447-1.79,1.342-3.579,2.237-.448-5.833-.895-10.754-1.342-15.676,0-9.4,0-18.808-.447-28.2,0-3.579-1.342-6.264-4.027-7.606a54.359,54.359,0,0,0-7.606-3.2c-.9,0-1.342-.447-2.237-.447-2.237,0-3.579,1.79-4.474,4.922-2.237,5.817-4.027,11.633-6.264,17.9-8.517,25.967-18.808,40.3-38.958,57.3a47.362,47.362,0,0,1-5.817-19.176c-2.237-18.36-.895-36.274,2.237-54.171a9.03,9.03,0,0,0-1.342-4.922c-3.2-3.2-6.264-4.474-8.949-4.474-4.474,0-7.99,3.2-9.843,8.949,0,.895-.448,1.342-.448,2.237a133.142,133.142,0,0,0-4.155,44.232c.895,18.808,11.633,38.958,32.678,38.958,13.87,0,23.73-9.412,30.889-19.7,4.474-6.264,8.5-13.423,12.975-20.15a29.311,29.311,0,0,1,1.342,3.579,20.151,20.151,0,0,0,17.913,11.186c16.571,0,29.546-22.372,32.678-36.258a3.709,3.709,0,0,0,0-3.2Z" transform="translate(0 280.909)" fill="#2980b9"/>
  </g>
</svg>
