<svg xmlns="http://www.w3.org/2000/svg" width="57.167" height="59.012" viewBox="0 0 57.167 59.012"><path d="M60.885,59.6a28.238,28.238,0,1,0-53.3-.013Zm0,0" transform="translate(-5.308 -19.464)" fill="#3c2b8e"/><path d="M46.109,164.116A28.248,28.248,0,0,0,72.8,145.127a26.692,26.692,0,0,0-53.378-.013,28.249,28.249,0,0,0,26.691,19Zm0,0" transform="translate(-17.179 -105.105)" fill="#2299f2"/><path d="M51.731,152.714c1.363-5.3-1.9-4.764-5.784-9.613s-.774-10.15-.774-10.15l-.222-3.274a3.371,3.371,0,0,1-.007-2.528,3.244,3.244,0,0,0-.206-3.122,4.93,4.93,0,0,1-.3-4.765,26.693,26.693,0,0,0-25.021,26.263,28.276,28.276,0,0,0,33.448,18.189h0c-4.026-3.648-2.5-5.7-1.134-11Zm0,0" transform="translate(-17.18 -105.516)" fill="#1588e8"/><path d="M202.179,145.555l1.488,4.313s1.795,2.883,0,4.678-4.025.435-4.025,1.632-4.46.544-4.46,2.175-4.025,3.264-2.175,5.113,3.481-2.393,4.678-1.2,1.523,4.9,0,4.9-2.169,2.284-5.164,1.2-3.865-4.025-5.279-2.611-6.582,2.829-5.3,7.833,4.324,4.569,6.826,4.569,2.067,3.481,2.067,5.439a9.034,9.034,0,0,0,1.77,4.054,28.217,28.217,0,0,0,3.874-.67,11.348,11.348,0,0,1,2.08-4.255c1.741-1.741,3.519-2.261,2.758-4.3-.4-1.081,1.1-3.151-.255-4.511s-3.155-2.393-2.393-3.155,5.6,2.121,7.18.544,2.393,4.351,3.917,4.351,1.523-4.025,2.828-4.025c.814,0,1.84-.506,2.734-.148a28.139,28.139,0,0,0,1.086-2.679,26.691,26.691,0,0,0-14.228-23.243Zm0,0" transform="translate(-160.789 -128.779)" fill="#83d912"/><path d="M359.109,145.555l1.487,4.313a5.531,5.531,0,0,1,.782,2.989,2.777,2.777,0,0,1-.306,1.043c-.4,1.762-.665,5.3,2.957,7.037,4.808,2.3,1.178,8.772,7.692,10.42a1.8,1.8,0,0,1,.529.12,28.073,28.073,0,0,0,1.086-2.68,26.689,26.689,0,0,0-14.227-23.242Zm0,0" transform="translate(-317.719 -128.779)" fill="#abf222"/><path d="M195.34,328.107c1.363-5.3-1.9-4.764-5.784-9.613-.909-.839-1.529-1.4-2.315-.613-1.414,1.414-6.582,2.828-5.3,7.833s4.324,4.569,6.826,4.569,2.067,3.481,2.067,5.439a9.029,9.029,0,0,0,1.769,4.054,28.066,28.066,0,0,0,3.874-.67C192.448,335.458,193.977,333.409,195.34,328.107Zm0,0" transform="translate(-160.79 -280.91)" fill="#5bbf02"/><path d="M216.642,119.432a26.854,26.854,0,0,0-10.945-.138,5.706,5.706,0,0,0,.189,2.822,5.427,5.427,0,0,0,5.385,3.345c1.55,0,2.121,2.937,4.079,2.937s.816-3.264,1.8-4.243,1.224-1.55,0-2.774a2.03,2.03,0,0,1-.542-1.565,3.2,3.2,0,0,1,.039-.384Zm0,0" transform="translate(-181.91 -105.105)" fill="#83d912"/><path d="M209.979,125.76a3.263,3.263,0,0,0-.512-1.732,4.933,4.933,0,0,1-.3-4.766,26.908,26.908,0,0,0-3.471.443,5.707,5.707,0,0,0,.189,2.822,5.041,5.041,0,0,0,4.093,3.233Zm0,0" transform="translate(-181.91 -105.516)" fill="#5bbf02"/><path d="M236.821,246a.91.91,0,0,1,.395-1.226c1.581-.811,1.613-.762,1.787-1.037a.911.911,0,0,1,1.538.976c-.519.818-1.1.967-2.495,1.682A.91.91,0,0,1,236.821,246Zm0,0" transform="translate(-209.437 -215.267)" fill="#83d912"/><path d="M236.667,283.793a.91.91,0,0,1,.238-1.266l.344-.236a.911.911,0,1,1,1.028,1.5l-.344.236A.911.911,0,0,1,236.667,283.793Zm0,0" transform="translate(-209.249 -249.615)" fill="#83d912"/><path d="M35.9,150.36c-1.782-1.781.6-3.236-1.088-4.922a2.63,2.63,0,0,1-.746-1.817,26.694,26.694,0,0,0-14.657,23.452,28.324,28.324,0,0,0,12.37,15.107c-.153-3.216,1.414-6.216-.122-7.752-1.849-1.849-1.876-3.671-2.5-4.3s-2.121.925-3.046-1.088,1.251-3.264,1.251-3.264c1.414-.381,1.224-2.257,3.209-4.242s4.678,0,6.418,0,1.958-1.85,0-3.808.693-5.589-1.088-7.37Zm0,0" transform="translate(-17.169 -127.068)" fill="#5bbf02"/><path d="M131.211,318.39l-1.088-.464a.911.911,0,1,1,.714-1.676l1.088.464a.911.911,0,1,1-.714,1.676Zm0,0" transform="translate(-114.635 -279.736)" fill="#83d912"/><path d="M378.891,282.452a3.432,3.432,0,1,1-3.432-3.433A3.432,3.432,0,0,1,378.891,282.452Zm0,0" transform="translate(-329.149 -246.861)" fill="#f9b50b"/><path d="M376.674,283.455a2.217,2.217,0,0,1-.534-4.368,3.429,3.429,0,1,0,2.685,2.685A2.217,2.217,0,0,1,376.674,283.455Zm0,0" transform="translate(-329.149 -246.861)" fill="#f79d0d"/><path d="M81.618,236.659a3.432,3.432,0,1,1-3.432-3.433A3.432,3.432,0,0,1,81.618,236.659Zm0,0" transform="translate(-66.138 -206.346)" fill="#f97396"/><path d="M79.326,237.812a2.292,2.292,0,0,1-.509-4.526,3.436,3.436,0,1,0,2.743,2.743,2.291,2.291,0,0,1-2.234,1.783Zm0,0" transform="translate(-66.138 -206.346)" fill="#f7577a"/><path d="M168.907,216.76c-5.953-5.072-15.86-5.367-22.308-1.614a1.639,1.639,0,1,1-1.649-2.834c7.665-4.461,19.077-4.018,26.084,1.952a1.639,1.639,0,1,1-2.126,2.5Zm0,0" transform="translate(-127.522 -185.199)" fill="#d9f5ff"/><path d="M12.048,0A12.025,12.025,0,0,0,2.62,19.491L10,28.816a2.607,2.607,0,0,0,4.088,0l7.384-9.325A12.025,12.025,0,0,0,12.048,0Zm0,0" transform="translate(0 0)" fill="#f7577a"/><path d="M16.542,29.642a.7.7,0,0,0-.442-.7,1.377,1.377,0,0,1-.908-1.348.715.715,0,0,0-.5-.669,7.217,7.217,0,0,1-5.182-8.106.715.715,0,0,0-.4-.718,1.406,1.406,0,0,1-.726-1.4.719.719,0,0,0-.48-.69c-2.586-.94-1.571-3.736-1.55-3.792A12.05,12.05,0,0,0,2.624,30.308l7.384,9.325a2.607,2.607,0,0,0,4.088,0l5.459-6.894c-2.816-.155-3.067-2.108-3.012-3.1Zm0,0" transform="translate(-0.004 -10.817)" fill="#d93a59"/><path d="M45.7,53.868A7.665,7.665,0,1,1,53.36,46.2,7.673,7.673,0,0,1,45.7,53.868Zm0-12.9A5.236,5.236,0,1,0,50.931,46.2,5.242,5.242,0,0,0,45.7,40.968Zm0,0" transform="translate(-33.648 -34.097)" fill="#d93a59"/><path d="M49.744,60.04a1.377,1.377,0,0,1-.908-1.348.706.706,0,0,0-.129-.394,5.233,5.233,0,1,1-5.643-8.8.724.724,0,0,0-.315-.3,1.406,1.406,0,0,1-.727-1.4.7.7,0,0,0-.136-.431A7.661,7.661,0,1,0,50.07,60.306.693.693,0,0,0,49.744,60.04Zm0,0" transform="translate(-33.648 -41.911)" fill="#ba1c37"/><path d="M154.2,211.23a1.721,1.721,0,0,1,1.1-1.6,23.081,23.081,0,0,0-10.343,2.952,1.639,1.639,0,0,0,1.649,2.834,19.847,19.847,0,0,1,8.915-2.512A1.721,1.721,0,0,1,154.2,211.23Zm0,0" transform="translate(-127.523 -185.467)" fill="#abe4fe"/><path d="M31.654,278.4c-1.849-1.85-1.876-3.672-2.5-4.3s-2.121.925-3.046-1.088a2.162,2.162,0,0,1-.046-1.837,6.052,6.052,0,0,0-2.366-2.555c-2.916-1.972-2.478-6.1-2.235-7.486a26.59,26.59,0,0,0-2.053,9.907,28.322,28.322,0,0,0,12.37,15.107c-.153-3.216,1.414-6.216-.122-7.752Zm0,0" transform="translate(-17.17 -231.042)" fill="#58aa02"/></svg>