<svg xmlns="http://www.w3.org/2000/svg" width="58.219" height="58.219" viewBox="0 0 58.219 58.219"><path d="M48.592,68.465a27.859,27.859,0,1,0-41.466,0Zm0,0" transform="translate(0 -19.498)" fill="#2299f2"/><path d="M62.668,430.629a28,28,0,0,0,6.207,5.167l3.1,1.639a27.874,27.874,0,0,0,32.162-6.806Zm0,0" transform="translate(-55.542 -381.662)" fill="#554cbf"/><path d="M86.251,430.629H62.668a28,28,0,0,0,6.207,5.167l3.1,1.638a27.744,27.744,0,0,0,11.43,2.447c.7,0,1.394-.028,2.081-.079-5.443-.756-5.041-9.174.769-9.174Zm0,0" transform="translate(-55.542 -381.662)" fill="#483ba8"/><path d="M102.767,433.93a4.456,4.456,0,0,0-4.3,3.347q1.021.763,2.113,1.432l3.12,1.651q1.167.526,2.388.946a4.432,4.432,0,0,0-3.319-7.376Zm0,0" transform="translate(-87.269 -384.588)" fill="#3c2b8e"/><path d="M402.575,442.807a4.439,4.439,0,1,1,4.438-4.439A4.451,4.451,0,0,1,402.575,442.807Zm0,0" transform="translate(-352.865 -384.588)" fill="#3c2b8e"/><path d="M419.872,457.884a2.219,2.219,0,1,1,2.219-2.219A2.226,2.226,0,0,1,419.872,457.884Zm0,0" transform="translate(-370.161 -401.884)" fill="#d9f5ff"/><path d="M119,453.445a2.226,2.226,0,0,0-2.22,2.22,2.195,2.195,0,0,0,.029.34,27.779,27.779,0,0,0,3.14,1.662,2.217,2.217,0,0,0-.95-4.221Zm0,0" transform="translate(-103.499 -401.884)" fill="#d9f5ff"/><path d="M91.617,430.75a5.049,5.049,0,0,1-1.1-.121c0,.025,0,.049,0,.074a4.755,4.755,0,0,0,4.74,4.74h.931a4.753,4.753,0,0,0,4.739-4.693Zm0,0" transform="translate(-80.223 -381.662)" fill="#abe4fe"/><path d="M95.726,430.75H91.62a5.049,5.049,0,0,1-1.1-.121c0,.025,0,.049,0,.074a4.754,4.754,0,0,0,4.74,4.74h.931a4.7,4.7,0,0,0,1.269-.175C96.47,434.713,95.737,432.9,95.726,430.75Zm0,0" transform="translate(-80.227 -381.662)" fill="#82c6f9"/><path d="M391.4,431.7a4.754,4.754,0,0,0,4.739,4.693h.931a4.754,4.754,0,0,0,4.739-4.693Zm0,0" transform="translate(-346.892 -382.607)" fill="#abe4fe"/><path d="M396.609,430.75H392.5a5.048,5.048,0,0,1-1.1-.121c0,.025,0,.049,0,.074a4.754,4.754,0,0,0,4.74,4.74h.931a4.7,4.7,0,0,0,1.269-.175C397.353,434.713,396.62,432.9,396.609,430.75Zm0,0" transform="translate(-346.897 -381.662)" fill="#abe4fe"/><path d="M126.034,137.578H91.66a4.713,4.713,0,0,0-4.7,4.7V166.57a4.173,4.173,0,0,0,4.161,4.161h35.451a4.173,4.173,0,0,0,4.161-4.161V142.278a4.713,4.713,0,0,0-4.7-4.7Zm0,0" transform="translate(-77.073 -121.934)" fill="#483ba8"/><path d="M102.677,166.57V140.331a2.761,2.761,0,0,1,2.753-2.753H91.66a4.713,4.713,0,0,0-4.7,4.7V166.57a4.173,4.173,0,0,0,4.161,4.161h15.717a4.174,4.174,0,0,1-4.161-4.161Zm0,0" transform="translate(-77.073 -121.934)" fill="#3c2b8e"/><path d="M126.034,137.578H91.66a4.714,4.714,0,0,0-4.7,4.7v4.029a4.714,4.714,0,0,0,4.7,4.7h34.373a4.714,4.714,0,0,0,4.7-4.7v-4.029A4.714,4.714,0,0,0,126.034,137.578Zm0,0" transform="translate(-77.073 -121.934)" fill="#554cbf"/><path d="M91.66,137.578a4.716,4.716,0,0,0-4.7,4.7v4.03a4.713,4.713,0,0,0,4.7,4.7h11.017V140.331a2.761,2.761,0,0,1,2.752-2.753Zm0,0" transform="translate(-77.073 -121.934)" fill="#483ba8"/><path d="M321.3,97.536a1.1,1.1,0,0,1-1.1-1.1,4.379,4.379,0,0,0-1.846-3.419,1.1,1.1,0,1,1,1.361-1.739,6.533,6.533,0,0,1,2.694,5.158A1.1,1.1,0,0,1,321.3,97.536Zm0,0" transform="translate(-281.775 -80.687)" fill="#d9f5ff"/><path d="M202.663,97.536a1.1,1.1,0,0,1-1.1-1.1,6.533,6.533,0,0,1,2.694-5.158,1.1,1.1,0,0,1,1.361,1.739,4.377,4.377,0,0,0-1.846,3.419,1.1,1.1,0,0,1-1.1,1.1Zm0,0" transform="translate(-178.64 -80.687)" fill="#d9f5ff"/><path d="M219.615,76.777a1.49,1.49,0,0,1-.919-2.665,10.829,10.829,0,0,1,12.8,0,1.491,1.491,0,1,1-1.837,2.348,7.86,7.86,0,0,0-9.125,0A1.484,1.484,0,0,1,219.615,76.777Zm0,0" transform="translate(-193.321 -63.83)" fill="#554cbf"/><path d="M258.78,185.88h-2.719a1.491,1.491,0,0,1,0-2.981h2.719a1.491,1.491,0,0,1,0,2.981Zm0,0" transform="translate(-225.623 -162.101)" fill="#483ba8"/><path d="M257.237,184.389a1.491,1.491,0,0,1,1.49-1.491h-2.665a1.491,1.491,0,1,0,0,2.981h2.665A1.491,1.491,0,0,1,257.237,184.389Zm0,0" transform="translate(-225.624 -162.101)" fill="#3c2b8e"/><path d="M374.878,167.025h-4.009a.514.514,0,0,1-.513-.513V133.3a.514.514,0,0,1,.513-.514h4.009a.514.514,0,0,1,.513.514v33.216A.513.513,0,0,1,374.878,167.025Zm0,0" transform="translate(-328.242 -117.683)" fill="#f9b50b"/><path d="M374.878,132.78h-4.009a.514.514,0,0,0-.513.513v28a2.518,2.518,0,1,1,5.036,0v-28a.514.514,0,0,0-.513-.514Zm0,0" transform="translate(-328.242 -117.682)" fill="#f79d0d"/><path d="M370.355,153.034a2.518,2.518,0,0,0,2.61,2.516,2.557,2.557,0,0,0,2.426-2.577V133.3a.514.514,0,0,0-.513-.514h-4.009a.514.514,0,0,0-.513.514Zm0,0" transform="translate(-328.242 -117.683)" fill="#fbc840"/><path d="M368.938,269.87H363.9a.828.828,0,0,1,0-1.656h5.036a.828.828,0,1,1,0,1.656Zm0,0" transform="translate(-321.789 -237.716)" fill="#ffebb3"/><path d="M149.151,167.025h-4.009a.513.513,0,0,1-.513-.513V133.3a.514.514,0,0,1,.513-.514h4.009a.514.514,0,0,1,.513.514v33.216A.514.514,0,0,1,149.151,167.025Zm0,0" transform="translate(-128.183 -117.683)" fill="#f9b50b"/><path d="M149.151,132.78h-4.008a.513.513,0,0,0-.513.513v28a2.518,2.518,0,1,1,5.036,0v-28a.514.514,0,0,0-.514-.514Zm0,0" transform="translate(-128.184 -117.682)" fill="#f79d0d"/><path d="M144.629,153.034a2.518,2.518,0,0,0,2.61,2.516,2.557,2.557,0,0,0,2.426-2.577V133.3a.514.514,0,0,0-.513-.514h-4.008a.514.514,0,0,0-.513.514Zm0,0" transform="translate(-128.183 -117.683)" fill="#fbc840"/><path d="M143.208,269.87h-5.036a.828.828,0,1,1,0-1.656h5.036a.828.828,0,0,1,0,1.656Zm0,0" transform="translate(-121.726 -237.716)" fill="#ffebb3"/><path d="M366.4,269.043a.828.828,0,0,1,.828-.828H363.9a.828.828,0,1,0,0,1.656h3.323A.828.828,0,0,1,366.4,269.043Zm0,0" transform="translate(-321.789 -237.716)" fill="#fcdb75"/><path d="M140.667,269.043a.828.828,0,0,1,.828-.828h-3.323a.828.828,0,1,0,0,1.656h3.323A.828.828,0,0,1,140.667,269.043Zm0,0" transform="translate(-121.726 -237.716)" fill="#fcdb75"/><g transform="translate(17.538 21.311)"><path d="M157.04,188.817a1.4,1.4,0,1,1-1.4-1.4A1.4,1.4,0,0,1,157.04,188.817Zm0,0" transform="translate(-154.234 -187.414)" fill="#f9b50b"/><path d="M160.38,225.809a.911.911,0,1,1-.911-.911A.911.911,0,0,1,160.38,225.809Zm0,0" transform="translate(-158.067 -220.636)" fill="#f9b50b"/><path d="M382.767,188.817a1.4,1.4,0,1,1-1.4-1.4A1.4,1.4,0,0,1,382.767,188.817Zm0,0" transform="translate(-354.294 -187.414)" fill="#f9b50b"/><path d="M386.108,225.809a.911.911,0,1,1-.911-.911A.911.911,0,0,1,386.108,225.809Zm0,0" transform="translate(-358.126 -220.636)" fill="#f9b50b"/></g><path d="M136.868,190.367h-4.077a2.036,2.036,0,0,1-2.033-2.034v-4.311a2.036,2.036,0,0,1,2.033-2.034h4.077a2.036,2.036,0,0,1,2.034,2.034v4.311A2.036,2.036,0,0,1,136.868,190.367Zm-4.077-6.722a.382.382,0,0,0-.378.378v4.311a.382.382,0,0,0,.378.378h4.077a.383.383,0,0,0,.378-.378v-4.311a.383.383,0,0,0-.378-.378Zm0,0" transform="translate(-115.889 -161.295)" fill="#d9f5ff"/><path d="M160.117,178.491a.828.828,0,0,1-.828-.828V175.68a.828.828,0,0,1,1.656,0v1.983A.828.828,0,0,1,160.117,178.491Zm0,0" transform="translate(-141.176 -154.97)" fill="#abe4fe"/><path d="M362.6,190.367h-4.077a2.036,2.036,0,0,1-2.034-2.034v-4.311a2.036,2.036,0,0,1,2.034-2.034H362.6a2.036,2.036,0,0,1,2.034,2.034v4.311A2.036,2.036,0,0,1,362.6,190.367Zm-4.077-6.722a.382.382,0,0,0-.378.378v4.311a.382.382,0,0,0,.378.378H362.6a.382.382,0,0,0,.378-.378v-4.311a.382.382,0,0,0-.378-.378Zm0,0" transform="translate(-315.949 -161.295)" fill="#d9f5ff"/><path d="M385.844,178.491a.828.828,0,0,1-.828-.828V175.68a.828.828,0,0,1,1.656,0v1.983A.828.828,0,0,1,385.844,178.491Zm0,0" transform="translate(-341.236 -154.97)" fill="#abe4fe"/><path d="M96.015,77.365H50.3a3.829,3.829,0,0,1-3.824-3.824V33H44.027V73.541A6.281,6.281,0,0,0,50.3,79.814H96.015a1.225,1.225,0,0,0,0-2.449Zm0,0" transform="translate(-39.021 -29.248)" fill="#d9f5ff"/><path d="M65.205,78.59a1.224,1.224,0,0,1,1.225-1.225H50.3a3.828,3.828,0,0,1-3.824-3.824V33H44.028V73.541A6.281,6.281,0,0,0,50.3,79.815H66.43a1.225,1.225,0,0,1-1.225-1.225Zm0,0" transform="translate(-39.021 -29.248)" fill="#abe4fe"/><path d="M45.252,39.242a1.225,1.225,0,0,1,1.225,1.225V33H44.027v7.467a1.225,1.225,0,0,1,1.225-1.225Zm0,0" transform="translate(-39.021 -29.247)" fill="#82c6f9"/><path d="M6.112,10.818H1.653a1.653,1.653,0,0,1,0-3.306H6.112a1.653,1.653,0,0,1,0,3.306Zm0,0" transform="translate(0 -6.657)" fill="#3c2b8e"/><path d="M41.931,5.014a1.653,1.653,0,0,1-1.653-1.653V1.653a1.653,1.653,0,0,1,3.306,0V3.362A1.653,1.653,0,0,1,41.931,5.014Zm0,0" transform="translate(-35.697 0)" fill="#554cbf"/><path d="M41.931,13.5A1.652,1.652,0,0,1,40.3,12.117a1.652,1.652,0,0,0-.025.275V14.1a1.653,1.653,0,0,0,3.306,0V12.392a1.652,1.652,0,0,0-.025-.275A1.652,1.652,0,0,1,41.931,13.5Zm0,0" transform="translate(-35.697 -10.739)" fill="#483ba8"/><path d="M223.462,73.75a1.717,1.717,0,0,1,.855-1.484,10.238,10.238,0,0,0-5.621,2.065,1.49,1.49,0,1,0,1.837,2.348,7.2,7.2,0,0,1,3.813-1.426A1.719,1.719,0,0,1,223.462,73.75Zm0,0" transform="translate(-193.321 -64.048)" fill="#483ba8"/></svg>