<svg xmlns="http://www.w3.org/2000/svg" width="47.335" height="27.652" viewBox="0 0 47.335 27.652">
  <g id="menu-fechar" transform="translate(47.335 154.896) rotate(180)">
    <g id="_x31_0_34_" transform="translate(47.335 154.896) rotate(180)">
      <g id="Grupo_1680" data-name="Grupo 1680" transform="translate(0 0)">
        <path id="Caminho_5276" data-name="Caminho 5276" d="M46.755,127.827a1.974,1.974,0,0,0-2.8,0L23.668,150.086,3.381,127.827a1.974,1.974,0,0,0-2.8,0,2,2,0,0,0,0,2.815l21.587,23.686a1.953,1.953,0,0,0,1.5.564,1.951,1.951,0,0,0,1.5-.564l21.589-23.688A2,2,0,0,0,46.755,127.827Z" transform="translate(0 -127.244)"/>
      </g>
    </g>
  </g>
</svg>
