<svg xmlns="http://www.w3.org/2000/svg" width="57.477" height="60.058" viewBox="0 0 57.477 60.058"><path d="M54.871,62.71a28.739,28.739,0,1,0-52.265,0Zm0,0" transform="translate(0 -19.419)" fill="#fbc840"/><path d="M51.988,0H27.358A5.615,5.615,0,0,0,21.75,5.609V43.173A28.769,28.769,0,0,0,57.6,58.392V5.609A5.615,5.615,0,0,0,51.988,0Zm0,0" transform="translate(-19.198 0)" fill="#d9f5ff"/><path d="M28.061,0h-.7A5.615,5.615,0,0,0,21.75,5.609V43.173a28.813,28.813,0,0,0,6.311,8.9V5.609a5.58,5.58,0,0,1,.425-2.139A2.539,2.539,0,0,1,28.061,0Zm0,0" transform="translate(-19.199 0)" fill="#abe4fe"/><path d="M207.605,16.118a4.224,4.224,0,0,0-4.212-4.212h-24.63a4.224,4.224,0,0,0-4.212,4.212V69.359a28.768,28.768,0,0,0,33.055-12.988Zm0,0" transform="translate(-154.076 -10.51)" fill="#5bbf02"/><path d="M181.9,16.118a5.6,5.6,0,0,1,1.911-4.212h-5.051a4.225,4.225,0,0,0-4.212,4.212V69.36a28.715,28.715,0,0,0,7.352,1.193Zm0,0" transform="translate(-154.075 -10.51)" fill="#58aa02"/><path d="M174.551,111.426h16.933l12.88-10.812v-26.5H174.551Zm0,0" transform="translate(-154.076 -65.423)" fill="#83d912"/><path d="M174.551,74.117H181.9v37.309h-7.352Zm0,0" transform="translate(-154.076 -65.423)" fill="#5bbf02"/><path d="M191.483,332.41v-4.7l-16.933-8.567v21.414a28.771,28.771,0,0,0,29.481-8.148Zm0,0" transform="translate(-154.075 -281.708)" fill="#fbc840"/><path d="M181.9,322.864l-7.352-3.72v21.414a28.716,28.716,0,0,0,7.352,1.193Zm0,0" transform="translate(-154.075 -281.708)" fill="#f9b50b"/><path d="M331.782,100.614,318.9,111.426v4.7h12.549a28.792,28.792,0,0,0,3.573-4.84V74.118h-3.242Zm0,0" transform="translate(-281.495 -65.424)" fill="#2299f2"/><path d="M204.2,114.452H193.157v-2.245l12.45-10.422a1.674,1.674,0,0,0,.6-1.283V74.117H202.86v25.6l-11.6,9.715-16.7-8.451v3.749l15.26,7.72v3.671a1.673,1.673,0,0,0,1.673,1.673h10.888a28.875,28.875,0,0,0,2.816-3.02,1.671,1.671,0,0,0-.99-.326Zm0,0" transform="translate(-154.076 -65.423)" fill="#d9f5ff"/><path d="M181.9,306.88l-7.352-3.72v3.75l7.352,3.72A2.848,2.848,0,0,1,181.9,306.88Zm0,0" transform="translate(-154.075 -267.599)" fill="#abe4fe"/><path d="M198.5,43.174V5.609A5.615,5.615,0,0,0,192.887,0h-24.63a5.615,5.615,0,0,0-5.608,5.609V58.392a28.325,28.325,0,0,0,2.793.838V5.609a2.816,2.816,0,0,1,2.816-2.816h4.561a.244.244,0,0,1,.244.245,2.061,2.061,0,0,0,2.055,2.055h10.752a2.061,2.061,0,0,0,2.055-2.055.244.244,0,0,1,.244-.245h4.718A2.816,2.816,0,0,1,195.7,5.609v42.4a28.734,28.734,0,0,0,2.793-4.84Zm0,0" transform="translate(-143.569 0)" fill="#554cbf"/><path d="M395.865,46.1h-1.889a.945.945,0,1,1,0-1.89h1.889a.945.945,0,1,1,0,1.89Zm0,0" transform="translate(-346.928 -39.025)" fill="#83d912"/><path d="M208.487,46.1H206.6a.945.945,0,0,1,0-1.89h1.89a.945.945,0,0,1,0,1.89Zm0,0" transform="translate(-181.53 -39.025)" fill="#83d912"/><path d="M54.205,43.2a4.268,4.268,0,0,1-4.264-4.264v-7.64a4.264,4.264,0,0,1,8.528,0v7.64A4.269,4.269,0,0,1,54.205,43.2Zm0-14.278a2.377,2.377,0,0,0-2.374,2.374v7.64a2.374,2.374,0,0,0,4.748,0v-7.64A2.377,2.377,0,0,0,54.205,28.92Zm0,0" transform="translate(-44.083 -23.86)" fill="#554cbf"/><path d="M54.112,43.285a.2.2,0,0,0,0-.227.592.592,0,0,1,0-.709.211.211,0,0,0,.037-.122,2.376,2.376,0,0,1-2.324-2.372v-7.64a2.377,2.377,0,0,1,2.105-2.358.2.2,0,0,0-.1-.141.586.586,0,0,1-.318-.613.213.213,0,0,0-.108-.207.588.588,0,0,1-.216-.823,4.27,4.27,0,0,0-3.252,4.141v7.64A4.268,4.268,0,0,0,54.2,44.119a.605.605,0,0,1-.093-.833Zm0,0" transform="translate(-44.083 -24.781)" fill="#483ba8"/><path d="M250.934,342.539a3.508,3.508,0,1,1-3.508-3.508A3.508,3.508,0,0,1,250.934,342.539Zm0,0" transform="translate(-215.307 -299.263)" fill="#f9b50b"/><path d="M248.54,343.818a2.393,2.393,0,0,1-.5-4.732,3.511,3.511,0,1,0,2.843,2.843A2.394,2.394,0,0,1,248.54,343.818Zm0,0" transform="translate(-215.306 -299.263)" fill="#f79d0d"/><path d="M194.736,134.3a10.49,10.49,0,0,0-8.224,17l6.441,8.135a2.274,2.274,0,0,0,3.566,0l6.441-8.135A10.49,10.49,0,0,0,194.736,134.3Zm0,0" transform="translate(-162.617 -118.544)" fill="#f7577a"/><path d="M196.522,166.167l5.63-7.11c-1.977,0-2.515-1.074-2.653-1.8a.919.919,0,0,0-.685-.726,1.612,1.612,0,0,1-1.236-1.1.931.931,0,0,0-.615-.6c-4.089-1.264-4.077-5.02-3.875-6.605a.935.935,0,0,0-.5-.94,1.367,1.367,0,0,1-.736-1.361.949.949,0,0,0-.528-.915c-1.848-.881-.882-3.084-.882-3.084a10.511,10.511,0,0,0-3.932,16.107l6.441,8.135a2.274,2.274,0,0,0,3.566,0Zm0,0" transform="translate(-162.619 -125.278)" fill="#d93a59"/><path d="M222,179.4a6.886,6.886,0,1,1,6.886-6.886A6.894,6.894,0,0,1,222,179.4Zm0-11.253a4.367,4.367,0,1,0,4.367,4.367A4.372,4.372,0,0,0,222,168.144Zm0,0" transform="translate(-189.884 -146.197)" fill="#d93a59"/><path d="M226.078,182.643a1.612,1.612,0,0,1-1.236-1.1.9.9,0,0,0-.213-.349,4.365,4.365,0,1,1-4.421-7.466.971.971,0,0,0-.352-.327,1.367,1.367,0,0,1-.736-1.361.984.984,0,0,0-.121-.528A6.884,6.884,0,1,0,226.52,182.9.9.9,0,0,0,226.078,182.643Zm0,0" transform="translate(-189.883 -151.393)" fill="#ba1c37"/><path d="M61.315,49.363A3.329,3.329,0,0,1,58,46.045V38.4a3.319,3.319,0,0,1,6.638,0v7.64A3.329,3.329,0,0,1,61.315,49.363Zm0,0" transform="translate(-51.193 -30.97)" fill="#483ba8"/><path d="M61.233,40.36a.208.208,0,0,0,.022-.215,2.493,2.493,0,0,1-.017-2.267.208.208,0,0,0-.041-.241.757.757,0,0,1-.163-.866.21.21,0,0,0-.089-.268.586.586,0,0,1-.318-.613.21.21,0,0,0-.029-.128A3.332,3.332,0,0,0,58,39v7.64a3.328,3.328,0,0,0,3.262,3.317.207.207,0,0,0-.034-.115.592.592,0,0,1,0-.709.21.21,0,0,0,.014-.22,1.016,1.016,0,0,1,.016-.95.21.21,0,0,0-.006-.2,2.236,2.236,0,0,1-.01-2.3.209.209,0,0,0,0-.219.879.879,0,0,1,.039-1.011.2.2,0,0,0,.037-.118v-2.6a.214.214,0,0,0-.055-.14.763.763,0,0,1-.027-1.007Zm0,0" transform="translate(-51.193 -31.567)" fill="#3c2b8e"/><path d="M70.47,45.135a2.425,2.425,0,1,1-2.425-2.424A2.425,2.425,0,0,1,70.47,45.135Zm0,0" transform="translate(-57.924 -37.701)" fill="#6464d8"/><path d="M68.027,47.694a.227.227,0,0,0-.037-.058.763.763,0,0,1-.027-1.007.208.208,0,0,0,.022-.215,2.493,2.493,0,0,1-.017-2.267.208.208,0,0,0-.041-.241.757.757,0,0,1-.163-.866.219.219,0,0,0,0-.176,2.424,2.424,0,0,0,.266,4.83Zm0,0" transform="translate(-57.924 -37.835)" fill="#554cbf"/><path d="M70.47,109.976a2.425,2.425,0,1,1-2.425-2.425A2.425,2.425,0,0,1,70.47,109.976Zm0,0" transform="translate(-57.924 -94.935)" fill="#6464d8"/><path d="M68,112.4a.209.209,0,0,0-.024-.115,1.016,1.016,0,0,1,.016-.95.21.21,0,0,0-.006-.2,2.236,2.236,0,0,1-.01-2.3.209.209,0,0,0,0-.219.879.879,0,0,1,.039-1.011.2.2,0,0,0,.023-.047A2.423,2.423,0,0,0,68,112.4Zm0,0" transform="translate(-57.924 -94.942)" fill="#554cbf"/><path d="M76.814,55.162a1.259,1.259,0,1,1,1.26-1.26,1.261,1.261,0,0,1-1.26,1.26Zm0,0" transform="translate(-66.692 -46.468)" fill="#554cbf"/><path d="M76.772,55.185a.2.2,0,0,0-.018-.113,2.493,2.493,0,0,1-.017-2.267.2.2,0,0,0,.017-.133,1.163,1.163,0,0,0-.186.022,1.258,1.258,0,0,0,.2,2.492Zm0,0" transform="translate(-66.692 -46.493)" fill="#3c2b8e"/><path d="M76.814,120a1.259,1.259,0,1,1,1.26-1.26,1.261,1.261,0,0,1-1.26,1.26Zm0,0" transform="translate(-66.692 -103.703)" fill="#554cbf"/><path d="M76.776,120.022a.218.218,0,0,0-.028-.1,2.238,2.238,0,0,1-.011-2.3.205.205,0,0,0,.029-.11,1.176,1.176,0,0,0-.2.022,1.258,1.258,0,0,0,.212,2.492Zm0,0" transform="translate(-66.689 -103.724)" fill="#3c2b8e"/><path d="M168.253,0a5.615,5.615,0,0,0-5.609,5.609V58.391a28.5,28.5,0,0,0,2.793.838V5.608a2.816,2.816,0,0,1,2.816-2.816h3.9a1.983,1.983,0,0,1,0-2.793Zm0,0" transform="translate(-143.566 0)" fill="#483ba8"/></svg>