<svg xmlns="http://www.w3.org/2000/svg" width="56.8" height="58.056" viewBox="0 0 56.8 58.056"><g transform="translate(0)"><path d="M65.7,56.332a27.781,27.781,0,1,0-52.989,3.283c2,.663,33.922,10.927,52.989-3.283Zm0,0" transform="translate(-9.684 -19.506)" fill="#2299f2"/><path d="M71.81,214.142A4.951,4.951,0,0,0,67.5,209.79a5.044,5.044,0,0,0-1.3.013.833.833,0,0,1-.933-.843v-.011A10.692,10.692,0,0,0,44.69,204.87a.909.909,0,0,1-1.181.507,7.416,7.416,0,0,0-9.646,3.877.893.893,0,0,1-.9.517,4.863,4.863,0,0,0-.868,0,4.942,4.942,0,0,0,.459,9.864H66.9a4.944,4.944,0,0,0,4.912-5.5Zm0,0" transform="translate(-24.481 -175.777)" fill="#abe4fe"/><path d="M48.486,214.113a7.38,7.38,0,0,1,2.661-1.171.908.908,0,0,0,.676-1.093,10.7,10.7,0,0,1,7.32-12.568,10.7,10.7,0,0,0-14.453,5.589.909.909,0,0,1-1.181.507,7.416,7.416,0,0,0-9.646,3.877.893.893,0,0,1-.9.517,4.9,4.9,0,0,0-.868,0,4.942,4.942,0,0,0,.458,9.864h12.8a7.4,7.4,0,0,1,3.134-5.526Zm0,0" transform="translate(-24.481 -175.777)" fill="#82c6f9"/><path d="M296.725,264.779a2.962,2.962,0,0,0-1.168-.364,3,3,0,0,0-.528,0,.542.542,0,0,1-.547-.314,4.505,4.505,0,0,0-5.86-2.355.553.553,0,0,1-.718-.308,6.5,6.5,0,0,0-12.5,2.477v.007a.506.506,0,0,1-.567.512,3.075,3.075,0,0,0-.791-.008,3,3,0,0,0,.367,5.984h20.348A27.594,27.594,0,0,0,296.725,264.779Zm0,0" transform="translate(-240.636 -228.229)" fill="#d9f5ff"/><path d="M67.671,345.164a27.938,27.938,0,0,0,5.758-5.285c-5.518,1.28-12.9.924-21.125-4.973-11.275-8.084-20.969-5.755-26.441-3.072a27.738,27.738,0,0,0,4.631,8.073c1.9.534,26.059,7.222,37.177,5.257Zm0,0" transform="translate(-22.93 -291.985)" fill="#52b0f5"/><path d="M49.411,344.171c.26-2.095-2-3.472-2-3.472s1.578-2.116-1.087-4.781-.49-4.648-.49-4.648a23.684,23.684,0,0,0-19.975.571,27.747,27.747,0,0,0,4.631,8.073c1.1.31,9.713,2.695,18.917,4.256Zm0,0" transform="translate(-22.931 -291.993)" fill="#2299f2"/><path d="M65.652,418.125a27.782,27.782,0,0,0,37.521,5.25,46.293,46.293,0,0,1-15.592-2.829A45.813,45.813,0,0,0,65.652,418.125Zm0,0" transform="translate(-58.208 -370.351)" fill="#fcdb75"/><path d="M85.309,428.343a4.212,4.212,0,0,1-.9-4.878c1.212-2.592-1.684-4.381-1.719-4.4a45.482,45.482,0,0,0-17.041-.933,27.729,27.729,0,0,0,19.656,10.214Zm0,0" transform="translate(-58.208 -370.355)" fill="#fbc840"/><path d="M284.885,331.549c-5.565-2.549-14.964-4.433-25.834,3.36,8.224,5.9,15.608,6.253,21.125,4.973a27.736,27.736,0,0,0,4.709-8.332Zm0,0" transform="translate(-229.678 -291.988)" fill="#2299f2"/><path d="M284.885,331.549c-5.565-2.549-14.964-4.433-25.834,3.36,8.224,5.9,15.608,6.253,21.125,4.973a27.736,27.736,0,0,0,4.709-8.332Zm0,0" transform="translate(-229.678 -291.988)" fill="#2299f2"/><path d="M271.444,335.231a6.468,6.468,0,0,1,3.8-5.894c-4.693-.067-10.222,1.292-16.2,5.575,5.506,3.948,10.635,5.412,15.079,5.565a6.46,6.46,0,0,1-2.686-5.246Zm0,0" transform="translate(-229.678 -291.992)" fill="#1588e8"/><path d="M192.82,6.043c-2.017,2.074-7.861,8.8-8.668,17.81A30.5,30.5,0,0,0,193.368,6.32a.322.322,0,0,0-.547-.277Zm0,0" transform="translate(-163.272 -5.271)" fill="#abf222"/><path d="M186.5,88.164a26.226,26.226,0,0,0-2.349,8.585,27.683,27.683,0,0,0,5.512-7.012,2,2,0,0,1-3.163-1.574Zm0,0" transform="translate(-163.272 -78.167)" fill="#83d912"/><path d="M201.848,119.821c-7.877-4.2-16.582-.075-19.316,1.451a.761.761,0,0,0-.2,1.189,6.493,6.493,0,0,0,7,.926,21.59,21.59,0,0,1,10.032-1.9,5.625,5.625,0,0,0,2.291-.338.757.757,0,0,0,.2-1.333Zm0,0" transform="translate(-161.472 -104.609)" fill="#83d912"/><path d="M192.57,118.672a26.328,26.328,0,0,0-10.037,3.208.761.761,0,0,0-.2,1.189,6.493,6.493,0,0,0,7,.926,23.637,23.637,0,0,1,3.616-1.26A2.211,2.211,0,0,1,192.57,118.672Zm0,0" transform="translate(-161.472 -105.216)" fill="#5bbf02"/><path d="M105.666.077c7.85,4.4,9.076,14.036,9.266,17.186a.767.767,0,0,1-.9.819,6.546,6.546,0,0,1-4.591-5.439A21.763,21.763,0,0,0,105.6,3.1a5.68,5.68,0,0,1-.958-2.129c-.136-.613.514-1.177,1.024-.891Zm0,0" transform="translate(-92.76 0)" fill="#83d912"/><path d="M141.831,58.984a2.21,2.21,0,0,1-3.6,1.864,23.712,23.712,0,0,1,1.009,4.09,6.546,6.546,0,0,0,4.591,5.439.767.767,0,0,0,.9-.819A26.37,26.37,0,0,0,141.831,58.984Zm0,0" transform="translate(-122.557 -52.296)" fill="#5bbf02"/><path d="M200.932,157.291c-5.065-9.271-15.338-10.265-18.688-10.335a.9.9,0,0,0-.823,1.129,7.23,7.23,0,0,0,6,5.277,21.409,21.409,0,0,1,10.315,4.164,5.655,5.655,0,0,0,2.305,1.05.893.893,0,0,0,.892-1.284Zm0,0" transform="translate(-160.821 -130.293)" fill="#5bbf02"/><path d="M190.922,152.478a2.857,2.857,0,0,1,2.246-2.79,25.355,25.355,0,0,0-10.923-2.732.9.9,0,0,0-.823,1.129,7.23,7.23,0,0,0,6,5.277,22.57,22.57,0,0,1,4.154.935A2.845,2.845,0,0,1,190.922,152.478Zm0,0" transform="translate(-160.821 -130.292)" fill="#58aa02"/><path d="M188.918,168.826c.48-10.819-6.875-17.224-9.391-19.09a.772.772,0,0,0-1.155.541,8.115,8.115,0,0,0,2.1,7.837,22.023,22.023,0,0,1,5.9,9.192,5.938,5.938,0,0,0,1.263,2.159c.437.471,1.249.063,1.28-.64Zm0,0" transform="translate(-157.928 -132.648)" fill="#83d912"/><path d="M182.607,160.3a2.627,2.627,0,0,1,3.975-2.256,24.671,24.671,0,0,0-7.053-8.3.772.772,0,0,0-1.154.541,8.114,8.114,0,0,0,2.1,7.837,21.893,21.893,0,0,1,2.136,2.291C182.609,160.369,182.607,160.332,182.607,160.3Zm0,0" transform="translate(-157.931 -132.647)" fill="#5bbf02"/><path d="M21.871,59.593c10.539-.733,16.916,7.384,18.78,10.167a.9.9,0,0,1-.507,1.3,7.23,7.23,0,0,1-7.678-2.207A21.409,21.409,0,0,0,23.4,62.411a5.654,5.654,0,0,1-2.128-1.375.893.893,0,0,1,.6-1.444Zm0,0" transform="translate(-18.677 -52.794)" fill="#5bbf02"/><path d="M107.325,87.208a25.163,25.163,0,0,0-8.654-7.982,2.856,2.856,0,0,1-2.406,4.207A22.6,22.6,0,0,1,99.14,86.3a7.232,7.232,0,0,0,7.678,2.207A.9.9,0,0,0,107.325,87.208Zm0,0" transform="translate(-85.35 -70.243)" fill="#58aa02"/><path d="M.382,140.468c8.853-6.238,18.213-3.5,21.141-2.383a.772.772,0,0,1,.167,1.264,8.115,8.115,0,0,1-7.732,2.458,22.027,22.027,0,0,0-10.925-.017,5.929,5.929,0,0,1-2.5.1c-.632-.114-.727-1.017-.151-1.423Zm0,0" transform="translate(-0.001 -121.038)" fill="#83d912"/><path d="M102.911,138.092a24.631,24.631,0,0,0-11.114-1.43,2.628,2.628,0,0,1,.316,4.572,21.822,21.822,0,0,1,3.233.58,8.115,8.115,0,0,0,7.732-2.458A.772.772,0,0,0,102.911,138.092Zm0,0" transform="translate(-81.388 -121.046)" fill="#5bbf02"/><path d="M83.126,149.126a1.429,1.429,0,0,0-1.905.357c-2.475,3.234-9.55,13.724-12.1,30.785a27.93,27.93,0,0,0,5.359,4.862c.332-18.466,6.855-30.523,9.07-34.1a1.4,1.4,0,0,0-.421-1.905Zm0,0" transform="translate(-61.28 -132.02)" fill="#98341a"/><path d="M121.852,149.126a1.429,1.429,0,0,0-1.905.357,57.967,57.967,0,0,0-7.15,12.771,2.546,2.546,0,0,1,3.813,1.538,57.517,57.517,0,0,1,5.664-12.76,1.4,1.4,0,0,0-.421-1.905Zm0,0" transform="translate(-100.007 -132.02)" fill="#872815"/><g transform="translate(7.404 24.529)"><path d="M128.84,219.673a.883.883,0,0,1-.381-.087l-3.292-1.579a.883.883,0,0,1,.764-1.593l3.292,1.579a.884.884,0,0,1-.383,1.68Zm0,0" transform="translate(-117.934 -216.327)" fill="#aa3d27"/><path d="M104.789,274.642a.88.88,0,0,1-.306-.055l-3.975-1.466a.883.883,0,0,1,.611-1.657l3.975,1.466a.884.884,0,0,1-.306,1.712Zm0,0" transform="translate(-96.004 -265.163)" fill="#aa3d27"/><path d="M87.325,327.392a.891.891,0,0,1-.25-.036l-4.564-1.347a.883.883,0,0,1,.5-1.694l4.564,1.347a.883.883,0,0,1-.249,1.731Zm0,0" transform="translate(-79.998 -312.037)" fill="#aa3d27"/><path d="M71.531,396.14a.856.856,0,0,1-.089,0L66.1,395.6a.883.883,0,1,1,.175-1.758l5.346.531a.883.883,0,0,1-.086,1.762Zm0,0" transform="translate(-65.301 -373.714)" fill="#aa3d27"/></g><path d="M148.625,131.231a2.856,2.856,0,1,1-2.856-2.856A2.855,2.855,0,0,1,148.625,131.231Zm0,0" transform="translate(-126.709 -113.819)" fill="#abf222"/><path d="M180.727,148.146a2.856,2.856,0,1,1-2.856-2.856A2.856,2.856,0,0,1,180.727,148.146Zm0,0" transform="translate(-155.171 -128.815)" fill="#abf222"/><path d="M178.911,148.929a1.819,1.819,0,0,1-.454-3.581,2.853,2.853,0,1,0,2.215,2.215,1.819,1.819,0,0,1-1.761,1.366Zm0,0" transform="translate(-155.174 -128.815)" fill="#83d912"/></g></svg>