<svg xmlns="http://www.w3.org/2000/svg" width="240.636" height="251.44" viewBox="0 0 240.636 251.44">
  <g id="menu-dicas" transform="translate(0)">
    <g id="_014-travel_guide" data-name="014-travel guide" transform="translate(0 0)">
      <path id="Caminho_494" data-name="Caminho 494" d="M227.386,197.259a120.324,120.324,0,1,0-211.843,4.236Zm0,0" transform="translate(0 -11.196)" fill="#3c2b8e"/>
      <path id="Caminho_495" data-name="Caminho 495" d="M437.322,270.16a177.4,177.4,0,0,1-25.291,9.689v76.769a120.707,120.707,0,0,0,25.291-33.567Zm0,0" transform="translate(-209.686 -137.486)" fill="#f9b50b"/>
      <path id="Caminho_496" data-name="Caminho 496" d="M444.773,389.491c-4.972,1.435-8.4-2.983-8.4-2.983l-1.848,17.547A120.578,120.578,0,0,0,444.773,389.491Zm0,0" transform="translate(-221.133 -196.697)" fill="#f79d0d"/>
      <path id="Caminho_497" data-name="Caminho 497" d="M426.882,144.862V32.075A10.1,10.1,0,0,0,416.807,22H391.515a10.1,10.1,0,0,1,10.075,10.075V154.551a177.388,177.388,0,0,0,25.291-9.69Zm0,0" transform="translate(-199.245 -11.196)" fill="#2299f2"/>
      <path id="Caminho_498" data-name="Caminho 498" d="M421.563,47.644h-9.532V243.379A120.917,120.917,0,0,0,424.924,229.3V51.007a3.362,3.362,0,0,0-3.361-3.363Zm0,0" transform="translate(-209.686 -24.246)" fill="#abe4fe"/>
      <path id="Caminho_499" data-name="Caminho 499" d="M412.031,386.656V415.83a120.892,120.892,0,0,0,12.893-14.075V386.508a6.448,6.448,0,0,1-12.893.148Zm0,0" transform="translate(-209.686 -196.697)" fill="#82c6f9"/>
      <path id="Caminho_500" data-name="Caminho 500" d="M218.171,213.622c-46.395,13.518-81.7-1.684-120.845-41.081C75.818,150.893,52.4,142.207,31.1,140.039V261.08a120.322,120.322,0,0,0,187.568,28.857V213.48c-.165.048-.332.1-.495.15Zm0,0" transform="translate(-15.826 -71.267)" fill="#fbc840"/>
      <path id="Caminho_501" data-name="Caminho 501" d="M210.827,404.142H56.979a17.192,17.192,0,0,1-8.147-2.047,120.3,120.3,0,0,0,178.859,15.473V390.833a17.411,17.411,0,0,1-16.864,13.309Zm0,0" transform="translate(-24.851 -198.897)" fill="#f9b50b"/>
      <path id="Caminho_502" data-name="Caminho 502" d="M218.666,32.075A10.1,10.1,0,0,0,208.591,22H37.048A5.968,5.968,0,0,0,31.1,27.951V80.96c21.307,2.168,44.72,10.854,66.228,32.5,39.284,39.537,74.7,54.711,121.34,40.939V32.075Zm0,0" transform="translate(-15.826 -11.196)" fill="#52b0f5"/>
      <path id="Caminho_503" data-name="Caminho 503" d="M31.1,261.078a120.845,120.845,0,0,0,25.408,31.489V145.846A104.668,104.668,0,0,0,31.1,140.035Zm0,0" transform="translate(-15.826 -71.265)" fill="#f9b50b"/>
      <path id="Caminho_504" data-name="Caminho 504" d="M56.987,415.817a17.186,17.186,0,0,1-8.139-2.043,121.076,121.076,0,0,0,16.691,18.1V415.817Zm0,0" transform="translate(-24.859 -210.573)" fill="#f79d0d"/>
      <path id="Caminho_505" data-name="Caminho 505" d="M50.555,22H37.048A5.968,5.968,0,0,0,31.1,27.95V80.959a104.565,104.565,0,0,1,25.408,5.807V27.95A5.968,5.968,0,0,0,50.555,22Zm0,0" transform="translate(-15.826 -11.195)" fill="#2299f2"/>
      <path id="Caminho_511" data-name="Caminho 511" d="M262.553,239.815c-.04,0-.08,0-.123,0a3.718,3.718,0,0,1-3.6-3.837l.549-16.985a3.72,3.72,0,1,1,7.435.24l-.549,16.985A3.719,3.719,0,0,1,262.553,239.815Zm0,0" transform="translate(-131.722 -109.614)" fill="#d9f5ff"/>
      <path id="Caminho_512" data-name="Caminho 512" d="M225.186,239.817a3.72,3.72,0,0,1-3.716-3.6l-.547-16.985a3.719,3.719,0,1,1,7.433-.24l.549,16.985a3.722,3.722,0,0,1-3.6,3.839Zm0,0" transform="translate(-112.429 -109.616)" fill="#d9f5ff"/>
      <path id="Caminho_513" data-name="Caminho 513" d="M244.146,253.484H224.034a3.384,3.384,0,0,0-3.374,3.374v13.923a3.384,3.384,0,0,0,3.374,3.374h20.112a3.386,3.386,0,0,0,3.376-3.374V256.858A3.386,3.386,0,0,0,244.146,253.484Zm0,0" transform="translate(-112.296 -129)" fill="#f7577a"/>
      <path id="Caminho_514" data-name="Caminho 514" d="M233.962,270.782V256.859a3.385,3.385,0,0,1,3.374-3.374h-13.3a3.384,3.384,0,0,0-3.374,3.374v13.923a3.386,3.386,0,0,0,3.374,3.374h13.3A3.386,3.386,0,0,1,233.962,270.782Zm0,0" transform="translate(-112.296 -129)" fill="#d93a59"/>
      <path id="Caminho_515" data-name="Caminho 515" d="M172.766,233.586a9.736,9.736,0,0,0-2.469.136,3.228,3.228,0,0,1-3.307-1.278,13.193,13.193,0,0,0-23.244,2.548,3.28,3.28,0,0,1-3.783,2.035,8.085,8.085,0,1,0-1.755,15.978h33.851a9.723,9.723,0,0,0,.708-19.419Zm0,0" transform="translate(-66.22 -115.319)" fill="#abe4fe"/>
      <path id="Caminho_516" data-name="Caminho 516" d="M150.791,250.605a8.151,8.151,0,0,1,1.686-1,3.278,3.278,0,0,0,1.845-3.879,13.186,13.186,0,0,1,9.889-16.281,13.187,13.187,0,0,0-20.463,5.548,3.281,3.281,0,0,1-3.785,2.035,8.086,8.086,0,1,0-1.753,15.98h10.518A7.907,7.907,0,0,1,150.791,250.605Zm0,0" transform="translate(-66.222 -115.319)" fill="#82c6f9"/>
      <path id="Caminho_517" data-name="Caminho 517" d="M212.238,70.378a33.893,33.893,0,0,0-17.791,62.392,11.089,11.089,0,0,1,5.034,9.336v1.542a3.277,3.277,0,0,0,3.277,3.276h20.05a3.277,3.277,0,0,0,3.277-3.276v-1.542a11.1,11.1,0,0,1,5.045-9.344,33.892,33.892,0,0,0-18.892-62.384Zm0,0" transform="translate(-91.04 -35.814)" fill="#fbc840"/>
      <path id="Caminho_518" data-name="Caminho 518" d="M238.592,159.262a10.6,10.6,0,0,1-5.976-1.836,2.712,2.712,0,0,0-3.49.288,21.364,21.364,0,0,1-30.753.015,2.713,2.713,0,0,0-3.482-.288,10.669,10.669,0,0,1-14.115-1.968,33.943,33.943,0,0,0,14.631,20.6,11.088,11.088,0,0,1,5.032,9.337v1.542a3.277,3.277,0,0,0,3.277,3.277h20.05a3.276,3.276,0,0,0,3.277-3.277v-1.542a11.106,11.106,0,0,1,5.045-9.342,33.932,33.932,0,0,0,14.6-20.522,10.663,10.663,0,0,1-8.094,3.712Zm0,0" transform="translate(-91.999 -79.121)" fill="#f9b50b"/>
      <path id="Caminho_519" data-name="Caminho 519" d="M229.456,70.378c-9.281.282-16.92,14.763-17.236,32.7-.22,12.452,3.035,23.463,8.036,29.694,1.635,2.037,2.6,5.575,2.6,9.336v1.542c0,1.809.758,3.276,1.694,3.276h10.37c.936,0,1.694-1.467,1.694-3.276v-1.542c0-3.766.975-7.3,2.611-9.344,4.836-6.031,8.04-16.54,8.04-28.5C247.267,85.366,239.266,70.079,229.456,70.378Zm0,0" transform="translate(-107.995 -35.814)" fill="#f9b50b"/>
      <path id="Caminho_520" data-name="Caminho 520" d="M245.839,159.264a21.364,21.364,0,0,1-30.753.015,2.556,2.556,0,0,0-1.469-.744c1.188,7.953,3.837,14.71,7.355,19.093,1.635,2.037,2.6,5.575,2.6,9.336v1.542c0,1.809.758,3.277,1.694,3.277h10.37c.936,0,1.694-1.468,1.694-3.277v-1.542c0-3.766.975-7.3,2.611-9.344,3.516-4.385,6.164-11.146,7.349-19.1A2.538,2.538,0,0,0,245.839,159.264Zm0,0" transform="translate(-108.711 -80.672)" fill="#f79d0d"/>
      <path id="Caminho_521" data-name="Caminho 521" d="M358.131,31.815l-52.6-30.371a10.876,10.876,0,0,0-14.813,3.969L257.254,63.372a10.876,10.876,0,0,0,3.969,14.811l52.6,30.371a10.878,10.878,0,0,0,14.813-3.969L362.1,46.627a10.872,10.872,0,0,0-3.969-14.811Zm0,0" transform="translate(-130.184 0)" fill="#abe4fe"/>
      <path id="Caminho_522" data-name="Caminho 522" d="M326.233,13.4l-20.7-11.953a10.876,10.876,0,0,0-14.813,3.969L257.254,63.372a10.876,10.876,0,0,0,3.969,14.811l20.085,11.6,38.8-67.167a2.836,2.836,0,0,0,.315-2.072c-1.633-6.822,5.807-7.144,5.809-7.144Zm0,0" transform="translate(-130.184 0)" fill="#82c6f9"/>
      <path id="Caminho_523" data-name="Caminho 523" d="M367.293,50.517l-53-30.6a.794.794,0,0,0-1.086.29l-30.027,52.01a.794.794,0,0,0,.292,1.086l53,30.6a.794.794,0,0,0,1.086-.29L367.583,51.6A.793.793,0,0,0,367.293,50.517Zm0,0" transform="translate(-144.06 -10.083)" fill="#52b0f5"/>
      <path id="Caminho_524" data-name="Caminho 524" d="M314.3,19.92a.794.794,0,0,0-1.086.29l-30.027,52.01a.8.8,0,0,0,.291,1.086l20.285,11.711L333.984,32.7a2.884,2.884,0,0,0,.369-1.2Zm0,0" transform="translate(-144.06 -10.083)" fill="#2299f2"/>
      <path id="Caminho_525" data-name="Caminho 525" d="M326.941,108.2a8.592,8.592,0,0,1-10.524-6.075l-1.136-4.238a8.593,8.593,0,0,0-10.524-6.075l-13.981,3.746-7.593,13.15a.8.8,0,0,0,.292,1.086l53,30.6a.791.791,0,0,0,1.084-.29L361.288,99Zm0,0" transform="translate(-144.06 -46.575)" fill="#2299f2"/>
      <path id="Caminho_526" data-name="Caminho 526" d="M315.28,97.891a8.593,8.593,0,0,0-10.524-6.075l-13.981,3.746-7.593,13.15a.8.8,0,0,0,.291,1.086l20.285,11.711L315.953,100.4Zm0,0" transform="translate(-144.06 -46.575)" fill="#1588e8"/>
      <path id="Caminho_527" data-name="Caminho 527" d="M372.944,88.211l-52.6-30.371a10.878,10.878,0,0,0-14.813,3.969l-33.461,57.959a10.878,10.878,0,0,0,3.969,14.813l52.6,30.369a10.872,10.872,0,0,0,14.811-3.969l33.461-57.957a10.874,10.874,0,0,0-3.969-14.813Zm0,0" transform="translate(-137.722 -28.7)" fill="#d9f5ff"/>
      <path id="Caminho_528" data-name="Caminho 528" d="M382.107,106.912l-53-30.6a.792.792,0,0,0-1.084.292L298,128.616a.794.794,0,0,0,.292,1.084l53,30.6a.794.794,0,0,0,1.084-.292L382.4,108A.8.8,0,0,0,382.107,106.912Zm0,0" transform="translate(-151.598 -38.783)" fill="#52b0f5"/>
      <path id="Caminho_529" data-name="Caminho 529" d="M135.542,414.023c.29,0,.577-.014.863-.033C136.405,413.99,128.4,414.023,135.542,414.023Zm-2.551-3.89" transform="translate(-67.47 -208.72)" fill="#483ba8"/>
      <path id="Caminho_534" data-name="Caminho 534" d="M341.045,69.795l-20.7-11.955a10.878,10.878,0,0,0-14.813,3.969l-33.462,57.959a10.878,10.878,0,0,0,3.969,14.813l20.085,11.594,38.8-67.165a2.841,2.841,0,0,0,.315-2.074c-1.633-6.82,5.807-7.142,5.809-7.142Zm0,0" transform="translate(-137.722 -28.7)" fill="#abe4fe"/>
      <path id="Caminho_535" data-name="Caminho 535" d="M329.109,76.315a.792.792,0,0,0-1.084.292L298,128.617a.794.794,0,0,0,.292,1.084l20.284,11.711L348.8,89.091a2.883,2.883,0,0,0,.366-1.2Zm0,0" transform="translate(-151.598 -38.783)" fill="#2299f2"/>
      <path id="Caminho_536" data-name="Caminho 536" d="M341.753,164.6a8.593,8.593,0,0,1-10.524-6.077l-1.135-4.236a8.593,8.593,0,0,0-10.524-6.077l-13.981,3.747L298,165.109a.794.794,0,0,0,.292,1.084l53,30.6a.794.794,0,0,0,1.084-.292L376.1,155.4Zm0,0" transform="translate(-151.599 -75.275)" fill="#83d912"/>
      <path id="Caminho_537" data-name="Caminho 537" d="M384.258,118.808a6.94,6.94,0,1,0,2.54,9.48A6.941,6.941,0,0,0,384.258,118.808Zm0,0" transform="translate(-190.254 -59.989)" fill="#fbc840"/>
      <path id="Caminho_538" data-name="Caminho 538" d="M382.113,126.821a4.79,4.79,0,0,1,.721-8.636,6.932,6.932,0,1,0,4.723,8.178,4.789,4.789,0,0,1-5.444.459Zm0,0" transform="translate(-190.255 -59.988)" fill="#f9b50b"/>
      <path id="Caminho_539" data-name="Caminho 539" d="M330.766,156.8l-.673-2.511a8.59,8.59,0,0,0-10.524-6.075l-13.981,3.745L298,165.11a.8.8,0,0,0,.292,1.086l20.284,11.711c-1.8-17.443,12.195-21.107,12.195-21.107Zm0,0" transform="translate(-151.599 -75.276)" fill="#5bbf02"/>
    </g>
    <text id="DICAS" transform="translate(44.734 199.521)" fill="#483ba8" font-size="46" font-family="OpenSans-ExtraBold, Open Sans" font-weight="800" letter-spacing="-0.015em"><tspan x="0" y="0">DICAS</tspan></text>
  </g>
</svg>
