<svg xmlns="http://www.w3.org/2000/svg" width="56.8" height="58.29" viewBox="0 0 56.8 58.29"><path d="M54.1,62.756a27.373,27.373,0,0,0,3.2-12.864C57.3,34.488,44.585,22,28.9,22S.5,34.488.5,49.893A27.372,27.372,0,0,0,3.7,62.756Zm0,0" transform="translate(-0.5 -19.495)" fill="#fbc840"/><path d="M154.782.131c-6.3.858-6.9,4.431-6.9,5.741a.723.723,0,0,1-.4.65c-3.277,1.594-1.51,9.505-1.51,9.505a2.661,2.661,0,0,1,.93.28,8.721,8.721,0,0,1,.539-1.377,4.805,4.805,0,0,1,.421-.842,2.584,2.584,0,0,0,.4-1.58c-.117-1.6-.289-4.533,1.827-5.486a7.8,7.8,0,0,1,5.394.127,4.451,4.451,0,0,0,2.807,0,7.8,7.8,0,0,1,5.394-.127c2.11.949,1.944,3.865,1.828,5.472a2.608,2.608,0,0,0,.394,1.593,4.836,4.836,0,0,1,.432.869,8.838,8.838,0,0,1,.528,1.35,2.235,2.235,0,0,1,1.183-.272c.048-1.68.2-3.719.2-3.719C170.112,3.172,161.565-.793,154.782.131Zm0,0" transform="translate(-128.476 0)" fill="#3c2b8e"/><path d="M156.5.023a14.372,14.372,0,0,0-1.721.128c-6.3.858-6.9,4.431-6.9,5.741a.723.723,0,0,1-.4.65c-3.278,1.594-1.51,9.505-1.51,9.505a2.661,2.661,0,0,1,.93.28,8.721,8.721,0,0,1,.538-1.377,4.836,4.836,0,0,1,.422-.842,2.584,2.584,0,0,0,.4-1.58c-.117-1.6-.289-4.533,1.827-5.486a7.175,7.175,0,0,1,4.669-.09c-.02-.046-.038-.092-.059-.137C152.215,1.423,156.3.086,156.5.023Zm0,0" transform="translate(-128.612 -0.021)" fill="#2c217c"/><path d="M330.53,138.779a1.857,1.857,0,0,0-1.937.054,5.79,5.79,0,0,1,.019,1.749l-.511,3.632q0,.439-.027.862a1.569,1.569,0,0,0,1.969-1.474,5.461,5.461,0,0,1,.22-.951C330.594,141.64,331.789,139.9,330.53,138.779Zm0,0" transform="translate(-290.063 -122.753)" fill="#fe9d9a"/><path d="M329.585,167.595a1.628,1.628,0,0,1-1.141-.466l-.342,2.433q0,.439-.027.862a1.569,1.569,0,0,0,1.969-1.474,5.459,5.459,0,0,1,.22-.951c.071-.215.18-.463.3-.73A1.621,1.621,0,0,1,329.585,167.595Zm0,0" transform="translate(-290.071 -148.102)" fill="#f98f8f"/><path d="M136.961,138.779a1.858,1.858,0,0,1,1.937.054,5.79,5.79,0,0,0-.018,1.749l.511,3.632q0,.439.027.862a1.569,1.569,0,0,1-1.969-1.474,5.46,5.46,0,0,0-.22-.951c-.332-1.01-1.527-2.746-.268-3.872Zm0,0" transform="translate(-120.628 -122.753)" fill="#fe9d9a"/><path d="M143.15,167.242a1.626,1.626,0,0,1-2.127.109c.12.275.233.529.305.749a5.468,5.468,0,0,1,.22.951,1.569,1.569,0,0,0,1.969,1.474q-.026-.424-.027-.862Zm0,0" transform="translate(-124.72 -148.202)" fill="#f98f8f"/><path d="M196.787,265.96a10.345,10.345,0,0,1-.867-4.108c-1.7,1.982-3.639,3.332-6.273,3.332s-4.571-1.35-6.273-3.332a10.347,10.347,0,0,1-.867,4.108,14.4,14.4,0,0,0,2.448,8.82l.177.341A12.092,12.092,0,0,1,186.5,280.7v9.226a28.153,28.153,0,0,0,6.3,0V280.7a12.093,12.093,0,0,1,1.364-5.579l.177-.341A14.4,14.4,0,0,0,196.787,265.96Zm0,0" transform="translate(-161.247 -232.041)" fill="#fe9d9a"/><path d="M185.133,275.121a12.085,12.085,0,0,1,.957,2.473,8.805,8.805,0,0,0,7.116,0,12.077,12.077,0,0,1,.957-2.474l.177-.341a16.562,16.562,0,0,0,1.919-4.185,4.092,4.092,0,0,1-1.681.626A7.629,7.629,0,0,0,190,273.479a.367.367,0,0,1-.527,0,7.614,7.614,0,0,0-1.985-1.467,1.354,1.354,0,0,1-.666-1.617,24.6,24.6,0,0,0,.949-5.46,9.076,9.076,0,0,1-4.4-3.083h0c-.01.285-.028.591-.057.909a9.138,9.138,0,0,1-.81,3.2,14.4,14.4,0,0,0,2.448,8.815Zm0,0" transform="translate(-161.255 -232.04)" fill="#f98f8f"/><path d="M186.19,378.059a8.781,8.781,0,0,1-6.965-3.426h-.655v14.585a28.074,28.074,0,0,0,15.24,0V374.633h-.655A8.782,8.782,0,0,1,186.19,378.059Zm0,0" transform="translate(-157.79 -331.982)" fill="#d9f5ff"/><path d="M186.19,378.059a8.781,8.781,0,0,1-6.965-3.426h-.655v3.878a12.492,12.492,0,0,0,15.24,0v-3.878h-.655A8.782,8.782,0,0,1,186.19,378.059Zm0,0" transform="translate(-157.79 -331.982)" fill="#abe4fe"/><path d="M176.926,64.434a4.871,4.871,0,0,0-.432-.869,2.607,2.607,0,0,1-.394-1.593c.116-1.607.054-4.75-2.056-5.7a7.789,7.789,0,0,0-5.393.127,4.454,4.454,0,0,1-2.808,0,7.789,7.789,0,0,0-5.393-.127c-2.116.952-2.172,4.111-2.055,5.713a2.585,2.585,0,0,1-.4,1.58,4.812,4.812,0,0,0-.421.841,5.809,5.809,0,0,0-.329,2.9l.5,3.633a13.349,13.349,0,0,0,5.16,10.615,7.087,7.087,0,0,0,8.678,0,13.348,13.348,0,0,0,5.16-10.615l.5-3.632A5.814,5.814,0,0,0,176.926,64.434Zm0,0" transform="translate(-138.846 -49.477)" fill="#ffbaae"/><path d="M166.842,81.553a15.441,15.441,0,0,1-3.748-10.615l-.362-3.633a7.87,7.87,0,0,1,.239-2.9,5.724,5.724,0,0,1,.306-.842,3.379,3.379,0,0,0,.287-1.58c-.086-1.6-.044-4.761,1.492-5.713.041-.025.083-.05.124-.072a7.228,7.228,0,0,0-4.734.072c-2.116.952-2.172,4.111-2.055,5.713a2.584,2.584,0,0,1-.4,1.58,4.836,4.836,0,0,0-.422.842,5.807,5.807,0,0,0-.329,2.9l.5,3.633a13.347,13.347,0,0,0,5.16,10.615,7.074,7.074,0,0,0,5.932,1.3,4.692,4.692,0,0,1-1.995-1.3Zm0,0" transform="translate(-138.941 -49.478)" fill="#fe9d9a"/><path d="M47.892,300.4c-3.368-5.327-2.334-9.638-2.334-9.638a4.846,4.846,0,0,1-.941,1.712c-.037.041-.072.085-.112.124a26.3,26.3,0,0,0-3.759,1.172c-3.817,1.509-4.52,2.586-5.905,2.7a8.984,8.984,0,0,0-7.3,4.339,27.908,27.908,0,0,0,21.89,14.99v-9.478a12.093,12.093,0,0,0-1.364-5.579Zm0,0" transform="translate(-24.464 -257.656)" fill="#52b0f5"/><path d="M35.717,338.973a2.881,2.881,0,0,1-.876.217,8.984,8.984,0,0,0-7.3,4.339,27.976,27.976,0,0,0,5.511,7.383c-1.668-4.314-.39-9.529,2.663-11.939Zm0,0" transform="translate(-24.464 -300.382)" fill="#2299f2"/><path d="M192.972,374.725c-.019-.03-.036-.059-.054-.089l-1.656,1.485a13.968,13.968,0,0,1,3.251,4.523,12.092,12.092,0,0,0-1.363-5.579Zm0,0" transform="translate(-169.124 -331.985)" fill="#2299f2"/><path d="M293.07,300.8a8.984,8.984,0,0,0-7.3-4.339c-1.386-.113-2.088-1.19-5.905-2.7a26.248,26.248,0,0,0-3.759-1.172c-.039-.039-.075-.083-.112-.124a4.851,4.851,0,0,1-.941-1.712s1.034,4.311-2.334,9.638l-.177.341a12.1,12.1,0,0,0-1.364,5.579v9.478A27.908,27.908,0,0,0,293.07,300.8Zm0,0" transform="translate(-239.349 -257.656)" fill="#52b0f5"/><path d="M272.724,374.725c.019-.03.036-.059.054-.089l1.656,1.485a13.969,13.969,0,0,0-3.251,4.523,12.093,12.093,0,0,1,1.364-5.579Zm0,0" transform="translate(-239.772 -331.985)" fill="#2299f2"/><path d="M255.937,133.331a1.943,1.943,0,0,0-1.029,2.913c.882,1.388,2.551,3.208,4.652,3.208s2.814-2.045,2.814-3.283a3.22,3.22,0,0,0-3.471-3.282A9.638,9.638,0,0,0,255.937,133.331Zm0,0" transform="translate(-225.051 -117.758)" fill="#3c2b8e"/><path d="M174.48,133.331a1.943,1.943,0,0,1,1.029,2.913c-.881,1.388-2.551,3.208-4.652,3.208s-2.814-2.045-2.814-3.283a3.22,3.22,0,0,1,3.47-3.282A9.644,9.644,0,0,1,174.48,133.331Zm0,0" transform="translate(-148.565 -117.758)" fill="#3c2b8e"/><path d="M257.243,135.965a1.943,1.943,0,0,1,1.029-2.913l.056-.017a9.449,9.449,0,0,0-2.391.427,1.943,1.943,0,0,0-1.029,2.913c.881,1.388,2.551,3.208,4.652,3.208a2.532,2.532,0,0,0,1.559-.494A6.781,6.781,0,0,1,257.243,135.965Zm0,0" transform="translate(-225.066 -117.89)" fill="#2c217c"/><path d="M170.378,135.758A3.261,3.261,0,0,1,172,132.9c-.158-.007-.321-.011-.488-.011a3.22,3.22,0,0,0-3.47,3.282c0,1.238.713,3.283,2.814,3.283a4,4,0,0,0,1.816-.457C170.973,138.689,170.378,136.888,170.378,135.758Zm0,0" transform="translate(-148.591 -117.758)" fill="#2c217c"/><path d="M232.465,142.555a1.119,1.119,0,0,0-1.219,0l-.036.022a.739.739,0,0,1-.764-1.266,2.6,2.6,0,0,1,2.826,0,.739.739,0,0,1-.807,1.239Zm0,0" transform="translate(-203.456 -124.855)" fill="#554cbf"/><path d="M154.825,290.758a7.354,7.354,0,0,0-3.978,2.693,24.706,24.706,0,0,0,1.926,8.921,1.058,1.058,0,0,0,1.677.4l2.708-2.372c-2.872-6.424-2.334-9.638-2.334-9.638Zm0,0" transform="translate(-133.38 -257.656)" fill="#abe4fe"/><path d="M287.049,290.758a7.354,7.354,0,0,1,3.978,2.693,24.707,24.707,0,0,1-1.926,8.921,1.058,1.058,0,0,1-1.677.4l-2.708-2.372C287.587,293.972,287.049,290.758,287.049,290.758Zm0,0" transform="translate(-251.694 -257.656)" fill="#abe4fe"/><g transform="translate(17.624 33.102)"><path d="M155.862,297.075c-1.39-4.21-1.038-6.318-1.038-6.318a7.352,7.352,0,0,0-3.978,2.692,21.563,21.563,0,0,0,.735,5.344A2.882,2.882,0,0,1,155.862,297.075Zm0,0" transform="translate(-150.847 -290.758)" fill="#82c6f9"/><path d="M296.1,297.075c1.39-4.21,1.038-6.318,1.038-6.318a7.352,7.352,0,0,1,3.977,2.692,21.564,21.564,0,0,1-.735,5.344A2.882,2.882,0,0,0,296.1,297.075Zm0,0" transform="translate(-279.565 -290.758)" fill="#82c6f9"/></g></svg>