<svg xmlns="http://www.w3.org/2000/svg" width="490" height="512" viewBox="0 0 490 512">
  <g id="_048-door_hanger" data-name="048-door hanger" transform="translate(-0.5)">
    <path id="Caminho_1675" data-name="Caminho 1675" d="M245.5,22C110.191,22,.5,131.688.5,267A244.711,244.711,0,0,0,106.754,468.934l277.508-.008A244.723,244.723,0,0,0,490.5,267c0-135.313-109.691-245-245-245Zm0,0" fill="#3c2b8e"/>
    <path id="Caminho_1676" data-name="Caminho 1676" d="M148.285,42.063a118.6,118.6,0,1,0,194.446.008,245.557,245.557,0,0,0-194.445-.008Zm0,0" fill="#2c217c"/>
    <path id="Caminho_1677" data-name="Caminho 1677" d="M134.359,130.242a22.545,22.545,0,0,0,23.508-15.434A89.4,89.4,0,0,1,245.035,53.66c47.324,1.211,85.859,39.8,87.008,87.125a89.375,89.375,0,0,1-89.348,91.6H148.66a34.679,34.679,0,0,0-34.586,32.184L341.828,492.32a243.965,243.965,0,0,0,35.207-18.6V144.09h0c.586-74.121-60.215-135.426-134.34-135.426a134.388,134.388,0,0,0-127.32,91.406c-4.961,14.715,3.527,28.727,18.988,30.172Zm0,0" fill="#fbc840"/>
    <path id="Caminho_1678" data-name="Caminho 1678" d="M134.359,130.242a22.545,22.545,0,0,0,23.508-15.434,89.635,89.635,0,0,1,41.063-49.73l-4.4-16.988c-7.426-3.445-9-9.074-9.1-12.957a6.677,6.677,0,0,0-3.594-5.812,11.3,11.3,0,0,1-4.379-3.758,134.712,134.712,0,0,0-62.086,74.508c-4.961,14.715,3.527,28.727,18.988,30.172Zm0,0" fill="#f9b50b"/>
    <path id="Caminho_1679" data-name="Caminho 1679" d="M239.984,241.047c-3.2-3.2-4.324-6.145-4.383-8.664H148.66a34.682,34.682,0,0,0-34.586,32.188l125.91,125.906Zm0,0" fill="#f9b50b"/>
    <path id="Caminho_1680" data-name="Caminho 1680" d="M245.5,512a244.151,244.151,0,0,0,98.066-20.434L114.308,262.308a34.757,34.757,0,0,0-.332,4.758V473.73A243.82,243.82,0,0,0,245.5,512Zm0,0" fill="#f7577a"/>
    <path id="Caminho_1681" data-name="Caminho 1681" d="M239.984,387.984,114.308,262.308a34.757,34.757,0,0,0-.332,4.758V473.73a243.719,243.719,0,0,0,126.008,38.2Zm0,0" fill="#d93a59"/>
    <path id="Caminho_1682" data-name="Caminho 1682" d="M133.551,138.871a31.131,31.131,0,0,0,32.539-21.332A80.72,80.72,0,1,1,242.7,223.719H148.66A43.418,43.418,0,0,0,106.5,257l16.137,16.137v-6.066a26.048,26.048,0,0,1,26.02-26.02H242.7A98.042,98.042,0,0,0,245.258,45a97.281,97.281,0,0,0-59.527,18.207,98.868,98.868,0,0,0-36.086,48.871,13.867,13.867,0,0,1-14.477,9.539c-4.578-.43-8.3-2.512-10.473-5.859-2.32-3.57-2.719-8.16-1.113-12.918a125.757,125.757,0,0,1,244.785,41.184c0,.105,0,.207,0,.309V479q8.912-5.174,17.328-11.07V143.91A143.025,143.025,0,0,0,107.156,97.3c-3.281,9.738-2.184,19.906,3.008,27.895a30.957,30.957,0,0,0,23.387,13.672Zm0,0" fill="#fcdb75"/>
    <path id="Caminho_1683" data-name="Caminho 1683" d="M133.551,138.871a31.131,31.131,0,0,0,32.539-21.332,80.359,80.359,0,0,1,35.066-43.863l-4.469-17.262a98.3,98.3,0,0,0-47.043,55.66,13.858,13.858,0,0,1-14.477,9.539,13.568,13.568,0,0,1-10.473-5.855c-2.32-3.574-2.719-8.16-1.113-12.918a125.48,125.48,0,0,1,60.8-71.18,6.556,6.556,0,0,0-2.551-2.34c-8.762-4.52-5.25-13.156-5.25-13.156A142.8,142.8,0,0,0,107.156,97.3c-3.281,9.738-2.187,19.906,3,27.895a30.971,30.971,0,0,0,23.391,13.672Zm0,0" fill="#fbc840"/>
    <path id="Caminho_1684" data-name="Caminho 1684" d="M239.984,223.719H148.66A43.418,43.418,0,0,0,106.5,257l16.137,16.137v-6.066a26.048,26.048,0,0,1,26.02-26.02h91.324c-9.879-9.875,0-17.328,0-17.328Zm0,0" fill="#fbc840"/>
    <path id="Caminho_1685" data-name="Caminho 1685" d="M122.641,479V270.641l-15.617-15.617a43.2,43.2,0,0,0-1.715,12.043V467.934q8.42,5.883,17.332,11.07Zm0,0" fill="#f97396"/>
    <path id="Caminho_1686" data-name="Caminho 1686" d="M339.914,394a94.41,94.41,0,1,1-94.41-94.41A94.406,94.406,0,0,1,339.914,394Zm0,0" fill="#d9f5ff"/>
    <path id="Caminho_1687" data-name="Caminho 1687" d="M245.508,386c-18.176-20-3.82-48.953-3.82-48.953l-.754-17.32c-10.906-10.906-.973-19.953-.949-19.977a94.406,94.406,0,0,0,1.7,188.574c-10.863-10.867,0-20.059,0-20.059V450.949c-18.859-26.617-5.27-53.781-5.27-53.781Zm0,0" fill="#abe4fe"/>
    <path id="Caminho_1688" data-name="Caminho 1688" d="M245.508,468.422a74.426,74.426,0,1,1,52.625-21.8A73.921,73.921,0,0,1,245.508,468.422Zm0-131.52a57.1,57.1,0,1,0,40.367,16.727A56.726,56.726,0,0,0,245.508,336.9Zm0,0" fill="#f7577a"/>
    <path id="Caminho_1689" data-name="Caminho 1689" d="M292,449.16a8.649,8.649,0,0,1-6.129-2.539l-92.992-92.992a8.666,8.666,0,0,1,12.254-12.258l93,93A8.666,8.666,0,0,1,292,449.16Zm0,0" fill="#f7577a"/>
    <path id="Caminho_1690" data-name="Caminho 1690" d="M314.934,69.895A80.187,80.187,0,1,0,285.582,179.43,80.188,80.188,0,0,0,314.934,69.895Zm0,0" fill="#554cbf"/>
    <path id="Caminho_1691" data-name="Caminho 1691" d="M251.469,123.328,236.934,98.152c-30.785,12.91-60.27-21.594-42.4-50.062a80.18,80.18,0,0,0,79.09,136.988c-33.613,1.242-48.707-41.566-22.156-61.75Zm0,0" fill="#483ba8"/>
    <path id="Caminho_1692" data-name="Caminho 1692" d="M262.629,109.992A17.133,17.133,0,1,1,245.5,92.859,17.131,17.131,0,0,1,262.629,109.992Zm0,0" fill="#6464d8"/>
    <g id="Grupo_52" data-name="Grupo 52">
      <path id="Caminho_1693" data-name="Caminho 1693" d="M248.676,384.91l-43.539-43.539a8.668,8.668,0,0,0-12.258,12.258l43.543,43.539a9.624,9.624,0,0,1,12.254-12.258Zm0,0" fill="#d93a59"/>
      <path id="Caminho_1694" data-name="Caminho 1694" d="M241.691,450.949a57.078,57.078,0,0,1,0-113.9,9.638,9.638,0,0,1-.754-17.32,73.867,73.867,0,0,0-48.055,21.645c-45.512,45.516-15.23,123.082,48.055,126.895a9.634,9.634,0,0,1,.758-17.316Zm0,0" fill="#d93a59"/>
    </g>
  </g>
</svg>
