<svg xmlns="http://www.w3.org/2000/svg" width="54" height="54" viewBox="0 0 54 54">
  <g id="pinterest" transform="translate(-0.001 -0.002)">
    <circle id="Elipse_90" data-name="Elipse 90" cx="27" cy="27" r="27" transform="translate(0.001 0.002)" fill="#cb2027"/>
    <g id="Grupo_507" data-name="Grupo 507" transform="translate(13.958 11.838)">
      <path id="Caminho_3936" data-name="Caminho 3936" d="M44.222,48.912c-2.041-.158-2.9-1.17-4.5-2.142-.88,4.616-1.955,9.041-5.14,11.353-.984-6.977,1.443-12.217,2.57-17.78-1.921-3.234.231-9.744,4.284-8.14,4.988,1.972-4.318,12.026,1.929,13.282,6.522,1.311,9.185-11.317,5.14-15.424-5.844-5.93-17.011-.135-15.637,8.354.335,2.075,2.479,2.705.857,5.569-3.74-.828-4.856-3.778-4.712-7.711.232-6.437,5.784-10.945,11.354-11.569,7.044-.788,13.655,2.587,14.568,9.212,1.027,7.478-3.18,15.576-10.711,14.995Z" transform="translate(-29 -24.593)" fill="#f1f2f2"/>
    </g>
  </g>
</svg>
