<svg xmlns="http://www.w3.org/2000/svg" viewBox="0 0 500 500"><g id="freepik--background-complete--inject-36"><rect y="382.4" width="500" height="0.25" style="fill:#e0e0e0"></rect><rect x="363.22" y="390" width="17.85" height="0.25" style="fill:#e0e0e0"></rect><rect x="391.89" y="389.88" width="43.57" height="0.25" style="fill:#e0e0e0"></rect><rect x="244.7" y="394.26" width="64.97" height="0.25" style="fill:#e0e0e0"></rect><rect x="227.72" y="394.26" width="11.22" height="0.25" style="fill:#e0e0e0"></rect><rect x="94.78" y="389.63" width="42" height="0.25" style="fill:#e0e0e0"></rect><rect x="142.33" y="389.63" width="29.82" height="0.25" style="fill:#e0e0e0"></rect><rect x="66.89" y="394.14" width="35.61" height="0.25" style="fill:#e0e0e0"></rect><path d="M237,337.8H43.91a5.71,5.71,0,0,1-5.7-5.71V60.66A5.71,5.71,0,0,1,43.91,55H237a5.71,5.71,0,0,1,5.71,5.71V332.09A5.71,5.71,0,0,1,237,337.8ZM43.91,55.2a5.46,5.46,0,0,0-5.45,5.46V332.09a5.46,5.46,0,0,0,5.45,5.46H237a5.47,5.47,0,0,0,5.46-5.46V60.66A5.47,5.47,0,0,0,237,55.2Z" style="fill:#e0e0e0"></path><path d="M453.31,337.8H260.21a5.72,5.72,0,0,1-5.71-5.71V60.66A5.72,5.72,0,0,1,260.21,55h193.1A5.71,5.71,0,0,1,459,60.66V332.09A5.71,5.71,0,0,1,453.31,337.8ZM260.21,55.2a5.47,5.47,0,0,0-5.46,5.46V332.09a5.47,5.47,0,0,0,5.46,5.46h193.1a5.47,5.47,0,0,0,5.46-5.46V60.66a5.47,5.47,0,0,0-5.46-5.46Z" style="fill:#e0e0e0"></path><path d="M285.43,92.4c-5-10.85-1-18.57,11.24-18.57,7.69,0,17.23,3,26.52,8,1.05-2.82,4-4.51,8.76-4.51,8.37,0,19.91,5.22,29,12.59,2.19-1.64,5.36-2.65,9.43-2.81,8-.33,17.71,2.67,26.15,7.55a5.14,5.14,0,0,1,3.71-1.41c4.62-.19,10.86,2.84,14,6.77.19.24.36.48.53.72H279.2C274.92,96.87,279.65,92.59,285.43,92.4Z" style="fill:#f5f5f5"></path><path d="M70.75,139.55a14.76,14.76,0,0,1,1.5-.08c-.47-5.2,2.23-8.52,8-8.52,4.15,0,9.25,1.73,14.44,4.67C93.2,125.52,98,119,108.73,119c8.7,0,19.7,4.27,30.58,11.23.95-4,4.15-6.34,9.53-6.34,9.46,0,22.89,7.34,33.67,17.69,0,0,0,0,0,0,2.33-2.31,5.82-3.74,10.42-4,9-.47,20.18,3.74,30.09,10.61a4.86,4.86,0,0,1,4.09-2c4.93-.26,11.71,3.53,15.65,8.6H62.83C58.6,147.14,62,140.42,70.75,139.55Z" style="fill:#f5f5f5"></path><rect x="323.37" y="258.29" width="93.5" height="50.99" transform="translate(740.23 567.58) rotate(180)" style="fill:#e6e6e6"></rect><rect x="291.12" y="258.29" width="32.25" height="50.99" style="fill:#e0e0e0"></rect><rect x="322.11" y="215.69" width="2.52" height="166.7" transform="translate(646.74 598.09) rotate(180)" style="fill:#f5f5f5"></rect><rect x="289.86" y="215.69" width="2.52" height="166.7" transform="translate(582.24 598.09) rotate(180)" style="fill:#f5f5f5"></rect><rect x="415.61" y="215.69" width="2.52" height="166.7" transform="translate(833.73 598.09) rotate(180)" style="fill:#f5f5f5"></rect><polygon points="418.13 215.69 322.11 215.69 353.97 194.19 418.13 215.69" style="fill:#e6e6e6"></polygon><polygon points="289.86 215.69 322.11 215.69 353.97 194.19 289.86 215.69" style="fill:#e0e0e0"></polygon><path d="M74.87,382.4H92c9-15.64,13.93-57.53,1.35-103.06a207.22,207.22,0,0,0-7.8-22.91C80.82,320.37,60.3,363.43,74.87,382.4Z" style="fill:#f0f0f0"></path><path d="M106.57,382.4H89.4c-8-11.56-10.31-42.52,5.13-76.17a141.22,141.22,0,0,1,9.24-16.94C104.52,336.56,122.34,368.38,106.57,382.4Z" style="fill:#f0f0f0"></path><path d="M115.3,333.12c13.33-20.67,11.82,40.25,36.33,13.18,30.1-33.26,73.3-44.4,54.42-18.95s-7.64,34.28,40,5.77c34.57-20.67-29.17,41.3-11.71,38.95s43.84-7.18,21.26,10.33H109.17S102,353.8,115.3,333.12Z" style="fill:#ebebeb"></path><path d="M410.21,382.4s2.76-24.44-17.1-37c5.67,17.72-.13,37-.13,37Z" style="fill:#ebebeb"></path><path d="M399.17,382.4s5.61-20,25.88-30.24a69,69,0,0,0-11.81,30.24Z" style="fill:#ebebeb"></path><path d="M260.24,382.4s1-11.9,11.87-18a35.8,35.8,0,0,0-3.48,18Z" style="fill:#f5f5f5"></path><path d="M254,382.4s.73-20,14-27.23c-5.92,10.25-5.58,27.23-5.58,27.23Z" style="fill:#f5f5f5"></path><path d="M53.86,382.4s.53-4.94,6.27-7.48a12.08,12.08,0,0,0-1.84,7.48Z" style="fill:#f5f5f5"></path><path d="M444.07,382.4a20.59,20.59,0,0,1,7.6-18.51c-3.06,4.94-4,15.61-2.58,18.51Z" style="fill:#ebebeb"></path><path d="M109.25,382.4c2-11.33-.61-38.25-22.82-55.57,9.17,14.84,12,46.87,7.76,55.57Z" style="fill:#fafafa"></path><path d="M57.16,382.4s-.39-8.29-7.38-11.3c3.13,4.26,2.95,11.3,2.95,11.3Z" style="fill:#f5f5f5"></path></g><g id="freepik--Shadow--inject-36"><ellipse cx="250" cy="416.24" rx="193.89" ry="11.32" style="fill:#f5f5f5"></ellipse></g><g id="freepik--Plants--inject-36"><path d="M286.18,158.22s-76.41,87.27-38.73,252.22H284.5a4.28,4.28,0,0,0,4.05-5.67c-9.77-28.4-49.15-157.08,7-239.85C290.12,161.37,286.18,158.22,286.18,158.22Z" style="fill:#407BFF"></path><path d="M286.18,158.22s-76.41,87.27-38.73,252.22H284.5a4.28,4.28,0,0,0,4.05-5.67c-9.77-28.4-49.15-157.08,7-239.85C290.12,161.37,286.18,158.22,286.18,158.22Z" style="fill:#f5f5f5;opacity:0.30000000000000004"></path><g style="mix-blend-mode:multiply"><path d="M280.9,192.34c-.45,1.06-.88,2.12-1.28,3.19a56,56,0,0,0-16.44.71c.59-1.26,1.17-2.49,1.76-3.68A60.48,60.48,0,0,1,280.9,192.34Z" style="fill:#407BFF"></path><path d="M274.61,210.33c-.31,1.06-.61,2.11-.89,3.18-5.1-2.48-10.88-3-16.64-3,.43-1.11.86-2.2,1.31-3.28C264.05,207.37,269.57,208,274.61,210.33Z" style="fill:#407BFF"></path><path d="M270,230.11c-.21,1.09-.4,2.18-.58,3.27-6.41-2.14-13.06-3.47-19.51-2.15.35-1.19.72-2.37,1.1-3.54C257.29,226.84,263.72,228.07,270,230.11Z" style="fill:#407BFF"></path><path d="M266.89,253.75c-.09,1.11-.17,2.23-.24,3.35a56.57,56.57,0,0,0-22.88-2c.23-1.15.48-2.27.74-3.39A60.53,60.53,0,0,1,266.89,253.75Z" style="fill:#407BFF"></path><path d="M266,279.75a62.3,62.3,0,0,0-26.55,1c.15-1.2.3-2.39.47-3.56a65.19,65.19,0,0,1,26.06-.85C266,277.47,266,278.62,266,279.75Z" style="fill:#407BFF"></path><path d="M268.05,312.53a100.82,100.82,0,0,0-31,5.66c0-1.18,0-2.34.05-3.5a104.69,104.69,0,0,1,30.62-5.44C267.82,310.35,267.93,311.44,268.05,312.53Z" style="fill:#407BFF"></path><path d="M273.68,349.06a141.8,141.8,0,0,0-35.52,1.49c-.09-1.11-.18-2.24-.26-3.34A146,146,0,0,1,273,345.7C273.25,346.84,273.46,348,273.68,349.06Z" style="fill:#407BFF"></path></g><g style="opacity:0.1"><path d="M280.9,192.34c-.45,1.06-.88,2.12-1.28,3.19a56,56,0,0,0-16.44.71c.59-1.26,1.17-2.49,1.76-3.68A60.48,60.48,0,0,1,280.9,192.34Z"></path><path d="M274.61,210.33c-.31,1.06-.61,2.11-.89,3.18-5.1-2.48-10.88-3-16.64-3,.43-1.11.86-2.2,1.31-3.28C264.05,207.37,269.57,208,274.61,210.33Z"></path><path d="M270,230.11c-.21,1.09-.4,2.18-.58,3.27-6.41-2.14-13.06-3.47-19.51-2.15.35-1.19.72-2.37,1.1-3.54C257.29,226.84,263.72,228.07,270,230.11Z"></path><path d="M266.89,253.75c-.09,1.11-.17,2.23-.24,3.35a56.57,56.57,0,0,0-22.88-2c.23-1.15.48-2.27.74-3.39A60.53,60.53,0,0,1,266.89,253.75Z"></path><path d="M266,279.75a62.3,62.3,0,0,0-26.55,1c.15-1.2.3-2.39.47-3.56a65.19,65.19,0,0,1,26.06-.85C266,277.47,266,278.62,266,279.75Z"></path><path d="M268.05,312.53a100.82,100.82,0,0,0-31,5.66c0-1.18,0-2.34.05-3.5a104.69,104.69,0,0,1,30.62-5.44C267.82,310.35,267.93,311.44,268.05,312.53Z"></path><path d="M273.68,349.06a141.8,141.8,0,0,0-35.52,1.49c-.09-1.11-.18-2.24-.26-3.34A146,146,0,0,1,273,345.7C273.25,346.84,273.46,348,273.68,349.06Z"></path></g><path d="M221.07,380.58a252.68,252.68,0,0,0-1.56-30.37c-.11-1.11-.24-2.23-.4-3.36a214.49,214.49,0,0,0-6.5-32.12c-.3-1.08-.62-2.17-1-3.26a184.62,184.62,0,0,0-7.45-20.25c-.46-1-.91-2-1.39-3.05a159.36,159.36,0,0,0-8.72-16.36c-.58-.93-1.16-1.87-1.76-2.8a146.5,146.5,0,0,0-11.09-15.15c-.7-.83-1.4-1.65-2.12-2.48A144.26,144.26,0,0,0,167.7,239.7c-.88-.8-1.78-1.6-2.69-2.39a151.72,151.72,0,0,0-27-18.62,105.93,105.93,0,0,1,11.75-7c2.2.6,15.94,6.38,33.27,20,1.2.94,2.41,1.91,3.64,2.93,3.1,2.57,6.3,5.36,9.54,8.42.91.87,1.84,1.74,2.75,2.65A204.29,204.29,0,0,1,213.09,261c.91,1.1,1.82,2.23,2.75,3.38,3.38,4.28,6.75,8.86,10,13.77.66,1,1.3,2,2,3a217.28,217.28,0,0,1,13,23.17c.54,1.1,1.07,2.21,1.58,3.33A238.14,238.14,0,0,1,255,341.31c.34,1.11.66,2.22,1,3.34a273.6,273.6,0,0,1,6.3,28.3c.17,1.09.36,2.19.53,3.3a315.9,315.9,0,0,1,3.45,34.2H223.81a4.27,4.27,0,0,1-4.25-4.78c.53-4.52,1.24-12,1.45-21.59C221,382.94,221.06,381.78,221.07,380.58Z" style="fill:#407BFF"></path><path d="M221.07,380.58a252.68,252.68,0,0,0-1.56-30.37c-.11-1.11-.24-2.23-.4-3.36a214.49,214.49,0,0,0-6.5-32.12c-.3-1.08-.62-2.17-1-3.26a184.62,184.62,0,0,0-7.45-20.25c-.46-1-.91-2-1.39-3.05a159.36,159.36,0,0,0-8.72-16.36c-.58-.93-1.16-1.87-1.76-2.8a146.5,146.5,0,0,0-11.09-15.15c-.7-.83-1.4-1.65-2.12-2.48A144.26,144.26,0,0,0,167.7,239.7c-.88-.8-1.78-1.6-2.69-2.39a151.72,151.72,0,0,0-27-18.62,105.93,105.93,0,0,1,11.75-7c2.2.6,15.94,6.38,33.27,20,1.2.94,2.41,1.91,3.64,2.93,3.1,2.57,6.3,5.36,9.54,8.42.91.87,1.84,1.74,2.75,2.65A204.29,204.29,0,0,1,213.09,261c.91,1.1,1.82,2.23,2.75,3.38,3.38,4.28,6.75,8.86,10,13.77.66,1,1.3,2,2,3a217.28,217.28,0,0,1,13,23.17c.54,1.1,1.07,2.21,1.58,3.33A238.14,238.14,0,0,1,255,341.31c.34,1.11.66,2.22,1,3.34a273.6,273.6,0,0,1,6.3,28.3c.17,1.09.36,2.19.53,3.3a315.9,315.9,0,0,1,3.45,34.2H223.81a4.27,4.27,0,0,1-4.25-4.78c.53-4.52,1.24-12,1.45-21.59C221,382.94,221.06,381.78,221.07,380.58Z" style="fill:#f5f5f5;opacity:0.30000000000000004"></path><g style="mix-blend-mode:multiply"><path d="M186.7,234.59a56.84,56.84,0,0,0-19,5.11c-.88-.8-1.78-1.6-2.69-2.39a60.76,60.76,0,0,1,18.05-5.65C184.26,232.6,185.47,233.57,186.7,234.59Z" style="fill:#407BFF"></path><path d="M199,245.66c-6.35,1.86-12.82,3.9-17.74,8.2-.7-.83-1.4-1.65-2.12-2.48,4.82-4.16,10.85-6.46,17.11-8.37C197.15,243.88,198.08,244.75,199,245.66Z" style="fill:#407BFF"></path><path d="M215.84,264.38c-8-.61-15.2,2.89-21.74,7.43-.58-.93-1.16-1.87-1.76-2.8,6.35-4.35,13.21-7.73,20.75-8C214,262.1,214.91,263.23,215.84,264.38Z" style="fill:#407BFF"></path><path d="M227.82,281.13a56.65,56.65,0,0,0-23.61,10.09c-.46-1-.91-2-1.39-3.05a60.78,60.78,0,0,1,23-10C226.52,279.13,227.16,280.12,227.82,281.13Z" style="fill:#407BFF"></path><path d="M242.39,307.63a62.59,62.59,0,0,0-29.78,7.1c-.3-1.08-.62-2.17-1-3.26a65.28,65.28,0,0,1,29.15-7.17C241.35,305.4,241.88,306.51,242.39,307.63Z" style="fill:#407BFF"></path><path d="M256,344.65a101.09,101.09,0,0,0-36.5,5.56c-.11-1.11-.24-2.23-.4-3.36A104.94,104.94,0,0,1,255,341.31C255.38,342.42,255.7,343.53,256,344.65Z" style="fill:#407BFF"></path><path d="M262.84,376.25A142.44,142.44,0,0,0,221,384.08c0-1.14.05-2.3.06-3.5A145.53,145.53,0,0,1,262.31,373C262.48,374,262.67,375.14,262.84,376.25Z" style="fill:#407BFF"></path></g><g style="opacity:0.1"><path d="M186.7,234.59a56.84,56.84,0,0,0-19,5.11c-.88-.8-1.78-1.6-2.69-2.39a60.76,60.76,0,0,1,18.05-5.65C184.26,232.6,185.47,233.57,186.7,234.59Z"></path><path d="M199,245.66c-6.35,1.86-12.82,3.9-17.74,8.2-.7-.83-1.4-1.65-2.12-2.48,4.82-4.16,10.85-6.46,17.11-8.37C197.15,243.88,198.08,244.75,199,245.66Z"></path><path d="M215.84,264.38c-8-.61-15.2,2.89-21.74,7.43-.58-.93-1.16-1.87-1.76-2.8,6.35-4.35,13.21-7.73,20.75-8C214,262.1,214.91,263.23,215.84,264.38Z"></path><path d="M227.82,281.13a56.65,56.65,0,0,0-23.61,10.09c-.46-1-.91-2-1.39-3.05a60.78,60.78,0,0,1,23-10C226.52,279.13,227.16,280.12,227.82,281.13Z"></path><path d="M242.39,307.63a62.59,62.59,0,0,0-29.78,7.1c-.3-1.08-.62-2.17-1-3.26a65.28,65.28,0,0,1,29.15-7.17C241.35,305.4,241.88,306.51,242.39,307.63Z"></path><path d="M256,344.65a101.09,101.09,0,0,0-36.5,5.56c-.11-1.11-.24-2.23-.4-3.36A104.94,104.94,0,0,1,255,341.31C255.38,342.42,255.7,343.53,256,344.65Z"></path><path d="M262.84,376.25A142.44,142.44,0,0,0,221,384.08c0-1.14.05-2.3.06-3.5A145.53,145.53,0,0,1,262.31,373C262.48,374,262.67,375.14,262.84,376.25Z"></path></g><path d="M343.26,153.94c24-11.82,45.21-16.08,59-19-25.9-21.17-60.3-12.19-76.53-6,10.45-16.17,21.27-27.78,28.78-36-32.48-2.1-54.9,23.72-64.94,38.42-12.4-8.83-46.83-29.44-79.3-13.2,12.79,5.85,32.55,14.67,53.35,31.47-14.9,1.52-54.81,8.77-68.47,42.68,16.82-5.11,44.86-13.95,82-11.55l1.89.14c34.44,3.29,53.59,18.88,64.79,27.14-.45-10.56-5.53-18.85-11.62-25.08,32,6.61,54.51,19.7,68.53,27.67C394.81,174.53,357.45,158.7,343.26,153.94Z" style="fill:#407BFF"></path><path d="M343.26,153.94c24-11.82,45.21-16.08,59-19-25.9-21.17-60.3-12.19-76.53-6,10.45-16.17,21.27-27.78,28.78-36-32.48-2.1-54.9,23.72-64.94,38.42-12.4-8.83-46.83-29.44-79.3-13.2,12.79,5.85,32.55,14.67,53.35,31.47-14.9,1.52-54.81,8.77-68.47,42.68,16.82-5.11,44.86-13.95,82-11.55l1.89.14c34.44,3.29,53.59,18.88,64.79,27.14-.45-10.56-5.53-18.85-11.62-25.08,32,6.61,54.51,19.7,68.53,27.67C394.81,174.53,357.45,158.7,343.26,153.94Z" style="opacity:0.30000000000000004"></path><path d="M205.59,215.93c-12.87-15.9-35.42-13.23-43.65-11.59,8.38-12.41,17.51-20.37,23.39-25.61-20.05-3.36-35.08,13.33-40.27,20.08-7.79-6.21-24-16.35-41.06-9.89a145.31,145.31,0,0,1,21.31,14.52c-9.7-.62-29.58.22-40,15.8,7.83-.71,19.88-1.91,34.67.48-6.81,4.87-24.21,19.48-21.42,39.76,6.19-6.56,16.11-17.27,32.13-26.06a21.29,21.29,0,0,0-2.1,15.33c4.64-6.26,12.34-17.76,30.27-25.18l.94-.37C179.3,215.83,195.75,216,205.59,215.93Z" style="fill:#407BFF"></path><path d="M205.59,215.93c-12.87-15.9-35.42-13.23-43.65-11.59,8.38-12.41,17.51-20.37,23.39-25.61-20.05-3.36-35.08,13.33-40.27,20.08-7.79-6.21-24-16.35-41.06-9.89a145.31,145.31,0,0,1,21.31,14.52c-9.7-.62-29.58.22-40,15.8,7.83-.71,19.88-1.91,34.67.48-6.81,4.87-24.21,19.48-21.42,39.76,6.19-6.56,16.11-17.27,32.13-26.06a21.29,21.29,0,0,0-2.1,15.33c4.64-6.26,12.34-17.76,30.27-25.18l.94-.37C179.3,215.83,195.75,216,205.59,215.93Z" style="opacity:0.30000000000000004"></path></g><g id="freepik--Glass--inject-36"><polygon points="389.7 399.21 406.37 399.21 398.03 407.55 389.7 399.21" style="fill:#407BFF"></polygon><polygon points="393.03 416.74 403.04 416.74 398.03 415.67 393.03 416.74" style="fill:#407BFF"></polygon><rect x="397.49" y="406.17" width="1.08" height="10.04" style="fill:#407BFF"></rect><g style="opacity:0.6000000000000001"><polygon points="389.7 399.21 406.37 399.21 398.03 407.55 389.7 399.21" style="fill:#f5f5f5"></polygon><polygon points="393.03 416.74 403.04 416.74 398.03 415.67 393.03 416.74" style="fill:#f5f5f5"></polygon><rect x="397.49" y="406.17" width="1.08" height="10.04" style="fill:#f5f5f5"></rect></g><polygon points="398.03 406.02 401.26 402.8 394.8 402.8 398.03 406.02" style="fill:#407BFF;mix-blend-mode:multiply"></polygon><polygon points="398.03 406.02 401.26 402.8 394.8 402.8 398.03 406.02" style="fill:#f5f5f5;opacity:0.30000000000000004"></polygon><path d="M399.47,404a.31.31,0,0,1-.13,0,.27.27,0,0,1-.1-.37l3.35-6.13a.27.27,0,0,1,.48.26l-3.36,6.13A.27.27,0,0,1,399.47,404Z" style="fill:#407BFF"></path><path d="M399.47,404a.31.31,0,0,1-.13,0,.27.27,0,0,1-.1-.37l3.35-6.13a.27.27,0,0,1,.48.26l-3.36,6.13A.27.27,0,0,1,399.47,404Z" style="fill:#f5f5f5;opacity:0.30000000000000004"></path></g><g id="freepik--Character--inject-36"><path d="M113.3,409.93a2.17,2.17,0,0,1-2-2.86l4.81-14c.6-2.07,11-35.92,37.11-49.65,12.54-6.59,26.61-7.37,41.82-2.33,49,16.24,98.56,24.35,129.13-25.78a2.17,2.17,0,0,1,3.7,2.25c-14.42,23.64-33.68,36.58-58.89,39.57-20,2.38-43.23-1.31-75.3-11.93-14-4.66-27-4-38.45,2.05-24.8,13-34.89,46.74-35,47.08l0,.1-4.82,14A2.14,2.14,0,0,1,113.3,409.93Z" style="fill:#407BFF"></path><path d="M113.3,409.93a2.17,2.17,0,0,1-2-2.86l4.81-14c.6-2.07,11-35.92,37.11-49.65,12.54-6.59,26.61-7.37,41.82-2.33,49,16.24,98.56,24.35,129.13-25.78a2.17,2.17,0,0,1,3.7,2.25c-14.42,23.64-33.68,36.58-58.89,39.57-20,2.38-43.23-1.31-75.3-11.93-14-4.66-27-4-38.45,2.05-24.8,13-34.89,46.74-35,47.08l0,.1-4.82,14A2.14,2.14,0,0,1,113.3,409.93Z" style="opacity:0.30000000000000004"></path><path d="M329.81,317.56a5.34,5.34,0,0,0-5.94,2.19c-30.37,46.07-77.76,40.57-129.56,23.4-45.31-15-67.17,27.36-73.87,44.1a5.34,5.34,0,0,0,4.31,7.3L185,401.91s23.92-53.28,74.33-29.25S366,386.46,396.28,336.84Z" style="fill:#407BFF"></path><path d="M329.81,317.56a5.34,5.34,0,0,0-5.94,2.19c-30.37,46.07-77.76,40.57-129.56,23.4-45.31-15-67.17,27.36-73.87,44.1a5.34,5.34,0,0,0,4.31,7.3L185,401.91s23.92-53.28,74.33-29.25S366,386.46,396.28,336.84Z" style="fill:#f5f5f5;opacity:0.30000000000000004"></path><path d="M180.13,418.36a2.17,2.17,0,0,1-2-2.86l2.42-7.06a73.19,73.19,0,0,1,16.93-27.71c12.28-12.39,33.15-24.19,62.85-10,52.28,24.93,106.19,10.86,134.16-35a2.16,2.16,0,1,1,3.69,2.25C369,385.82,312.8,400.55,258.42,374.62c-27.42-13.08-46.63-2.24-57.91,9.15a68.77,68.77,0,0,0-15.92,26.07l-2.42,7.06A2.14,2.14,0,0,1,180.13,418.36Z" style="fill:#407BFF"></path><path d="M180.13,418.36a2.17,2.17,0,0,1-2-2.86l2.42-7.06a73.19,73.19,0,0,1,16.93-27.71c12.28-12.39,33.15-24.19,62.85-10,52.28,24.93,106.19,10.86,134.16-35a2.16,2.16,0,1,1,3.69,2.25C369,385.82,312.8,400.55,258.42,374.62c-27.42-13.08-46.63-2.24-57.91,9.15a68.77,68.77,0,0,0-15.92,26.07l-2.42,7.06A2.14,2.14,0,0,1,180.13,418.36Z" style="opacity:0.30000000000000004"></path><path d="M380.16,418.36a2.19,2.19,0,0,1-1.77-.91L350.44,377.9a2.16,2.16,0,0,1,3.53-2.49l28,39.54a2.17,2.17,0,0,1-1.77,3.41Z" style="fill:#407BFF"></path><path d="M380.16,418.36a2.19,2.19,0,0,1-1.77-.91L350.44,377.9a2.16,2.16,0,0,1,3.53-2.49l28,39.54a2.17,2.17,0,0,1-1.77,3.41Z" style="opacity:0.30000000000000004"></path><path d="M391.64,344.13a43.93,43.93,0,0,0-3.17-9.82,84.23,84.23,0,0,0-4.65-8.78,86.68,86.68,0,0,0-5.6-8.11l-3.43,2.37c1.5,2.67,3,5.49,4.28,8.3a77.26,77.26,0,0,1,3.51,8.55,41,41,0,0,1,2.1,8.55,14.64,14.64,0,0,1-.31,5.74,46.55,46.55,0,0,1-6.32,1.4A64.09,64.09,0,0,1,370,353a67.41,67.41,0,0,1-8.15-.41c-1.36-.14-2.71-.33-4.05-.56-.67-.11-1.33-.24-2-.37s-1.36-.29-1.84-.41l-2.32,8.09c.92.26,1.61.42,2.4.6s1.53.31,2.3.44c1.53.27,3.06.48,4.6.65a69.78,69.78,0,0,0,9.26.28c1.55-.06,3.1-.17,4.65-.34s3.08-.42,4.61-.73a55.68,55.68,0,0,0,9-2.61l1.45-.56.63-1.27a15.2,15.2,0,0,0,1.51-6A23.73,23.73,0,0,0,391.64,344.13Z" style="fill:#e4897b"></path><path d="M377.21,323.35l-8.85-5.1,8.57-5.8s3.23,4.49,2.8,8.59Z" style="fill:#e4897b"></path><polygon points="364.24 312.91 371.41 309.8 376.93 312.45 368.36 318.25 364.24 312.91" style="fill:#e4897b"></polygon><path d="M315.09,327.44c-.33-.46-.52-.74-.75-1.1l-.64-1c-.41-.68-.8-1.37-1.16-2.06q-1.1-2.08-2-4.25a46.42,46.42,0,0,1-2.61-9,43.41,43.41,0,0,1-.59-4.7,44.46,44.46,0,0,1,0-4.76,39.43,39.43,0,0,1,.59-4.73c.13-.79.34-1.56.51-2.34l.32-1.14.16-.58,0-.14.08-.22.15-.44a8.09,8.09,0,0,1,2.27-3.24,8.22,8.22,0,0,1,3.3-1.7,14.36,14.36,0,0,1,5.67-.21,37.64,37.64,0,0,1,9,2.68A91,91,0,0,1,344.86,297l-2.12,3.59c-2.51-1.17-5.1-2.33-7.69-3.37s-5.18-2.05-7.78-2.84a35.24,35.24,0,0,0-7.57-1.62,7.49,7.49,0,0,0-2.84.25.66.66,0,0,0-.55.55l-.37,1.61c-.1.63-.24,1.25-.31,1.88a31.88,31.88,0,0,0-.28,3.78,38,38,0,0,0,.76,7.58,41.46,41.46,0,0,0,2.3,7.38c.49,1.19,1,2.37,1.64,3.51.29.58.61,1.13.93,1.68l.48.81.43.68Z" style="fill:#e4897b"></path><path d="M341.1,299.47l7.53,6.16,2-10.16s-5.66-2-9.26,0Z" style="fill:#e4897b"></path><polygon points="357.33 305.37 357.39 297.56 350.6 295.47 348.63 305.63 357.33 305.37" style="fill:#e4897b"></polygon><path d="M360.53,291.56c-4.65.36-16.18.79-20.63,14.61s-24,11.8-18.09,22.87c9.62,17.92,23.63,21.42,37.45,17.33s31.05-19.58,19.7-39.3S360.53,291.56,360.53,291.56Z" style="fill:#263238"></path><path d="M325.28,334.72c3.08-11.57-5.24-22.29-5.24-22.29l-18,8.71s6,12.5,10.73,15.16C317.75,339.08,323.7,340.66,325.28,334.72Z" style="fill:#407BFF"></path><path d="M325.28,334.72c3.08-11.57-5.24-22.29-5.24-22.29l-18,8.71s6,12.5,10.73,15.16C317.75,339.08,323.7,340.66,325.28,334.72Z" style="fill:#f5f5f5;opacity:0.6000000000000001"></path><path d="M256.91,353.06c-1.15-.56-2.55-1.2-3.85-1.79l-4-1.79c-2.68-1.19-5.39-2.34-8.11-3.44-5.43-2.23-10.92-4.29-16.44-6.13a164,164,0,0,0-16.61-4.65c-2.77-.63-5.53-1.12-8.27-1.5l-1-.14c-.25,0-.14,0-.13,0h0a1.19,1.19,0,0,0-.52,0,12.42,12.42,0,0,0-2.62.95,45,45,0,0,0-6.64,4c-2.27,1.59-4.52,3.37-6.76,5.2-4.51,3.68-8.87,7.71-13.22,11.8-8.63,8.23-17.09,17-25.36,25.68l-7.13-5.67A323,323,0,0,1,159,346.23c4.08-4.71,8.38-9.26,13-13.69,2.31-2.21,4.73-4.36,7.31-6.45a60.06,60.06,0,0,1,8.69-5.95,28.18,28.18,0,0,1,5.86-2.42,18.42,18.42,0,0,1,4-.67,11.56,11.56,0,0,1,1.19,0l1,0,1.24.09c3.32.24,6.6.62,9.81,1.14a157.09,157.09,0,0,1,18.8,4.35c6.12,1.78,12.09,3.88,18,6.19,2.93,1.17,5.85,2.38,8.73,3.67,1.44.65,2.87,1.31,4.31,2s2.81,1.37,4.38,2.18Z" style="fill:#e4897b"></path><path d="M136.49,372.38l10.71,4.82a1,1,0,0,1,.56,1l-1.49,9.53a1.46,1.46,0,0,1-2.07,1.1c-3.79-1.66-5.57-2.49-10.28-4.61l-14.4-6.49c-3.91-1.76-3-6.08-1.17-5.71,8,1.66,13.17,1.33,16.36.23A2.39,2.39,0,0,1,136.49,372.38Z" style="fill:#263238"></path><path d="M282.2,362.11a208.6,208.6,0,0,0-42.57-17.88c.82-8,1.83-15.1.61-20a100.88,100.88,0,0,1,31.14,10.53Z" style="fill:#263238"></path><path d="M238.53,322.23s1.37,10.37-.93,25.78a36.68,36.68,0,0,0,6.22,2.14c.11,0,5-10.85,1.9-26A32.3,32.3,0,0,0,238.53,322.23Z" style="fill:#407BFF"></path><path d="M238.53,322.23s1.37,10.37-.93,25.78a36.68,36.68,0,0,0,6.22,2.14c.11,0,5-10.85,1.9-26A32.3,32.3,0,0,0,238.53,322.23Z" style="fill:#f5f5f5;opacity:0.4"></path><path d="M134.09,372.92h0l-.22,0c-1.49-.31-3.53-.73-3.92-1.72a1.18,1.18,0,0,1,.23-1.15.84.84,0,0,1,.71-.39h0c1.29,0,3.19,2.7,3.4,3a.19.19,0,0,1-.16.31ZM130.85,370a.46.46,0,0,0-.4.22.82.82,0,0,0-.18.78c.29.75,2.06,1.16,3.37,1.43-.7-.92-2-2.42-2.79-2.43Z" style="fill:#fafafa"></path><path d="M134.09,372.92a.2.2,0,0,1-.14-.06c-.95-1-2.52-4.08-1.94-5,.12-.19.38-.39.94-.21,2.2.69,1.37,4.93,1.33,5.11a.18.18,0,0,1-.13.15ZM132.56,368c-.16,0-.21.07-.22.1-.37.59.66,3,1.63,4.21.14-1,.37-3.79-1.14-4.26A.82.82,0,0,0,132.56,368Z" style="fill:#fafafa"></path><path d="M265.51,365.31l-1.9-.83-2-.85c-1.36-.57-2.73-1.13-4.11-1.67-2.75-1.1-5.52-2.16-8.32-3.15-5.57-2-11.21-3.81-16.86-5.34A132,132,0,0,0,215.35,350c-2.81-.36-5.59-.61-8.32-.69l-1,0h-.42a.15.15,0,0,0,.09,0s-.09,0-.4.07a11.2,11.2,0,0,0-2.44,1.21,43.9,43.9,0,0,0-6.19,4.82c-2.09,1.89-4.13,4-6.16,6.1-4.08,4.28-8,8.9-11.83,13.58-7.67,9.39-15.09,19.26-22.33,29.1l-7.77-4.74A331.27,331.27,0,0,1,167.83,367c3.52-5.25,7.29-10.37,11.35-15.42,2.06-2.52,4.22-5,6.57-7.41a59,59,0,0,1,8-7.08,26.9,26.9,0,0,1,5.72-3.16,18,18,0,0,1,4.08-1.09l1.25-.13.74,0,1.29-.06a93.7,93.7,0,0,1,10.22.21,133.51,133.51,0,0,1,19.57,3.12,183.43,183.43,0,0,1,18.67,5.41c3,1.07,6.06,2.19,9,3.4,1.49.61,3,1.23,4.47,1.88l2.23,1,2.32,1.09Z" style="fill:#e4897b"></path><path d="M150.35,395.57l10.72,3a.79.79,0,0,1,.58.87l-1.13,8.81a1.6,1.6,0,0,1-2,1.28c-3.72-1.1-5.46-1.82-10.18-3.13-2.9-.81-13-3.22-17-4.33s-3.12-5.13-1.35-5c7.92.46,15.48.11,18.58-1.31A2.61,2.61,0,0,1,150.35,395.57Z" style="fill:#263238"></path><path d="M358.6,354.54C346,367.89,323.06,366,300.09,369.29a106.39,106.39,0,0,0-13.92,2.85c-2.85-7.23-8.93-22.56-14.79-37.41,4.47,1.61,9.92,1.36,15.5.12,15.4-3.4,31.87-14.24,31.87-14.24a170.24,170.24,0,0,1,14.61,9.1,126.11,126.11,0,0,1,13.8,12A117.45,117.45,0,0,1,358.6,354.54Z" style="fill:#407BFF"></path><path d="M358.6,354.54C346,367.89,323.06,366,300.09,369.29a106.39,106.39,0,0,0-13.92,2.85c-2.85-7.23-8.93-22.56-14.79-37.41,4.47,1.61,9.92,1.36,15.5.12,15.4-3.4,31.87-14.24,31.87-14.24a170.24,170.24,0,0,1,14.61,9.1,126.11,126.11,0,0,1,13.8,12A117.45,117.45,0,0,1,358.6,354.54Z" style="fill:#f5f5f5;opacity:0.6000000000000001"></path><path d="M300.09,369.29a106.39,106.39,0,0,0-13.92,2.85c-2.85-7.23-8.93-22.56-14.79-37.41,4.47,1.61,9.92,1.36,15.5.12C294.67,343.58,303.23,362.56,300.09,369.29Z" style="fill:#e4897b"></path><path d="M359.26,324.93c-4.72,3.69-12.63,11.08-12.09,16.73,0,0-12.25.49-22.75-2.65-1.58-10.3,8.94-9.3,8.94-9.3,6,3.11,9-.68,11.16-4.88Z" style="fill:#e4897b"></path><path d="M353.25,324.89l-8.73-.06a18.79,18.79,0,0,1-1.69,2.82c2.13,1.36,6.45,2.14,8.36.33A10.53,10.53,0,0,0,353.25,324.89Z" style="fill:#ce6f64"></path><path d="M369.13,315.68c-6.18,7.64-8.63,11-15.59,12.24-10.46,1.84-18.49-7.42-14.72-16.75,3.4-8.4,12.94-19.49,23-17.1A13.4,13.4,0,0,1,369.13,315.68Z" style="fill:#e4897b"></path><path d="M365.89,320.52a.39.39,0,0,1-.27-.11l-8.06-7.87a.39.39,0,0,1,.55-.55l8.05,7.86a.38.38,0,0,1,0,.55A.39.39,0,0,1,365.89,320.52Z" style="fill:#263238"></path><path d="M357.58,295.1c.33,2.16,5,11.16,9.69,13.52-1.67,1.73-11.94,8.85-3.87,13.67s17.9-5.16,14.84-12.09c6.13-7.15.25-13.86-5.2-17.47S356.36,287.2,357.58,295.1Z" style="fill:#263238"></path><path d="M349.48,296.38s8.82-1.17,11.3,1.49c.54-2.08,0-5.32-2.84-5.05S349.48,296.38,349.48,296.38Z" style="fill:#263238"></path><path d="M379.48,309.45a.39.39,0,0,1-.23-.07.41.41,0,0,1-.1-.57c2.12-3,2.67-6,1.59-8.79-1.25-3.19-4.65-5.73-8.87-6.62a.41.41,0,0,1-.31-.48.42.42,0,0,1,.48-.32c4.48.95,8.1,3.68,9.45,7.13.83,2.11,1.21,5.48-1.68,9.55A.39.39,0,0,1,379.48,309.45Z" style="fill:#263238"></path><path d="M366.13,323.41a7.18,7.18,0,0,1-5.11,2c-2.52-.07-3-2.5-1.71-4.49,1.19-1.78,3.94-3.9,6.17-2.86A3.23,3.23,0,0,1,366.13,323.41Z" style="fill:#e4897b"></path><path d="M274.5,342.94s-11.78-4-28.47-8L244.2,360.1c16.11,8.16,30.32,19.33,42,12Z" style="fill:#407BFF"></path><path d="M274.5,342.94s-11.78-4-28.47-8L244.2,360.1c16.11,8.16,30.32,19.33,42,12Z" style="opacity:0.7000000000000001"></path><path d="M243.8,333.3A94.82,94.82,0,0,1,242,361a36.31,36.31,0,0,0,6.07,2.52,100.34,100.34,0,0,0,3-28.71A32.64,32.64,0,0,0,243.8,333.3Z" style="fill:#407BFF"></path><path d="M243.8,333.3A94.82,94.82,0,0,1,242,361a36.31,36.31,0,0,0,6.07,2.52,100.34,100.34,0,0,0,3-28.71A32.64,32.64,0,0,0,243.8,333.3Z" style="fill:#f5f5f5;opacity:0.6000000000000001"></path><path d="M288.59,371.83l-3,2.2a.58.58,0,0,1-.76-.41l-15.75-39.77c-.14-.34-.06-.75.35-.74l4,.7a.88.88,0,0,1,.77.69l14.48,36.61A.74.74,0,0,1,288.59,371.83Z" style="fill:#407BFF"></path><path d="M288.59,371.83l-3,2.2a.58.58,0,0,1-.76-.41l-15.75-39.77c-.14-.34-.06-.75.35-.74l4,.7a.88.88,0,0,1,.77.69l14.48,36.61A.74.74,0,0,1,288.59,371.83Z" style="opacity:0.30000000000000004"></path><path d="M282.34,368.41l.4,1c.08.2.25.31.37.25l4.16-2.2c.12-.06.16-.28.08-.48l-.41-1c-.08-.21-.24-.32-.36-.25l-4.16,2.19A.4.4,0,0,0,282.34,368.41Z" style="fill:#263238"></path><path d="M270,337.55l.37,1c.08.19.26.33.4.3l4.89-1c.14,0,.2-.21.12-.4l-.37-1c-.08-.2-.26-.33-.4-.3l-4.89,1C270,337.17,269.93,337.35,270,337.55Z" style="fill:#263238"></path><path d="M276.21,353l.4,1c.08.2.25.33.38.28l4.44-1.58c.13-.05.18-.25.1-.45l-.4-1c-.08-.2-.25-.33-.38-.28l-4.44,1.58C276.18,352.58,276.14,352.78,276.21,353Z" style="fill:#263238"></path><path d="M358.76,312a5.22,5.22,0,0,1-5.34,2,4.31,4.31,0,0,1-1.57-.79,4.92,4.92,0,0,1-.43-7Z" style="fill:#263238"></path><path d="M351.29,307.35a.38.38,0,0,1-.25-.09l-1.19-1a.38.38,0,0,1-.05-.55.39.39,0,0,1,.55-.05l1.19,1a.39.39,0,0,1,0,.55A.41.41,0,0,1,351.29,307.35Z" style="fill:#263238"></path><path d="M355.42,309.29c-.46.65-1.18.93-1.6.63s-.4-1.08.06-1.73,1.19-.93,1.61-.63S355.89,308.64,355.42,309.29Z" style="fill:#263238"></path><path d="M350.86,305.78a5.19,5.19,0,0,1-5.34,2A4.29,4.29,0,0,1,344,307c-2.06-1.61-2.25-4.69-.43-7Z" style="fill:#263238"></path><path d="M348.07,304.05c-.46.65-1.18.93-1.61.63s-.39-1.08.07-1.73,1.18-.93,1.61-.63S348.53,303.4,348.07,304.05Z" style="fill:#263238"></path><path d="M348.3,302.49l-1.24-1.56S347,302.72,348.3,302.49Z" style="fill:#263238"></path><path d="M350.1,306.58a22.28,22.28,0,0,1-5.88,1.6,3.45,3.45,0,0,0,1.49,2.48Z" style="fill:#de5753"></path><path d="M350.51,316.64a6.91,6.91,0,0,1-4.07-1.34.19.19,0,0,1-.05-.27.21.21,0,0,1,.28,0,6.34,6.34,0,0,0,5.67,1,.19.19,0,0,1,.25.11.2.2,0,0,1-.11.26A6,6,0,0,1,350.51,316.64Z" style="fill:#263238"></path><path d="M361.57,306.65a.38.38,0,0,1-.39-.34,3.81,3.81,0,0,0-1.85-2.93.39.39,0,1,1,.35-.7,4.56,4.56,0,0,1,2.27,3.54.38.38,0,0,1-.34.43Z" style="fill:#263238"></path><path d="M350.58,299.86a.39.39,0,0,1-.31-.15,3.76,3.76,0,0,0-3.24-1.22.37.37,0,0,1-.42-.35.38.38,0,0,1,.35-.42,4.59,4.59,0,0,1,3.93,1.51.4.4,0,0,1-.07.55A.43.43,0,0,1,350.58,299.86Z" style="fill:#263238"></path><path d="M343.29,344.63c4.11-2.82,21.11,2.07,21.11,2.07l-2.57,20.65s-17.85-4.06-24.26-3.61C332.13,364.11,338.06,348.23,343.29,344.63Z" style="fill:#407BFF"></path><path d="M343.29,344.63c4.11-2.82,21.11,2.07,21.11,2.07l-2.57,20.65s-17.85-4.06-24.26-3.61C332.13,364.11,338.06,348.23,343.29,344.63Z" style="fill:#f5f5f5;opacity:0.6000000000000001"></path><path d="M149.24,396.65h0c-1.31,0-3.61-.3-4.27-1.35a1.28,1.28,0,0,1,0-1.26.75.75,0,0,1,.59-.49c1.23-.17,3.6,2.47,3.86,2.77a.22.22,0,0,1,0,.22A.21.21,0,0,1,149.24,396.65Zm-3.56-2.72h-.09a.37.37,0,0,0-.3.25.94.94,0,0,0,0,.91c.38.59,1.66,1,3.48,1.13C148,395.36,146.46,393.93,145.68,393.93Z" style="fill:#fafafa"></path><path d="M149.24,396.65a.16.16,0,0,1-.13-.06c-.76-.76-1.92-3.28-1.41-4.28a.77.77,0,0,1,.89-.4,1.23,1.23,0,0,1,.85.55c.77,1.19,0,3.93,0,4a.2.2,0,0,1-.14.14Zm-.84-4.36a.36.36,0,0,0-.36.2c-.34.68.42,2.62,1.11,3.54.17-.77.49-2.55,0-3.36a.79.79,0,0,0-.58-.37Z" style="fill:#fafafa"></path><path d="M355.66,307.73l-1.25-1.56S354.35,308,355.66,307.73Z" style="fill:#263238"></path></g></svg>