<svg id="service-caixa-eletronico" xmlns="http://www.w3.org/2000/svg" width="37.864" height="38.455" viewBox="0 0 37.864 38.455">
  <ellipse id="Elipse_163" data-name="Elipse 163" cx="18.932" cy="18.932" rx="18.932" ry="18.932" transform="translate(0 0.59)" fill="#c69a6a"/>
  <path id="Caminho_4339" data-name="Caminho 4339" d="M77.526,3.819v26.4a19.23,19.23,0,0,1-31.547,0V3.819A3.818,3.818,0,0,1,49.8,0H73.708A3.819,3.819,0,0,1,77.526,3.819Z" transform="translate(-42.526)" fill="#34abe0"/>
  <path id="Caminho_4340" data-name="Caminho 4340" d="M122.517,116.827H102.479a1.634,1.634,0,0,1-1.634-1.634V100.971a1.634,1.634,0,0,1,1.634-1.634h20.038a1.634,1.634,0,0,1,1.634,1.634v14.221A1.634,1.634,0,0,1,122.517,116.827Z" transform="translate(-93.271 -91.876)" fill="#279fc9"/>
  <g id="Grupo_614" data-name="Grupo 614" transform="translate(10.247 9.932)">
    <path id="Caminho_4341" data-name="Caminho 4341" d="M147.817,132.248H137.53a1.1,1.1,0,0,0-1.1,1.1v6.4a1.1,1.1,0,0,0,1.1,1.1h10.287a1.1,1.1,0,0,0,1.1-1.1v-6.4A1.1,1.1,0,0,0,147.817,132.248Z" transform="translate(-136.435 -132.248)" fill="#5c5e70"/>
    <rect id="Retângulo_114" data-name="Retângulo 114" width="5.032" height="1.095" transform="translate(14.202 0)" fill="#5c5e70"/>
    <path id="Caminho_4342" data-name="Caminho 4342" d="M329.632,163.657h-3.17a.931.931,0,0,1-.931-.931v-4.471a.931.931,0,0,1,.931-.931h3.17a.931.931,0,0,1,.931.931v4.471A.931.931,0,0,1,329.632,163.657Z" transform="translate(-311.329 -155.441)" fill="#5c5e70"/>
  </g>
  <g id="Grupo_615" data-name="Grupo 615" transform="translate(9.851 19.3)">
    <path id="Caminho_4343" data-name="Caminho 4343" d="M131.163,386.457a.452.452,0,0,1,.018-.1l1.644-5.391c.1-.309.495-.459.9-.459s.8.15.9.459l1.652,5.391a.456.456,0,0,1,.018.1c0,.327-.5.566-.884.566-.221,0-.4-.071-.451-.256l-.3-1.1H132.8l-.3,1.1c-.053.186-.23.256-.451.256C131.667,387.023,131.163,386.784,131.163,386.457Zm3.208-1.856-.645-2.368-.645,2.368Z" transform="translate(-131.163 -371.232)" fill="#f9eed7"/>
    <path id="Caminho_4344" data-name="Caminho 4344" d="M221.29,381.217c.292,0,.415.318.415.61,0,.336-.15.628-.415.628H220.07v4.8c0,.283-.345.424-.689.424s-.689-.141-.689-.424v-4.8h-1.22c-.265,0-.415-.292-.415-.628,0-.292.124-.61.415-.61Z" transform="translate(-210.606 -371.886)" fill="#f9eed7"/>
    <path id="Caminho_4345" data-name="Caminho 4345" d="M312.886,385.387a.507.507,0,0,1-.46.256.454.454,0,0,1-.433-.256l-.839-1.538v3.4c0,.283-.345.424-.689.424s-.689-.141-.689-.424v-5.347a.638.638,0,0,1,.689-.689c.495,0,.707.053,1.069.689l.91,1.591.91-1.591c.362-.636.574-.689,1.069-.689a.634.634,0,0,1,.689.689v5.347c0,.283-.345.424-.689.424s-.689-.141-.689-.424v-3.314Z" transform="translate(-296.361 -371.885)" fill="#f9eed7"/>
    <path id="Caminho_4346" data-name="Caminho 4346" d="M138.42,258.808H136.9a.462.462,0,0,1-.462-.463v-.906a.462.462,0,0,1,.462-.462h1.522a.462.462,0,0,1,.462.462v.906A.462.462,0,0,1,138.42,258.808Z" transform="translate(-136.04 -256.977)" fill="#f9eed7"/>
    <path id="Caminho_4347" data-name="Caminho 4347" d="M138.42,293.509H136.9a.462.462,0,0,1-.462-.462v-.906a.462.462,0,0,1,.462-.462h1.522a.462.462,0,0,1,.462.462v.906A.462.462,0,0,1,138.42,293.509Z" transform="translate(-136.04 -289.072)" fill="#f9eed7"/>
    <path id="Caminho_4348" data-name="Caminho 4348" d="M181.315,258.808h-1.522a.462.462,0,0,1-.462-.463v-.906a.462.462,0,0,1,.462-.462h1.522a.462.462,0,0,1,.462.462v.906A.462.462,0,0,1,181.315,258.808Z" transform="translate(-175.713 -256.977)" fill="#f9eed7"/>
    <path id="Caminho_4349" data-name="Caminho 4349" d="M181.315,293.509h-1.522a.462.462,0,0,1-.462-.462v-.906a.462.462,0,0,1,.462-.462h1.522a.462.462,0,0,1,.462.462v.906A.463.463,0,0,1,181.315,293.509Z" transform="translate(-175.713 -289.072)" fill="#f9eed7"/>
    <path id="Caminho_4350" data-name="Caminho 4350" d="M225.866,258.808h-1.522a.462.462,0,0,1-.462-.463v-.906a.462.462,0,0,1,.462-.462h1.522a.462.462,0,0,1,.462.462v.906A.462.462,0,0,1,225.866,258.808Z" transform="translate(-216.918 -256.977)" fill="#f9eed7"/>
    <path id="Caminho_4351" data-name="Caminho 4351" d="M225.866,293.509h-1.522a.462.462,0,0,1-.462-.462v-.906a.462.462,0,0,1,.462-.462h1.522a.462.462,0,0,1,.462.462v.906A.463.463,0,0,1,225.866,293.509Z" transform="translate(-216.918 -289.072)" fill="#f9eed7"/>
    <path id="Caminho_4352" data-name="Caminho 4352" d="M271.975,258.808h-1.522a.462.462,0,0,1-.463-.463v-.906a.462.462,0,0,1,.463-.462h1.522a.462.462,0,0,1,.462.462v.906A.462.462,0,0,1,271.975,258.808Z" transform="translate(-259.564 -256.977)" fill="#f9eed7"/>
    <path id="Caminho_4353" data-name="Caminho 4353" d="M271.975,293.509h-1.522a.462.462,0,0,1-.463-.462v-.906a.462.462,0,0,1,.463-.462h1.522a.462.462,0,0,1,.462.462v.906A.463.463,0,0,1,271.975,293.509Z" transform="translate(-259.564 -289.072)" fill="#f9eed7"/>
  </g>
</svg>
