<svg id="service-academia" xmlns="http://www.w3.org/2000/svg" width="34.806" height="34.806" viewBox="0 0 34.806 34.806">
  <g id="Grupo_624" data-name="Grupo 624" transform="translate(0 0)">
    <path id="Caminho_4390" data-name="Caminho 4390" d="M17.4,0A17.417,17.417,0,0,0,.657,22.156L12.649,34.148A17.4,17.4,0,1,0,17.4,0Z" fill="#b3e135"/>
  </g>
  <g id="Grupo_642" data-name="Grupo 642" transform="translate(0.657 0)">
    <g id="Grupo_625" data-name="Grupo 625" transform="translate(27.239 0.293)">
      <path id="Caminho_4391" data-name="Caminho 4391" d="M416.352,7.924l-3,3-3-3,3-3a2.12,2.12,0,0,1,3,3Z" transform="translate(-410.356 -4.306)" fill="#ebf0f3"/>
    </g>
    <g id="Grupo_626" data-name="Grupo 626" transform="translate(10.25 10.907)">
      <path id="Caminho_4392" data-name="Caminho 4392" d="M163.444,173.437l-3-3a36.031,36.031,0,0,1,9.993-9.993l3,3A36.031,36.031,0,0,1,163.444,173.437Z" transform="translate(-160.446 -160.446)" fill="#ebf0f3"/>
    </g>
    <g id="Grupo_627" data-name="Grupo 627" transform="translate(10.25 15.409)">
      <path id="Caminho_4393" data-name="Caminho 4393" d="M164.948,226.671a36.033,36.033,0,0,0-4.5,5.491l3,3a36.022,36.022,0,0,0,5.491-4.5,2.82,2.82,0,0,1-3.987-3.988Z" transform="translate(-160.446 -226.671)" fill="#ceddf7"/>
    </g>
    <g id="Grupo_628" data-name="Grupo 628" transform="translate(8.337 18.988)">
      <path id="Caminho_4394" data-name="Caminho 4394" d="M132.72,279.726a1.413,1.413,0,0,1,2,0l4,4a1.413,1.413,0,0,1-2,2l-4-4A1.413,1.413,0,0,1,132.72,279.726Z" transform="translate(-132.306 -279.312)" fill="#ceddf7"/>
    </g>
    <g id="Grupo_629" data-name="Grupo 629" transform="translate(8.337 18.988)">
      <path id="Caminho_4395" data-name="Caminho 4395" d="M135.718,282.724a1.413,1.413,0,0,1,2,0l-3-3a1.413,1.413,0,0,0-2,2l3,3A1.413,1.413,0,0,1,135.718,282.724Z" transform="translate(-132.306 -279.312)" fill="#aac5ee"/>
    </g>
    <g id="Grupo_630" data-name="Grupo 630" transform="translate(0 19.987)">
      <path id="Caminho_4396" data-name="Caminho 4396" d="M13.422,294.427a1.413,1.413,0,0,0-2,0l-1.755,1.755A17.438,17.438,0,0,0,21.66,308.174l1.755-1.755a1.413,1.413,0,0,0,0-2Z" transform="translate(-9.668 -294.013)" fill="#303a59"/>
    </g>
    <g id="Grupo_631" data-name="Grupo 631" transform="translate(0 20.265)">
      <path id="Caminho_4397" data-name="Caminho 4397" d="M16.888,301.7c-1.71-1.376-3.134-2.98-5.3-3.6a1.413,1.413,0,0,0-.16.135l-1.756,1.756a17.349,17.349,0,0,0,3.009,5.932l.072.072a1.627,1.627,0,0,1,.447-1.552l2.322-2.322a1.411,1.411,0,0,1,1.452-.337Z" transform="translate(-9.669 -298.097)" fill="#232d47"/>
    </g>
    <g id="Grupo_632" data-name="Grupo 632" transform="translate(0.342 14.99)">
      <path id="Caminho_4398" data-name="Caminho 4398" d="M15.115,222.922l2-2a1.413,1.413,0,0,1,2,0L33.1,234.914a1.413,1.413,0,0,1,0,2l-2,2a1.413,1.413,0,0,1-2,0L15.115,224.921A1.413,1.413,0,0,1,15.115,222.922Z" transform="translate(-14.701 -220.51)" fill="#3e4a68"/>
    </g>
    <g id="Grupo_633" data-name="Grupo 633" transform="translate(0.342 14.99)">
      <path id="Caminho_4399" data-name="Caminho 4399" d="M19.1,226.912l2-2a1.413,1.413,0,0,1,2,0l-3.99-3.99a1.413,1.413,0,0,0-2,0l-2,2a1.413,1.413,0,0,0,0,2l3.99,3.99A1.413,1.413,0,0,1,19.1,226.912Z" transform="translate(-14.701 -220.51)" fill="#303a59"/>
    </g>
    <g id="Grupo_634" data-name="Grupo 634" transform="translate(18.33 8.994)">
      <path id="Caminho_4400" data-name="Caminho 4400" d="M279.726,132.72a1.413,1.413,0,0,1,2,0l4,4a1.413,1.413,0,0,1-2,2l-4-4A1.413,1.413,0,0,1,279.726,132.72Z" transform="translate(-279.312 -132.306)" fill="#ceddf7"/>
    </g>
    <g id="Grupo_635" data-name="Grupo 635" transform="translate(18.33 8.994)">
      <path id="Caminho_4401" data-name="Caminho 4401" d="M282.724,135.718a1.413,1.413,0,0,1,2,0l-3-3a1.413,1.413,0,0,0-2,2l3,3A1.413,1.413,0,0,1,282.724,135.718Z" transform="translate(-279.312 -132.306)" fill="#aac5ee"/>
    </g>
    <g id="Grupo_636" data-name="Grupo 636" transform="translate(25.326 1.999)">
      <path id="Caminho_4402" data-name="Caminho 4402" d="M382.631,29.815a1.413,1.413,0,0,1,2,0l4,4a1.413,1.413,0,1,1-2,2l-4-4a1.413,1.413,0,0,1,0-2Z" transform="translate(-382.217 -29.401)" fill="#ceddf7"/>
    </g>
    <g id="Grupo_637" data-name="Grupo 637" transform="translate(25.326 1.999)">
      <path id="Caminho_4403" data-name="Caminho 4403" d="M384.622,31.806a1.413,1.413,0,0,1,2,0l-1.991-1.991a1.413,1.413,0,1,0-2,2l1.991,1.991A1.413,1.413,0,0,1,384.622,31.806Z" transform="translate(-382.217 -29.401)" fill="#aac5ee"/>
    </g>
    <g id="Grupo_638" data-name="Grupo 638" transform="translate(19.33 0)">
      <path id="Caminho_4404" data-name="Caminho 4404" d="M308.418,12.407l-2,2a1.413,1.413,0,0,1-2,0l-9.994-9.993a1.413,1.413,0,0,1,0-2l2-2a1.413,1.413,0,0,1,2,0l9.993,9.993A1.413,1.413,0,0,1,308.418,12.407Z" transform="translate(-294.013 -0.001)" fill="#303a59"/>
    </g>
    <g id="Grupo_639" data-name="Grupo 639" transform="translate(19.33 0)">
      <path id="Caminho_4405" data-name="Caminho 4405" d="M298.416,6.4l2-2a1.413,1.413,0,0,1,2,0l-3.99-3.99a1.413,1.413,0,0,0-2,0l-2,2a1.413,1.413,0,0,0,0,2l3.99,3.99a1.413,1.413,0,0,1,0-2Z" transform="translate(-294.013 0)" fill="#232d47"/>
    </g>
    <g id="Grupo_640" data-name="Grupo 640" transform="translate(14.333 0.999)">
      <path id="Caminho_4406" data-name="Caminho 4406" d="M238.912,31.1l-2,2a1.413,1.413,0,0,1-2,0L220.924,19.112a1.413,1.413,0,0,1,0-2l2-2a1.413,1.413,0,0,1,2,0l13.991,13.991A1.413,1.413,0,0,1,238.912,31.1Z" transform="translate(-220.51 -14.701)" fill="#3e4a68"/>
    </g>
    <g id="Grupo_641" data-name="Grupo 641" transform="translate(14.333 0.997)">
      <path id="Caminho_4407" data-name="Caminho 4407" d="M224.915,21.072l2-2a1.413,1.413,0,0,1,2,0l-3.993-3.993a1.409,1.409,0,0,0-2,0l-2,2a1.413,1.413,0,0,0,0,2l3.99,3.99A1.413,1.413,0,0,1,224.915,21.072Z" transform="translate(-220.512 -14.668)" fill="#303a59"/>
    </g>
  </g>
</svg>
