<svg id="service-quadras" xmlns="http://www.w3.org/2000/svg" width="38.578" height="38.594" viewBox="0 0 38.578 38.594">
  <ellipse id="Elipse_130" data-name="Elipse 130" cx="19.289" cy="19.289" rx="19.289" ry="19.289" transform="translate(0 0.016)" fill="#ffd15c"/>
  <ellipse id="Elipse_131" data-name="Elipse 131" cx="19.289" cy="19.289" rx="19.289" ry="19.289" transform="translate(0 0.016)" fill="#5c5e70"/>
  <g id="Grupo_583" data-name="Grupo 583" transform="translate(3.045 0.912)">
    <path id="Caminho_4172" data-name="Caminho 4172" d="M71.578,84.767a.368.368,0,0,1-.517-.065L56.05,65.358a.368.368,0,1,1,.582-.452L71.643,84.25A.368.368,0,0,1,71.578,84.767Z" transform="translate(-54.806 -60.794)" fill="#f9eed7"/>
    <path id="Caminho_4173" data-name="Caminho 4173" d="M179.657,28.984a.368.368,0,0,1-.517-.065l-12.6-16.232a.368.368,0,1,1,.582-.452l12.6,16.231A.368.368,0,0,1,179.657,28.984Z" transform="translate(-156.971 -12.093)" fill="#f9eed7"/>
    <path id="Caminho_4174" data-name="Caminho 4174" d="M53.692,126.739a.368.368,0,0,1-.517-.065l-12.6-16.231a.368.368,0,0,1,.582-.452l12.6,16.232A.368.368,0,0,1,53.692,126.739Z" transform="translate(-40.501 -102.479)" fill="#f9eed7"/>
    <path id="Caminho_4175" data-name="Caminho 4175" d="M134.561,35.889a.368.368,0,0,1-.517-.065L119.033,16.48a.368.368,0,1,1,.582-.452l15.012,19.344A.368.368,0,0,1,134.561,35.889Z" transform="translate(-113.042 -15.6)" fill="#f9eed7"/>
    <path id="Caminho_4176" data-name="Caminho 4176" d="M95.821,50.989a.368.368,0,0,1-.517-.065l-16.3-21a.368.368,0,0,1,.582-.452l16.3,21A.368.368,0,0,1,95.821,50.989Z" transform="translate(-76.032 -28.029)" fill="#f9eed7"/>
    <path id="Caminho_4177" data-name="Caminho 4177" d="M77.4,59.406,62.173,71.225a.368.368,0,0,1-.452-.582l15.23-11.819a.368.368,0,1,1,.451.582Z" transform="translate(-59.991 -55.23)" fill="#f9eed7"/>
    <path id="Caminho_4178" data-name="Caminho 4178" d="M160.425,162.749l-13.506,10.482a.368.368,0,1,1-.452-.582l13.506-10.482a.368.368,0,0,1,.452.582Z" transform="translate(-138.348 -150.783)" fill="#f9eed7"/>
    <path id="Caminho_4179" data-name="Caminho 4179" d="M62.671,36.786,49.164,47.268a.368.368,0,0,1-.452-.582L62.219,36.2a.368.368,0,1,1,.451.582Z" transform="translate(-47.962 -34.315)" fill="#f9eed7"/>
    <path id="Caminho_4180" data-name="Caminho 4180" d="M55.159,21.307,44.4,29.657a.368.368,0,0,1-.452-.582l10.759-8.349a.368.368,0,1,1,.451.582Z" transform="translate(-43.557 -20.003)" fill="#f9eed7"/>
    <path id="Caminho_4181" data-name="Caminho 4181" d="M198.891,206.516l-10.759,8.349a.368.368,0,0,1-.452-.582l10.759-8.349a.368.368,0,1,1,.451.582Z" transform="translate(-176.455 -191.251)" fill="#f9eed7"/>
    <path id="Caminho_4182" data-name="Caminho 4182" d="M126.28,122.389l-15.23,11.819a.368.368,0,1,1-.452-.582l15.23-11.819a.368.368,0,0,1,.452.582Z" transform="translate(-105.183 -113.466)" fill="#f9eed7"/>
    <path id="Caminho_4183" data-name="Caminho 4183" d="M102.119,91.152l-15.18,11.781a.368.368,0,1,1-.452-.582l15.18-11.781a.368.368,0,1,1,.451.582Z" transform="translate(-82.889 -84.583)" fill="#f9eed7"/>
  </g>
  <path id="Caminho_4184" data-name="Caminho 4184" d="M239.01,265.063l-.692.537a.663.663,0,0,1-.921-.106l-.5-.612a15.914,15.914,0,0,0-8.394-5.35l-1.934-.488.324-1.285,1.934.488a17.26,17.26,0,0,1,7.424,4.023,17.121,17.121,0,0,1-2.119-8.81l.033-1.06a.662.662,0,0,1,.007-.074l.662.1.656.02-.033,1.061a15.8,15.8,0,0,0,3.653,10.614.663.663,0,0,1-.1.948Z" transform="translate(-209.501 -233.305)" fill="#f4a14e"/>
  <path id="Caminho_4185" data-name="Caminho 4185" d="M368.7,405.63q-.578.545-1.2,1.038-.244.195-.5.38-.533.395-1.1.75l-2.083-2.683a1.109,1.109,0,0,1-.1-1.2,1.094,1.094,0,0,1,.3-.352l1.047-.813a1.106,1.106,0,0,1,1.551.2l1.23,1.586.021.026Z" transform="translate(-336.195 -372.178)" fill="#279fc9"/>
  <path id="Caminho_4186" data-name="Caminho 4186" d="M381.542,405.631q-.578.545-1.2,1.039-.244.194-.5.38l-2-2.572-.134-.173a1.105,1.105,0,0,1,1.746-1.356l1.23,1.586.021.026Z" transform="translate(-349.035 -372.179)" fill="#34abe0"/>
  <path id="Caminho_4187" data-name="Caminho 4187" d="M54.509,16.232A16.952,16.952,0,0,0,50.794,6.5a18.062,18.062,0,0,0-5.447-4.737A14.7,14.7,0,0,0,42.285.479,9.542,9.542,0,0,0,33.6,1.786a9.537,9.537,0,0,0-3.423,8.092,14.681,14.681,0,0,0,.479,3.284,18.039,18.039,0,0,0,3.236,6.453A16.955,16.955,0,0,0,42.4,25.63a11.464,11.464,0,0,0,3.945.455,8.96,8.96,0,0,0,2.669-.586,8.295,8.295,0,0,0,3.636-2.769A8.847,8.847,0,0,0,53.856,20.5,11.311,11.311,0,0,0,54.509,16.232Zm-4.358,6.285q-.138.121-.284.235c-.1.076-.2.147-.3.217a6.421,6.421,0,0,1-2.139.944,7,7,0,0,1-.818.147,8.869,8.869,0,0,1-3.007-.174c-.041-.008-.081-.018-.122-.028q-.268-.062-.538-.14-.173-.05-.346-.106c-.062-.019-.123-.039-.185-.06a12.886,12.886,0,0,1-2.009-.882q-.347-.188-.688-.4a15.128,15.128,0,0,1-1.9-1.395c-.189-.16-.374-.327-.557-.5a16.881,16.881,0,0,1-1.55-1.669q-.126-.154-.25-.313c-.069-.088-.137-.178-.2-.268a16.988,16.988,0,0,1-1.238-1.911c-.123-.219-.238-.439-.349-.661h0a15.239,15.239,0,0,1-.887-2.182c-.081-.254-.154-.508-.219-.762a12.949,12.949,0,0,1-.373-2.234c0-.038-.006-.077-.008-.116s0-.053,0-.079c-.008-.121-.014-.241-.017-.362,0-.159-.006-.317,0-.473,0-.07,0-.139,0-.208a8.89,8.89,0,0,1,.578-2.955,7.118,7.118,0,0,1,.346-.756,6.435,6.435,0,0,1,1.445-1.837c.092-.081.186-.159.284-.234s.2-.147.3-.217A6.445,6.445,0,0,1,37.252,2.2a7.144,7.144,0,0,1,.818-.147,8.9,8.9,0,0,1,3.005.173c.068.015.136.031.2.048.152.037.3.076.457.121q.173.05.346.106c.025.007.05.015.074.024l.11.037a12.755,12.755,0,0,1,2.072.916c.23.126.459.26.684.4a15.283,15.283,0,0,1,1.894,1.4q.281.243.554.5a16.964,16.964,0,0,1,1.543,1.674c.07.086.14.175.209.263q.123.159.242.319A17.056,17.056,0,0,1,50.7,9.949q.181.33.346.664a15.1,15.1,0,0,1,.879,2.189q.12.381.215.765a12.787,12.787,0,0,1,.356,2.166c.005.065.009.129.013.194.008.121.014.241.017.362q.008.282,0,.556c0,.042,0,.083,0,.125a8.885,8.885,0,0,1-.578,2.955,6.956,6.956,0,0,1-.346.756A6.416,6.416,0,0,1,50.151,22.517Z" transform="translate(-27.903 0)" fill="#f4a14e"/>
  <path id="Caminho_4188" data-name="Caminho 4188" d="M404.1,427.528q-.578.545-1.2,1.038l-.883-1.138a.657.657,0,0,1,.116-.921l.216-.168a.657.657,0,0,1,.9.09l.021.026Z" transform="translate(-371.592 -394.076)" fill="#78caef"/>
  <path id="Caminho_4189" data-name="Caminho 4189" d="M195.22,123.3q-.055.173-.121.339a4.77,4.77,0,0,1-4.121,2.982,4.687,4.687,0,0,1-.719-.008,4.786,4.786,0,0,1-2.872-1.3,4.677,4.677,0,0,1-.4-.433,4.768,4.768,0,1,1,8.234-1.583Z" transform="translate(-171.899 -108.269)" fill="#edbb4c"/>
  <path id="Caminho_4190" data-name="Caminho 4190" d="M215.76,123.337c-.037.115-.077.229-.121.339a4.167,4.167,0,0,1-3.714,1.674,4.182,4.182,0,0,1-2.51-1.132,4.072,4.072,0,0,1-.351-.378,4.168,4.168,0,0,1,2.312-6.708,4.769,4.769,0,0,1,4.385,6.205Z" transform="translate(-192.44 -108.303)" fill="#ffd15c"/>
  <g id="Grupo_584" data-name="Grupo 584" transform="translate(15.014 9.938)">
    <path id="Caminho_4191" data-name="Caminho 4191" d="M200.437,137.035a6.318,6.318,0,0,1-.632,1.843.335.335,0,0,1-.018.029l-.03.043a4.667,4.667,0,0,1-.4-.433,5.758,5.758,0,0,0,.525-1.581,4.428,4.428,0,0,0-.253-1.991,6.094,6.094,0,0,1-.318-2.416,4.727,4.727,0,0,1,.676-.692l-.041.329c0,.01,0,.019,0,.028a4.98,4.98,0,0,0,.232,2.6A4.922,4.922,0,0,1,200.437,137.035Z" transform="translate(-199.284 -131.837)" fill="#f9eed7"/>
    <path id="Caminho_4192" data-name="Caminho 4192" d="M242.059,153.59a1.726,1.726,0,0,1-.422.5,2.887,2.887,0,0,1-1.391.589c-1.88.3-2.956,1.236-3.2,2.782a2.463,2.463,0,0,0,.541,1.82l.014.016.123.161a4.679,4.679,0,0,1-.719-.008,3.053,3.053,0,0,1-.517-2.077c.195-1.247.989-2.824,3.667-3.252.985-.157,1.463-.707,1.476-1.029a.205.205,0,0,1,0-.023v-.008l.069-.455A4.742,4.742,0,0,1,242.059,153.59Z" transform="translate(-233.662 -151.042)" fill="#f9eed7"/>
  </g>
</svg>
