<svg xmlns="http://www.w3.org/2000/svg" width="52" height="52" viewBox="0 0 52 52">
  <g id="twitter" transform="translate(-0.001)">
    <circle id="Elipse_91" data-name="Elipse 91" cx="26" cy="26" r="26" transform="translate(0.001 0)" fill="#55acee"/>
    <g id="Grupo_508" data-name="Grupo 508" transform="translate(11.667 15.814)">
      <path id="Caminho_3937" data-name="Caminho 3937" d="M55.477,36.95a12.433,12.433,0,0,1-3.579.98,6.248,6.248,0,0,0,2.741-3.447A12.475,12.475,0,0,1,50.681,36,6.237,6.237,0,0,0,40.062,41.68a17.689,17.689,0,0,1-12.845-6.512,6.238,6.238,0,0,0,1.928,8.32,6.188,6.188,0,0,1-2.822-.78c0,.026,0,.053,0,.079a6.235,6.235,0,0,0,5,6.11A6.256,6.256,0,0,1,28.508,49a6.238,6.238,0,0,0,5.821,4.328,12.579,12.579,0,0,1-9.226,2.58,17.627,17.627,0,0,0,9.552,2.8c11.462,0,17.73-9.5,17.73-17.731,0-.27-.006-.539-.018-.806a12.637,12.637,0,0,0,3.11-3.225Z" transform="translate(-25.103 -34.028)" fill="#f1f2f2"/>
    </g>
  </g>
</svg>
