<svg xmlns="http://www.w3.org/2000/svg" width="60" height="60" viewBox="0 0 60 60">
  <g id="user-face" transform="translate(-6136 -2267)">
    <g id="Ellipse_92" data-name="Ellipse 92" transform="translate(6136 2267)" fill="#2980b9" stroke="#707070" stroke-width="1">
      <circle cx="30" cy="30" r="30" stroke="none"/>
      <circle cx="30" cy="30" r="29.5" fill="none"/>
    </g>
    <g id="User" transform="translate(6147.834 2278.177)">
      <path id="Path_3938" data-name="Path 3938" d="M28.486,23.08a10.519,10.519,0,1,0-12.156,0A17.12,17.12,0,0,0,4,39.493a1.315,1.315,0,0,0,1.315,1.315H39.5a1.315,1.315,0,0,0,1.315-1.315A17.12,17.12,0,0,0,28.486,23.08Zm-13.967-8.57A7.889,7.889,0,1,1,22.408,22.4a7.889,7.889,0,0,1-7.889-7.889ZM6.689,38.179a14.483,14.483,0,0,1,14.4-13.149h2.63a14.483,14.483,0,0,1,14.4,13.149Z" transform="translate(-4 -3.976)" fill="#fff"/>
    </g>
  </g>
</svg>
